<svg xmlns="http://www.w3.org/2000/svg" xmlns:xlink="http://www.w3.org/1999/xlink" width="189.104" height="75.738" viewBox="0 0 189.104 75.738"><defs><style>.a{fill:#646464;}.b{fill:url(#a);}.c{fill:url(#b);}.d{fill:url(#c);}.e{fill:url(#d);}.f{fill:url(#e);}.g{fill:url(#f);}.h{fill:url(#g);}.i{fill:url(#h);}.j{fill:#44b9ae;}.k{fill:#3c5680;}.l{fill:url(#i);}.m{fill:url(#j);}.n{fill:url(#k);}.o{fill:url(#l);}</style><linearGradient id="a" x1="0.162" y1="0.4" x2="0.806" y2="0.586" gradientUnits="objectBoundingBox"><stop offset="0" stop-color="#f57f20" stop-opacity="0.8"/><stop offset="1" stop-color="#f15822"/></linearGradient><linearGradient id="b" y1="0.495" x2="1.005" y2="0.495" gradientUnits="objectBoundingBox"><stop offset="0" stop-color="#fecf63" stop-opacity="0.82"/><stop offset="1" stop-color="#febb12" stop-opacity="0.82"/></linearGradient><linearGradient id="c" x1="1" y1="0.499" x2="0" y2="0.499" gradientUnits="objectBoundingBox"><stop offset="0" stop-color="#2b837c"/><stop offset="1" stop-color="#00bff3"/></linearGradient><linearGradient id="d" y1="0.499" x2="1" y2="0.499" gradientUnits="objectBoundingBox"><stop offset="0" stop-color="#3a547d"/><stop offset="1" stop-color="#4f65af"/></linearGradient><linearGradient id="e" x1="0.502" y1="1.005" x2="0.502" gradientUnits="objectBoundingBox"><stop offset="0.021" stop-color="#ef4136"/><stop offset="1" stop-color="#f26450"/></linearGradient><linearGradient id="f" x1="1" y1="0.499" x2="0.002" y2="0.499" gradientUnits="objectBoundingBox"><stop offset="0" stop-color="#903a62" stop-opacity="0.8"/><stop offset="1" stop-color="#4f122c" stop-opacity="0.82"/></linearGradient><linearGradient id="g" x1="-0.005" y1="0.498" x2="0.993" y2="0.498" xlink:href="#a"/><linearGradient id="h" x1="0.004" y1="0.495" x2="1.004" y2="0.495" xlink:href="#b"/><linearGradient id="i" x1="-0.009" y1="0.491" x2="1" y2="0.491" xlink:href="#e"/><linearGradient id="j" x1="0.002" y1="0.508" x2="1.001" y2="0.508" xlink:href="#f"/><linearGradient id="k" x1="0.003" y1="0.501" x2="1" y2="0.501" xlink:href="#d"/><linearGradient id="l" x1="0.002" y1="0.509" x2="1.011" y2="0.509" xlink:href="#c"/></defs><g transform="translate(-13.9 -10.6)"><path class="a" d="M41.989,127.054l-4.433-11.419h-14.6l-4.384,11.37H13.9L28.257,90.1h4.192l14.357,36.905H41.989Zm-5.83-15.514L32.015,100.41l-1.783-5.492a54.492,54.492,0,0,1-1.59,5.492l-4.1,11.129Z" transform="translate(0 -41.197)"/><path class="a" d="M96.768,127.035a11.792,11.792,0,0,0,2.072-.193,8.454,8.454,0,0,0,1.783-.385v3.469a8.09,8.09,0,0,1-1.927.53,12.5,12.5,0,0,1-2.7.241q-8.094,0-8.094-8.528V106.077H84v-2.168l3.951-1.831L89.782,96.2h2.7v6.36h7.95v3.517H92.48v15.947a5.3,5.3,0,0,0,1.156,3.662A3.758,3.758,0,0,0,96.768,127.035Z" transform="translate(-36.326 -44.358)"/><path class="a" d="M152.287,122.661c0,4.529-1.156,8.046-3.421,10.551-2.264,2.553-5.444,3.806-9.443,3.806a12.67,12.67,0,0,1-6.649-1.734,11.252,11.252,0,0,1-4.432-5.011,17.191,17.191,0,0,1-1.542-7.612c0-4.481,1.108-8,3.373-10.5s5.4-3.758,9.443-3.758a11.751,11.751,0,0,1,9.25,3.854C151.131,114.808,152.287,118.277,152.287,122.661Zm-20.862,0c0,3.469.675,6.119,2.072,7.9a8.124,8.124,0,0,0,12.093,0c1.4-1.783,2.072-4.433,2.072-7.9s-.675-6.071-2.072-7.853a7.37,7.37,0,0,0-6.071-2.65C134.123,112.206,131.425,115.723,131.425,122.661Z" transform="translate(-58.505 -50.681)"/><path class="a" d="M229.723,136.537V118.759c0-4.336-1.879-6.552-5.589-6.552-2.554,0-4.433.723-5.637,2.216s-1.831,3.758-1.831,6.841v15.225h-4.529V118.71a7.567,7.567,0,0,0-1.349-4.914,5.255,5.255,0,0,0-4.288-1.638c-2.553,0-4.432.771-5.589,2.361-1.2,1.542-1.783,4.1-1.783,7.661v14.309H194.6V108.882h3.662l.675,3.758h.241a7.742,7.742,0,0,1,3.324-3.132,10,10,0,0,1,4.818-1.108c4.336,0,7.131,1.542,8.431,4.625h.241a9.139,9.139,0,0,1,3.613-3.421,10.9,10.9,0,0,1,5.2-1.2c3.132,0,5.444.819,6.986,2.409s2.313,4.192,2.313,7.709v17.971h-4.384Z" transform="translate(-93.64 -50.681)"/><path class="a" d="M299.033,110.509l1.542-1.975,1.783-2.12,8.817-9.347h5.3L305.3,108.919l11.948,15.8H311.8l-9.588-12.864-3.132,2.746v10.118H294.6V85.6h4.481v20.428l-.193,4.481Z" transform="translate(-145.46 -38.865)"/><path class="a" d="M356.229,137.107H351.7V109.5h4.529Z" transform="translate(-175.05 -51.251)"/><path class="a" d="M384.668,127.035a11.792,11.792,0,0,0,2.072-.193,8.455,8.455,0,0,0,1.783-.385v3.469a8.09,8.09,0,0,1-1.927.53,12.5,12.5,0,0,1-2.7.241q-8.094,0-8.094-8.528V106.077h-3.9v-2.168l3.951-1.831,1.831-5.878h2.7v6.36h7.95v3.517h-7.95v15.947a5.3,5.3,0,0,0,1.156,3.662A3.758,3.758,0,0,0,384.668,127.035Z" transform="translate(-185.518 -44.358)"/><g transform="translate(162.389 10.6)"><path class="b" d="M330.869,22.624a8.224,8.224,0,0,0-1.445,2.409,7.666,7.666,0,0,0-.578,1.975,23.44,23.44,0,0,1-6.167,6.215,18.339,18.339,0,0,1-.578-4.577,16.085,16.085,0,0,1,1.3-6.167,16.348,16.348,0,0,1,3.71-5.444A15.9,15.9,0,0,1,331.495,14,20.365,20.365,0,0,1,330.869,22.624Z" transform="translate(-322.1 -12.362)"/><path class="c" d="M323.73,48.953c-.193-.53-.385-1.108-.53-1.638a22.732,22.732,0,0,0,6.167-6.215,10.627,10.627,0,0,0-.193,1.783,9.983,9.983,0,0,0,.675,3.758,11.129,11.129,0,0,0,2.12,3.324l2.12,2.216a45.05,45.05,0,0,0-6.119,3.132l-.723-.723A18.966,18.966,0,0,1,323.73,48.953Z" transform="translate(-322.67 -26.405)"/><path class="d" d="M339.319,63.9l4.866,5.011.193,9.3L333.2,67.032A45.048,45.048,0,0,1,339.319,63.9Z" transform="translate(-327.852 -38.22)"/><path class="e" d="M363.131,59.485a1.3,1.3,0,0,0,.337-.385,18.66,18.66,0,0,1,6.793,1.879,17.905,17.905,0,0,1-2.554,3.228L356.193,75.722l-.193-9.3Z" transform="translate(-339.667 -35.733)"/><path class="f" d="M359.183,14.936a15.87,15.87,0,0,0-4.77-3.083A16.455,16.455,0,0,0,348.2,10.6h-.048a17.323,17.323,0,0,0-6.215,1.156c-.385.145-.771.337-1.156.482a18.018,18.018,0,0,1-.578,8.576,6.206,6.206,0,0,1,.771-.819,9.91,9.91,0,0,1,3.324-2.168A10.463,10.463,0,0,1,348.1,17.1a10.076,10.076,0,0,1,3.758.771,9.221,9.221,0,0,1,2.987,1.975A6.834,6.834,0,0,1,359.183,14.936Z" transform="translate(-331.48 -10.6)"/><path class="g" d="M379.128,25.819a16.1,16.1,0,0,0-3.565-5.492l-.626-.626a6.834,6.834,0,0,0-4.336,4.914l.289.289a9.911,9.911,0,0,1,2.168,3.324,10.463,10.463,0,0,1,.723,3.806,9.26,9.26,0,0,1-.819,3.758,9.489,9.489,0,0,1-1.927,2.891,18.66,18.66,0,0,1,6.793,1.879,18.7,18.7,0,0,0,1.156-2.168,20.078,20.078,0,0,0,.867-2.746,14.35,14.35,0,0,0,.434-3.517A15.777,15.777,0,0,0,379.128,25.819Z" transform="translate(-347.233 -15.316)"/><g transform="translate(10.31 10.881)"><path class="h" d="M350.262,35.649a3.863,3.863,0,0,0-1.012.241,3.072,3.072,0,0,0-.675.385,8.284,8.284,0,0,1-3.276,0,5.7,5.7,0,0,1,1.06-1.349,7.033,7.033,0,0,1,1.975-1.3,5.787,5.787,0,0,1,2.409-.434,6.8,6.8,0,0,1,1.975.337A7.254,7.254,0,0,1,350.262,35.649Z" transform="translate(-344.433 -33.185)"/><path class="i" d="M344.03,40.178l.289-.578a8.284,8.284,0,0,0,3.276,0,4.2,4.2,0,0,0-.53.434,3.887,3.887,0,0,0-.819,1.156,3.52,3.52,0,0,0-.289,1.445v1.156a15.7,15.7,0,0,0-2.457-.771v-.385A6.567,6.567,0,0,1,344.03,40.178Z" transform="translate(-343.5 -36.509)"/><path class="j" d="M345.957,47.319l-.048,2.6-.048.145L343.5,46.5C344.271,46.741,345.09,46.982,345.957,47.319Z" transform="translate(-343.5 -40.085)"/><path class="k" d="M352.106,53.648h.193a6.2,6.2,0,0,1,1.3,2.264,7.938,7.938,0,0,1-1.542.193L348.3,53.745l.048-.145Z" transform="translate(-345.987 -43.764)"/><path class="l" d="M362.2,39.541a7.2,7.2,0,0,0-.434-2.072,6.128,6.128,0,0,0-1.3-1.975h0a6.635,6.635,0,0,0-1.927-1.349L358.109,34a6.621,6.621,0,0,1-2.409,2.12h.434a3.52,3.52,0,0,1,1.445.289,3.559,3.559,0,0,1,1.2.819,3.451,3.451,0,0,1,.771,1.2,4.221,4.221,0,0,1,.289,1.3A2.126,2.126,0,0,1,362.2,39.541Z" transform="translate(-349.822 -33.607)"/><path class="m" d="M362.141,47.893a5.858,5.858,0,0,0,.53-2.409v-.337a2.635,2.635,0,0,0-2.457.145v.145a3.521,3.521,0,0,1-.289,1.445,4.1,4.1,0,0,1-.819,1.2,3.957,3.957,0,0,1-1.2.771,3.678,3.678,0,0,1-1.3.241,6.2,6.2,0,0,1,1.3,2.264,3.062,3.062,0,0,0,.867-.289,8.983,8.983,0,0,0,.964-.482,5.677,5.677,0,0,0,1.06-.819A4.5,4.5,0,0,0,362.141,47.893Z" transform="translate(-350.288 -39.262)"/><g transform="translate(0 6.223)"><path class="n" d="M354.557,52.851a3.863,3.863,0,0,0,1.012-.241,3.071,3.071,0,0,0,.674-.385,8.284,8.284,0,0,1,3.276,0,5.7,5.7,0,0,1-1.06,1.349,7.033,7.033,0,0,1-1.975,1.3,5.787,5.787,0,0,1-2.409.434,6.8,6.8,0,0,1-1.975-.337A6.816,6.816,0,0,1,354.557,52.851Z" transform="translate(-347.957 -49.189)"/><path class="o" d="M343.5,46.293a7.2,7.2,0,0,0,.434,2.072,6.128,6.128,0,0,0,1.3,1.975h0a6.635,6.635,0,0,0,1.927,1.349l.434.145A6.621,6.621,0,0,1,350,49.713h-.434a3.52,3.52,0,0,1-1.445-.289,4.1,4.1,0,0,1-1.2-.819,3.45,3.45,0,0,1-.771-1.2,6.313,6.313,0,0,1-.289-1.3A2.126,2.126,0,0,1,343.5,46.293Z" transform="translate(-343.5 -46.1)"/></g></g></g></g></svg>