<svg
	xmlns="http://www.w3.org/2000/svg" width="579.061" height="409.899" viewBox="0 0 579.061 409.899">
	<defs>
		<style>.a{opacity:0.65;}.b,.c,.e,.f,.g,.h,.i,.j,.k,.l,.m,.n,.o,.p{fill:none;}.b,.c,.e,.f,.g,.h,.i,.j,.k,.l,.m,.n,.o{stroke:#c5a47e;}.b{opacity:0;}.d,.o{opacity:0.2;}.e{opacity:0.091;}.f{opacity:0.182;}.g{opacity:0.273;}.h{opacity:0.364;}.i{opacity:0.455;}.j{opacity:0.545;}.k{opacity:0.636;}.l{opacity:0.727;}.m{opacity:0.818;}.n{opacity:0.909;}.p{stroke:#2b2b2b;}</style>
	</defs>
	<g class="laptop-move" transform="translate(0.5 0.634)">
		<g class="a" transform="translate(-137.762 -84.356)">
			<path class="b" d="M504.989,409,308.338,295.461c-5.562-3.212-4.865-8.822,1.558-12.53L443.8,205.647c6.422-3.71,16.14-4.111,21.7-.9L662.156,318.283c5.562,3.212,4.865,8.822-1.558,12.531L526.692,408.1C520.27,411.807,510.553,412.21,504.989,409Z" transform="translate(0 81.951)"/>
			<path class="c" d="M640,199.107,443.349,85.57a7.944,7.944,0,0,0-6.664-.816l.014-.02-.357.134-.088.034-7.106,2.719,6.378,3.122c-.029.119-.064.229-.091.347L403.4,236.9c-1.6,7.3,1.609,15.814,7.171,19.026L602.494,366.728l-.684,8.132,7.767-3.01c2.609-1.219,4.7-3.979,5.562-7.911l32.032-145.8C648.774,210.838,645.564,202.319,640,199.107Z" transform="translate(68.214 0)"/>
			<path class="c" d="M629.815,199.107,433.164,85.57a7.944,7.944,0,0,0-6.664-.816l.014-.02-.357.134-.088.034-7.106,2.719,6.378,3.122c-.029.119-.064.229-.091.347L391.642,251.026,585.365,359.05l50.662-152.106A15.271,15.271,0,0,0,629.815,199.107Z" transform="translate(78.4 0)"/>
			<path class="c" d="M544.645,174.111l14.969-6.373c.274-5.8-2.125-11.786-6.065-14.99l-23.7,9.968Z" transform="translate(156.155 47.409)"/>
			<path class="c" d="M599.991,372.966,403.341,259.429c-5.564-3.212-8.774-11.73-7.171-19.026L428.2,94.6c1.6-7.3,7.411-10.61,12.975-7.4L637.828,200.738c5.562,3.212,8.772,11.73,7.171,19.026L612.966,365.571C611.363,372.867,605.554,376.178,599.991,372.966Z" transform="translate(63.201 1.122)"/>
			<path class="c" d="M592.418,357.743,407.472,251.016c-5.091-2.939-8.029-10.735-6.561-17.411l29.311-133.424c1.466-6.678,6.783-9.707,11.873-6.769L627.042,200.139c5.09,2.939,8.027,10.735,6.561,17.411L604.292,350.974C602.824,357.652,597.509,360.681,592.418,357.743Z" transform="translate(66.511 5.5)"/>
			<path class="c" d="M592.418,357.743,407.472,251.016c-5.091-2.939-8.029-10.735-6.561-17.411l29.311-133.424c1.466-6.678,6.783-9.707,11.873-6.769L627.042,200.139c5.09,2.939,8.027,10.735,6.561,17.411L604.292,350.974C602.824,357.652,597.509,360.681,592.418,357.743Z" transform="translate(66.511 5.5)"/>
			<path class="c" d="M665.9,301.747,639.024,298.2,465.5,198.016c-5.564-3.212-15.281-2.809-21.7.9L320.843,269.878l-16.255-2.145v9.221l.015,0c-.107,2.13,1.107,4.18,3.732,5.7L504.986,396.19c5.564,3.212,15.281,2.809,21.7-.9L660.6,318.007c3.613-2.088,5.415-4.775,5.308-7.3h0Z" transform="translate(0.003 77.285)"/>
			<path class="c" d="M527.22,395.665,392.136,320.24l-83.8-48.732h12.508l-16.255-2.145v9.221l.015,0c-.107,2.13,1.107,4.18,3.732,5.7L504.986,397.82c2.939,1.7,7.04,2.376,11.2,2.1Z" transform="translate(0.003 75.656)"/>
			<path class="c" d="M311.8,239.255l-7.213-.952v9.221l.015,0c-.107,2.13,1.107,4.18,3.732,5.7l3.466,2Z" transform="translate(0.003 106.715)"/>
			<path class="c" d="M424.113,323.6c5.273,2,12.812,1.565,18.44-1.145V301.888h-18.44Z" transform="translate(82.857 150.792)"/>
			<path class="c" d="M504.989,393.237,308.338,279.7c-5.562-3.212-4.865-8.822,1.558-12.531L443.8,189.886c6.422-3.708,16.14-4.111,21.7-.9L662.156,302.524c5.562,3.21,4.865,8.822-1.558,12.53L526.692,392.337C520.27,396.046,510.553,396.449,504.989,393.237Z" transform="translate(0 71.026)"/>
			<path class="c" d="M660.594,276.587,526.688,353.872c-6.422,3.708-16.14,4.111-21.7.9L308.333,241.234a7.311,7.311,0,0,1-3.457-3.783c-.87,2.631.239,5.293,3.457,7.152L504.984,358.138c5.564,3.214,15.281,2.811,21.7-.9l133.906-77.284c4.316-2.492,6.034-5.841,5.015-8.747C664.976,273.125,663.3,275.025,660.594,276.587Z" transform="translate(0.005 106.125)"/>
			<g transform="translate(382.597 264.837)">
				<path class="c" d="M360.038,224.882l-8.9-5.137c-.715-.413-.625-1.133.2-1.61l10.5-6.063a3.1,3.1,0,0,1,2.787-.115l8.9,5.137c.715.413.625,1.133-.2,1.609l-10.5,6.065A3.1,3.1,0,0,1,360.038,224.882Z" transform="translate(-350.658 -176.578)"/>
				<path class="c" d="M368.153,229.567l-8.9-5.137c-.715-.411-.625-1.133.2-1.608l10.5-6.063a3.1,3.1,0,0,1,2.787-.117l8.9,5.137c.715.413.625,1.133-.2,1.61l-10.5,6.063A3.1,3.1,0,0,1,368.153,229.567Z" transform="translate(-345.033 -173.33)"/>
				<path class="c" d="M376.269,234.251l-8.9-5.135c-.714-.413-.625-1.134.2-1.61l10.5-6.063a3.1,3.1,0,0,1,2.789-.115l8.9,5.137c.715.411.625,1.133-.2,1.609l-10.5,6.063A3.092,3.092,0,0,1,376.269,234.251Z" transform="translate(-339.407 -170.082)"/>
				<path class="c" d="M387.492,229.984l-8.9-5.137c-.715-.411-.625-1.133.2-1.608l8.815-5.09a3.1,3.1,0,0,1,2.787-.117l8.9,5.137c.715.413.625,1.133-.2,1.61l-8.816,5.09A3.1,3.1,0,0,1,387.492,229.984Z" transform="translate(-331.627 -172.366)"/>
				<path class="c" d="M395.608,234.669l-8.9-5.135c-.715-.413-.625-1.134.2-1.61l8.816-5.09a3.1,3.1,0,0,1,2.787-.115l8.9,5.137c.715.411.625,1.133-.2,1.608l-8.815,5.09A3.091,3.091,0,0,1,395.608,234.669Z" transform="translate(-326.001 -169.118)"/>
				<path class="c" d="M403.723,239.355l-8.9-5.137c-.715-.413-.625-1.133.2-1.61l8.816-5.09a3.1,3.1,0,0,1,2.787-.115l8.9,5.137c.715.413.625,1.133-.2,1.609l-8.816,5.091A3.1,3.1,0,0,1,403.723,239.355Z" transform="translate(-320.376 -165.87)"/>
				<path class="c" d="M411.838,244.04l-8.9-5.137c-.715-.411-.625-1.133.2-1.608l8.816-5.09a3.1,3.1,0,0,1,2.787-.117l8.9,5.137c.715.413.625,1.133-.2,1.61l-8.816,5.09A3.1,3.1,0,0,1,411.838,244.04Z" transform="translate(-314.751 -162.623)"/>
				<path class="c" d="M419.953,248.725l-8.9-5.135c-.715-.413-.625-1.134.2-1.61l8.815-5.09a3.1,3.1,0,0,1,2.787-.115l8.9,5.137c.715.411.625,1.133-.2,1.609l-8.816,5.09A3.091,3.091,0,0,1,419.953,248.725Z" transform="translate(-309.125 -159.375)"/>
				<path class="c" d="M428.069,253.411l-8.9-5.137c-.715-.413-.625-1.133.2-1.61l8.816-5.09a3.1,3.1,0,0,1,2.787-.115l8.9,5.137c.714.413.625,1.133-.2,1.609l-8.815,5.091A3.1,3.1,0,0,1,428.069,253.411Z" transform="translate(-303.5 -156.127)"/>
				<path class="c" d="M436.184,258.1l-8.9-5.137c-.715-.411-.625-1.133.2-1.609l8.816-5.09a3.1,3.1,0,0,1,2.787-.117l8.9,5.137c.715.413.625,1.133-.2,1.61l-8.816,5.09A3.1,3.1,0,0,1,436.184,258.1Z" transform="translate(-297.874 -152.879)"/>
				<path class="c" d="M444.3,262.781l-8.9-5.135c-.715-.413-.625-1.134.2-1.61l8.816-5.09a3.1,3.1,0,0,1,2.787-.115l8.9,5.137c.715.411.625,1.133-.2,1.608l-8.816,5.09A3.091,3.091,0,0,1,444.3,262.781Z" transform="translate(-292.249 -149.631)"/>
				<path class="c" d="M452.414,267.467l-8.9-5.137c-.714-.413-.625-1.133.2-1.61l8.816-5.09a3.1,3.1,0,0,1,2.787-.115l8.9,5.137c.714.413.625,1.133-.2,1.609l-8.816,5.091A3.1,3.1,0,0,1,452.414,267.467Z" transform="translate(-286.624 -146.383)"/>
				<path class="c" d="M460.53,272.152l-8.9-5.137c-.714-.411-.625-1.133.2-1.608l8.816-5.09a3.1,3.1,0,0,1,2.787-.117l8.9,5.137c.714.413.625,1.134-.2,1.61l-8.815,5.09A3.1,3.1,0,0,1,460.53,272.152Z" transform="translate(-280.998 -143.135)"/>
				<path class="c" d="M399.45,227.766l-8.9-5.137c-.715-.413-.625-1.133.2-1.609l8.816-5.091a3.1,3.1,0,0,1,2.787-.115l8.9,5.137c.715.413.625,1.133-.2,1.61l-8.816,5.09A3.1,3.1,0,0,1,399.45,227.766Z" transform="translate(-323.338 -173.904)"/>
				<path class="c" d="M391.213,223.011l-8.9-5.137c-.715-.413-.625-1.133.2-1.61l8.816-5.09a3.1,3.1,0,0,1,2.787-.115l8.9,5.137c.714.411.625,1.133-.2,1.609L394,222.895A3.1,3.1,0,0,1,391.213,223.011Z" transform="translate(-329.048 -177.2)"/>
				<path class="c" d="M387.165,220.675,368,209.61c-.715-.411-.625-1.133.2-1.609l8.816-5.09a3.1,3.1,0,0,1,2.787-.117L398.97,213.86c.713.411.625,1.133-.2,1.609l-8.815,5.09A3.1,3.1,0,0,1,387.165,220.675Z" transform="translate(-338.969 -182.928)"/>
				<path class="c" d="M391.455,214.028,375.9,205.049c-.715-.411-.625-1.133.2-1.609l8.816-5.09a3.1,3.1,0,0,1,2.787-.115l15.552,8.977c.715.413.625,1.134-.2,1.61l-8.816,5.09A3.1,3.1,0,0,1,391.455,214.028Z" transform="translate(-333.493 -186.089)"/>
				<path class="c" d="M407.565,232.451l-8.9-5.137c-.715-.411-.625-1.133.2-1.609l8.816-5.09a3.091,3.091,0,0,1,2.787-.115l8.9,5.135c.715.413.625,1.134-.2,1.61l-8.816,5.09A3.1,3.1,0,0,1,407.565,232.451Z" transform="translate(-317.713 -170.656)"/>
				<path class="c" d="M415.68,237.137l-8.9-5.137c-.715-.413-.625-1.133.2-1.61l8.816-5.09a3.1,3.1,0,0,1,2.787-.115l8.9,5.137c.715.411.625,1.133-.2,1.609l-8.816,5.09A3.1,3.1,0,0,1,415.68,237.137Z" transform="translate(-312.088 -167.408)"/>
				<path class="c" d="M423.8,241.822l-8.9-5.137c-.715-.413-.625-1.133.2-1.609l8.815-5.091a3.1,3.1,0,0,1,2.787-.115l8.9,5.137c.714.413.625,1.133-.2,1.61l-8.816,5.09A3.1,3.1,0,0,1,423.8,241.822Z" transform="translate(-306.462 -164.16)"/>
				<path class="c" d="M431.911,246.507l-8.9-5.137c-.715-.411-.625-1.133.2-1.609l8.816-5.09a3.091,3.091,0,0,1,2.787-.115l8.9,5.137c.715.411.625,1.133-.2,1.609l-8.816,5.09A3.1,3.1,0,0,1,431.911,246.507Z" transform="translate(-300.836 -160.912)"/>
				<path class="c" d="M440.026,251.193l-8.9-5.137c-.714-.413-.625-1.133.2-1.61l8.816-5.09a3.1,3.1,0,0,1,2.787-.115l8.9,5.137c.715.411.625,1.133-.2,1.609l-8.816,5.09A3.1,3.1,0,0,1,440.026,251.193Z" transform="translate(-295.211 -157.664)"/>
				<path class="c" d="M448.141,255.878l-8.9-5.137c-.715-.413-.625-1.133.2-1.609l8.816-5.091a3.1,3.1,0,0,1,2.787-.115l8.9,5.137c.715.413.625,1.133-.2,1.61l-8.816,5.09A3.1,3.1,0,0,1,448.141,255.878Z" transform="translate(-289.586 -154.417)"/>
				<path class="c" d="M456.256,260.563l-8.9-5.137c-.715-.411-.625-1.133.2-1.609l8.815-5.09a3.1,3.1,0,0,1,2.787-.115l8.9,5.137c.715.411.625,1.133-.2,1.609l-8.817,5.09A3.1,3.1,0,0,1,456.256,260.563Z" transform="translate(-283.961 -151.169)"/>
				<path class="c" d="M464.372,265.249l-8.9-5.137c-.715-.413-.625-1.133.2-1.61l8.817-5.09a3.1,3.1,0,0,1,2.787-.115l8.9,5.137c.715.411.625,1.133-.2,1.608l-8.815,5.09A3.1,3.1,0,0,1,464.372,265.249Z" transform="translate(-278.335 -147.921)"/>
				<path class="c" d="M472.487,269.934l-8.9-5.137c-.715-.413-.625-1.133.2-1.609l8.816-5.091a3.1,3.1,0,0,1,2.787-.115l8.9,5.137c.715.413.625,1.133-.2,1.61l-8.816,5.09A3.1,3.1,0,0,1,472.487,269.934Z" transform="translate(-272.709 -144.673)"/>
				<path class="c" d="M491.22,280.748l-19.414-11.207c-.715-.413-.625-1.133.2-1.61l8.817-5.09a3.1,3.1,0,0,1,2.787-.115l19.414,11.209c.715.411.625,1.133-.2,1.609l-8.816,5.09A3.1,3.1,0,0,1,491.22,280.748Z" transform="translate(-267.014 -141.385)"/>
				<path class="c" d="M505.779,270.912l-16.385-9.462c-.715-.411-.625-1.133.2-1.609l8.816-5.09a3.092,3.092,0,0,1,2.787-.115l16.385,9.46c.714.413.625,1.133-.2,1.609l-8.816,5.09A3.1,3.1,0,0,1,505.779,270.912Z" transform="translate(-254.822 -146.992)"/>
				<path class="c" d="M421.776,231.535l-8.9-5.137c-.713-.413-.625-1.134.2-1.61l8.815-5.09a3.1,3.1,0,0,1,2.789-.115l8.9,5.137c.713.411.625,1.133-.2,1.608l-8.815,5.09A3.1,3.1,0,0,1,421.776,231.535Z" transform="translate(-307.862 -171.291)"/>
				<path class="c" d="M413.459,226.733l-8.9-5.137c-.715-.413-.625-1.133.2-1.61l8.815-5.09a3.1,3.1,0,0,1,2.787-.115l8.9,5.137c.715.411.625,1.133-.2,1.609l-8.816,5.09A3.1,3.1,0,0,1,413.459,226.733Z" transform="translate(-313.627 -174.62)"/>
				<path class="c" d="M405.142,221.931l-8.9-5.137c-.714-.413-.625-1.133.2-1.61l8.816-5.09a3.1,3.1,0,0,1,2.787-.115l8.9,5.137c.714.413.625,1.133-.2,1.609l-8.816,5.091A3.1,3.1,0,0,1,405.142,221.931Z" transform="translate(-319.392 -177.949)"/>
				<path class="c" d="M396.825,217.129l-8.9-5.137c-.715-.413-.625-1.133.2-1.609l8.816-5.091a3.1,3.1,0,0,1,2.787-.115l8.9,5.137c.715.413.625,1.133-.2,1.609l-8.816,5.091A3.1,3.1,0,0,1,396.825,217.129Z" transform="translate(-325.158 -181.277)"/>
				<path class="c" d="M429.892,236.22l-8.9-5.137c-.715-.413-.625-1.133.2-1.608l8.816-5.091a3.1,3.1,0,0,1,2.787-.115l8.9,5.137c.714.413.625,1.133-.2,1.608l-8.816,5.091A3.1,3.1,0,0,1,429.892,236.22Z" transform="translate(-302.236 -168.043)"/>
				<path class="c" d="M438.007,240.9l-8.9-5.137c-.715-.411-.625-1.133.2-1.608l8.816-5.09a3.1,3.1,0,0,1,2.787-.117l8.9,5.137c.715.413.625,1.134-.2,1.61l-8.817,5.09A3.1,3.1,0,0,1,438.007,240.9Z" transform="translate(-296.611 -164.796)"/>
				<path class="c" d="M446.122,245.591l-8.9-5.137c-.715-.413-.625-1.134.2-1.61l8.816-5.09a3.1,3.1,0,0,1,2.787-.115l8.9,5.137c.715.411.625,1.133-.2,1.609l-8.817,5.09A3.1,3.1,0,0,1,446.122,245.591Z" transform="translate(-290.985 -161.548)"/>
				<path class="c" d="M454.237,250.276l-8.9-5.137c-.715-.413-.625-1.133.2-1.609l8.815-5.091a3.105,3.105,0,0,1,2.789-.115l8.9,5.137c.715.413.625,1.133-.2,1.609l-8.816,5.091A3.1,3.1,0,0,1,454.237,250.276Z" transform="translate(-285.36 -158.3)"/>
				<path class="c" d="M462.353,254.961l-8.9-5.137c-.715-.411-.625-1.133.2-1.609l8.816-5.09a3.1,3.1,0,0,1,2.787-.117l8.9,5.137c.715.413.625,1.134-.2,1.61l-8.816,5.09A3.1,3.1,0,0,1,462.353,254.961Z" transform="translate(-279.734 -155.052)"/>
				<path class="c" d="M470.468,259.647l-8.9-5.137c-.715-.413-.625-1.134.2-1.61l8.816-5.09a3.1,3.1,0,0,1,2.787-.115l8.9,5.137c.715.411.625,1.133-.2,1.608l-8.816,5.09A3.1,3.1,0,0,1,470.468,259.647Z" transform="translate(-274.109 -151.804)"/>
				<path class="c" d="M478.583,264.332l-8.9-5.137c-.715-.413-.625-1.133.2-1.609l8.816-5.091a3.1,3.1,0,0,1,2.787-.115l8.9,5.137c.715.413.625,1.133-.2,1.61l-8.817,5.09A3.1,3.1,0,0,1,478.583,264.332Z" transform="translate(-268.484 -148.556)"/>
				<path class="c" d="M486.7,269.017l-8.9-5.137c-.714-.411-.625-1.133.2-1.609l8.815-5.09a3.092,3.092,0,0,1,2.787-.115l8.9,5.135c.715.413.625,1.134-.2,1.61l-8.816,5.09A3.1,3.1,0,0,1,486.7,269.017Z" transform="translate(-262.858 -145.309)"/>
				<path class="c" d="M494.814,273.7l-8.9-5.137c-.715-.413-.625-1.133.2-1.61l8.816-5.09a3.1,3.1,0,0,1,2.787-.115l8.9,5.137c.715.411.625,1.133-.2,1.609l-8.816,5.09A3.1,3.1,0,0,1,494.814,273.7Z" transform="translate(-257.232 -142.061)"/>
				<path class="c" d="M417.5,219.946l-8.9-5.137c-.715-.413-.625-1.133.2-1.61l8.816-5.09a3.1,3.1,0,0,1,2.787-.115l8.9,5.137c.714.411.625,1.133-.2,1.609l-8.816,5.09A3.1,3.1,0,0,1,417.5,219.946Z" transform="translate(-310.824 -179.325)"/>
				<path class="c" d="M409.428,215.284l-8.9-5.137c-.714-.413-.625-1.133.2-1.61l8.815-5.09a3.1,3.1,0,0,1,2.787-.115l8.9,5.137c.715.411.625,1.133-.2,1.609l-8.816,5.09A3.1,3.1,0,0,1,409.428,215.284Z" transform="translate(-316.421 -182.556)"/>
				<path class="c" d="M401.353,210.622l-8.9-5.137c-.715-.413-.625-1.133.2-1.61l8.816-5.09a3.1,3.1,0,0,1,2.787-.115l8.9,5.137c.715.411.625,1.133-.2,1.609l-8.815,5.09A3.1,3.1,0,0,1,401.353,210.622Z" transform="translate(-322.018 -185.788)"/>
				<path class="c" d="M393.279,205.96l-8.9-5.137c-.715-.413-.625-1.134.2-1.61l8.816-5.09a3.1,3.1,0,0,1,2.787-.115l8.9,5.137c.715.411.625,1.133-.2,1.609l-8.816,5.09A3.1,3.1,0,0,1,393.279,205.96Z" transform="translate(-327.616 -189.02)"/>
				<path class="c" d="M401.582,199.771l-8.9-5.137c-.715-.413-.625-1.133.2-1.61l2.916-1.683a3.1,3.1,0,0,1,2.787-.115l8.9,5.137c.715.413.625,1.133-.2,1.61l-2.914,1.681A3.1,3.1,0,0,1,401.582,199.771Z" transform="translate(-321.86 -190.948)"/>
				<path class="c" d="M412.12,205.855l-8.9-5.137c-.715-.413-.625-1.134.2-1.61l2.914-1.683a3.1,3.1,0,0,1,2.787-.115l8.9,5.137c.715.413.625,1.133-.2,1.61l-2.914,1.681A3.1,3.1,0,0,1,412.12,205.855Z" transform="translate(-314.555 -186.73)"/>
				<path class="c" d="M420.161,210.5l-8.9-5.137c-.715-.411-.625-1.133.2-1.609l2.914-1.683a3.1,3.1,0,0,1,2.789-.115l8.9,5.137c.713.411.625,1.133-.2,1.609l-2.914,1.683A3.1,3.1,0,0,1,420.161,210.5Z" transform="translate(-308.981 -183.512)"/>
				<path class="c" d="M428.2,215.14,419.3,210c-.715-.413-.625-1.133.2-1.61l2.916-1.681a3.1,3.1,0,0,1,2.787-.117l8.9,5.137c.715.413.625,1.133-.2,1.61l-2.916,1.681A3.1,3.1,0,0,1,428.2,215.14Z" transform="translate(-303.407 -180.294)"/>
				<path class="c" d="M436.243,219.782l-8.9-5.137c-.713-.411-.625-1.133.2-1.609l2.914-1.683a3.1,3.1,0,0,1,2.787-.115l8.9,5.137c.715.413.625,1.133-.2,1.609l-2.914,1.683A3.1,3.1,0,0,1,436.243,219.782Z" transform="translate(-297.833 -177.076)"/>
				<path class="c" d="M481.136,245.7l-8.9-5.137c-.715-.411-.625-1.133.2-1.609l2.914-1.683a3.1,3.1,0,0,1,2.787-.115l8.9,5.137c.715.411.625,1.133-.2,1.609l-2.916,1.683A3.1,3.1,0,0,1,481.136,245.7Z" transform="translate(-266.714 -159.109)"/>
				<path class="c" d="M489.178,250.344l-8.9-5.137c-.715-.413-.625-1.133.2-1.609l2.914-1.683a3.091,3.091,0,0,1,2.787-.115l8.9,5.135c.715.413.625,1.134-.2,1.61l-2.914,1.683A3.1,3.1,0,0,1,489.178,250.344Z" transform="translate(-261.139 -155.891)"/>
				<path class="c" d="M497.219,254.986l-8.9-5.135c-.715-.413-.625-1.134.2-1.61l2.914-1.683a3.1,3.1,0,0,1,2.787-.115l8.9,5.137c.714.413.625,1.133-.2,1.609l-2.914,1.683A3.092,3.092,0,0,1,497.219,254.986Z" transform="translate(-255.565 -152.673)"/>
				<path class="c" d="M505.26,259.629l-8.9-5.137c-.715-.411-.625-1.133.2-1.608l2.914-1.683a3.1,3.1,0,0,1,2.789-.115l8.9,5.137c.713.411.625,1.133-.2,1.608l-2.914,1.683A3.1,3.1,0,0,1,505.26,259.629Z" transform="translate(-249.991 -149.454)"/>
				<path class="c" d="M425.618,224.631l-8.9-5.137c-.714-.413-.626-1.133.2-1.609l8.815-5.091a3.106,3.106,0,0,1,2.789-.115l8.9,5.137c.713.413.625,1.133-.2,1.61l-8.815,5.09A3.1,3.1,0,0,1,425.618,224.631Z" transform="translate(-305.198 -176.077)"/>
				<path class="c" d="M433.734,229.316l-8.9-5.137c-.715-.411-.625-1.133.2-1.609l8.816-5.09a3.1,3.1,0,0,1,2.787-.115l8.9,5.137c.714.411.625,1.133-.2,1.608l-8.816,5.09A3.1,3.1,0,0,1,433.734,229.316Z" transform="translate(-299.573 -172.829)"/>
				<path class="c" d="M441.849,234l-8.9-5.137c-.715-.413-.625-1.133.2-1.61l8.816-5.09a3.1,3.1,0,0,1,2.787-.115l8.9,5.137c.715.411.625,1.133-.2,1.609l-8.816,5.09A3.1,3.1,0,0,1,441.849,234Z" transform="translate(-293.947 -169.581)"/>
				<path class="c" d="M449.964,238.687l-8.9-5.137c-.715-.413-.625-1.133.2-1.609l8.816-5.091a3.1,3.1,0,0,1,2.787-.115l8.9,5.137c.715.413.625,1.133-.2,1.61l-8.816,5.09A3.1,3.1,0,0,1,449.964,238.687Z" transform="translate(-288.322 -166.333)"/>
				<path class="c" d="M458.079,243.372l-8.9-5.137c-.713-.411-.625-1.133.2-1.609l8.815-5.09a3.1,3.1,0,0,1,2.789-.115l8.9,5.137c.713.411.625,1.133-.2,1.609l-8.815,5.09A3.1,3.1,0,0,1,458.079,243.372Z" transform="translate(-282.697 -163.085)"/>
				<path class="c" d="M466.2,248.058l-8.9-5.137c-.715-.413-.625-1.133.2-1.61l8.816-5.09a3.1,3.1,0,0,1,2.787-.115l8.9,5.137c.715.411.625,1.133-.2,1.609l-8.816,5.09A3.1,3.1,0,0,1,466.2,248.058Z" transform="translate(-277.071 -159.838)"/>
				<path class="c" d="M474.31,252.743l-8.9-5.137c-.715-.413-.625-1.133.2-1.609l8.816-5.09a3.1,3.1,0,0,1,2.787-.117l8.9,5.137c.715.413.625,1.133-.2,1.61l-8.816,5.09A3.1,3.1,0,0,1,474.31,252.743Z" transform="translate(-271.446 -156.59)"/>
				<path class="c" d="M482.425,257.428l-8.9-5.137c-.714-.411-.625-1.133.2-1.609l8.816-5.09a3.1,3.1,0,0,1,2.787-.115l8.9,5.137c.715.411.625,1.133-.2,1.609l-8.816,5.09A3.1,3.1,0,0,1,482.425,257.428Z" transform="translate(-265.82 -153.342)"/>
				<path class="c" d="M490.54,262.114l-8.9-5.137c-.713-.413-.625-1.133.2-1.61l8.815-5.09a3.1,3.1,0,0,1,2.789-.115l8.9,5.137c.713.413.625,1.133-.2,1.609L493.329,262A3.1,3.1,0,0,1,490.54,262.114Z" transform="translate(-260.195 -150.094)"/>
				<path class="c" d="M386.307,229.3l-26.2-15.129c-.715-.411-.625-1.133.2-1.609l8.816-5.09a3.1,3.1,0,0,1,2.787-.117l26.2,15.13c.715.411.625,1.133-.2,1.609l-8.816,5.09A3.1,3.1,0,0,1,386.307,229.3Z" transform="translate(-344.445 -179.767)"/>
				<path class="c" d="M486.005,286.861l-26.2-15.129c-.714-.413-.625-1.133.2-1.61l8.816-5.09a3.1,3.1,0,0,1,2.787-.115l26.2,15.129c.714.413.625,1.133-.2,1.61l-8.817,5.09A3.1,3.1,0,0,1,486.005,286.861Z" transform="translate(-275.335 -139.866)"/>
				<path class="c" d="M446.466,274.781l-8.9-5.137c-.714-.413-.625-1.133.2-1.609l10.5-6.063a3.1,3.1,0,0,1,2.787-.117l8.9,5.137c.715.413.625,1.133-.2,1.61l-10.5,6.063A3.1,3.1,0,0,1,446.466,274.781Z" transform="translate(-290.747 -141.988)"/>
				<path class="c" d="M389.716,242.016l-14.23-8.215c-.715-.413-.625-1.133.2-1.61l10.5-6.063a3.1,3.1,0,0,1,2.787-.115l14.23,8.215c.715.413.625,1.133-.2,1.61L392.5,241.9A3.1,3.1,0,0,1,389.716,242.016Z" transform="translate(-333.782 -166.834)"/>
				<path class="c" d="M440.83,271.527,426.6,263.31c-.715-.411-.625-1.133.2-1.609l10.5-6.063a3.1,3.1,0,0,1,2.787-.115l14.23,8.215c.715.411.625,1.133-.2,1.609l-10.5,6.063A3.1,3.1,0,0,1,440.83,271.527Z" transform="translate(-298.35 -146.378)"/>
				<path class="c" d="M401.426,248.776l-14.231-8.215c-.715-.413-.625-1.133.2-1.61l10.5-6.063a3.1,3.1,0,0,1,2.787-.115l14.23,8.215c.715.413.625,1.133-.2,1.61l-10.5,6.063A3.1,3.1,0,0,1,401.426,248.776Z" transform="translate(-325.666 -162.149)"/>
				<path class="c" d="M400.544,232.691l61.868,35.72a.848.848,0,0,1,0,1.605L451.7,276.2a3.07,3.07,0,0,1-2.78,0L387.054,240.48Z" transform="translate(-325.429 -162.012)"/>
				<path class="c" d="M468.23,277.964l9.91,5.723c.586.337.513.928-.164,1.319l-4.3,2.479a2.534,2.534,0,0,1-2.284.095l-9.912-5.721c-.584-.339-.511-.93.164-1.319l4.3-2.481A2.534,2.534,0,0,1,468.23,277.964Z" transform="translate(-274.108 -130.788)"/>
				<path class="c" d="M460.047,273.24l9.912,5.721c.586.339.511.93-.164,1.319l-4.3,2.481a2.538,2.538,0,0,1-2.286.095l-9.91-5.721c-.586-.339-.513-.93.164-1.319l4.3-2.48A2.534,2.534,0,0,1,460.047,273.24Z" transform="translate(-279.78 -134.062)"/>
				<path class="c" d="M451.932,268.555l9.912,5.721c.584.339.511.928-.164,1.319l-4.3,2.481a2.534,2.534,0,0,1-2.284.095l-9.91-5.723c-.586-.337-.513-.928.163-1.319l4.3-2.48A2.539,2.539,0,0,1,451.932,268.555Z" transform="translate(-285.405 -137.31)"/>
				<path class="c" d="M464.529,270.653l9.91,5.721c.586.339.513.928-.164,1.319l-4.3,2.48a2.534,2.534,0,0,1-2.284.095l-9.912-5.723c-.586-.337-.511-.928.164-1.319l4.3-2.481A2.543,2.543,0,0,1,464.529,270.653Z" transform="translate(-276.673 -135.856)"/>
			</g>
		</g>
		<g class="mobile-move" transform="translate(-372.726 52.65)">
			<g class="d" transform="translate(372.726 86.78)">
				<path class="b" d="M437.526,202.5a16.4,16.4,0,0,0,8.187-1.973L559.78,134.871a8.66,8.66,0,0,0,4.7-7.483c0-3.324-2.061-6.42-5.656-8.494l-49.2-28.407a20.161,20.161,0,0,0-9.942-2.527,16.4,16.4,0,0,0-8.187,1.973L377.423,155.59a8.662,8.662,0,0,0-4.7,7.483c0,3.322,2.06,6.418,5.657,8.494l49.2,28.407A20.143,20.143,0,0,0,437.526,202.5Z" transform="translate(-372.726 -87.96)"/>
				<path class="e" d="M491.951,90.444,377.883,156.1a8.222,8.222,0,0,0-4.478,7.139c.014,3.149,1.987,6.1,5.438,8.088l46.988,27.129c.075.043,2.373,1.357,2.461,1.384a19.611,19.611,0,0,0,10.005,2.242,17.575,17.575,0,0,0,8.072-2.156l113.438-65.3a8.22,8.22,0,0,0,4.478-7.138c-.014-3.15-1.988-6.1-5.437-8.087L509.94,91.167a20.462,20.462,0,0,0-3.623-1.611,21.147,21.147,0,0,0-6.221-1.017A16.05,16.05,0,0,0,491.951,90.444Z" transform="translate(-373.095 -88.274)"/>
				<path class="f" d="M492.411,90.951,378.344,156.608a7.779,7.779,0,0,0-4.259,6.794c.028,2.975,1.913,5.772,5.219,7.68l47.209,27.257c.151.087,2.31,1.308,2.486,1.362a19.6,19.6,0,0,0,18.025-.382l112.809-64.933a7.778,7.778,0,0,0,4.259-6.794c-.028-2.976-1.914-5.773-5.218-7.68L510.26,91.845a23.356,23.356,0,0,0-3.584-1.637,21.027,21.027,0,0,0-6.162-1.093A15.709,15.709,0,0,0,492.411,90.951Z" transform="translate(-373.464 -88.585)"/>
				<path class="g" d="M492.87,91.457,378.8,157.114a7.339,7.339,0,0,0-4.04,6.45c.042,2.8,1.84,5.448,5,7.273l47.431,27.384c.227.131,2.248,1.259,2.512,1.341a18.479,18.479,0,0,0,10.132,1.671c2.269,0,6.215-1.583,7.842-2.521l112.18-64.571a7.338,7.338,0,0,0,4.041-6.45c-.042-2.8-1.841-5.449-5-7.273l-48.32-27.9a27.3,27.3,0,0,0-3.545-1.663,20.939,20.939,0,0,0-6.1-1.169A15.379,15.379,0,0,0,492.87,91.457Z" transform="translate(-373.832 -88.894)"/>
				<path class="h" d="M493.329,91.961,379.262,157.617a6.9,6.9,0,0,0-3.822,6.106c.056,2.627,1.767,5.125,4.781,6.865L427.874,198.1c.3.175,2.186,1.211,2.537,1.319a17.888,17.888,0,0,0,10.2,1.385c1.986,0,6.3-1.882,7.726-2.7l111.55-64.209a6.9,6.9,0,0,0,3.823-6.106c-.057-2.627-1.768-5.126-4.781-6.865L510.9,93.193a32.277,32.277,0,0,0-3.507-1.688,20.826,20.826,0,0,0-6.044-1.245A15.053,15.053,0,0,0,493.329,91.961Z" transform="translate(-374.199 -89.201)"/>
				<path class="i" d="M493.789,92.461,379.721,158.118a6.46,6.46,0,0,0-3.6,5.762c.07,2.453,1.693,4.8,4.562,6.458l47.874,27.64a27.291,27.291,0,0,0,2.563,1.3,17.317,17.317,0,0,0,10.26,1.1c1.7,0,6.391-2.182,7.611-2.887l110.921-63.847a6.459,6.459,0,0,0,3.6-5.761c-.071-2.454-1.694-4.8-4.562-6.458L511.219,93.864c-.613-.353-2.768-1.458-3.468-1.714a20.733,20.733,0,0,0-5.985-1.32A14.74,14.74,0,0,0,493.789,92.461Z" transform="translate(-374.567 -89.505)"/>
				<path class="j" d="M494.248,92.961,380.181,158.618a6.019,6.019,0,0,0-3.385,5.418c.084,2.279,1.619,4.478,4.344,6.051l48.1,27.768a22.762,22.762,0,0,0,2.588,1.276,16.762,16.762,0,0,0,10.323.814c1.418,0,6.479-2.482,7.5-3.069L559.934,133.39a6.018,6.018,0,0,0,3.385-5.418c-.084-2.279-1.62-4.479-4.343-6.051L511.538,94.533c-.51-.294-2.847-1.52-3.429-1.739a20.581,20.581,0,0,0-5.925-1.4A14.426,14.426,0,0,0,494.248,92.961Z" transform="translate(-374.934 -89.808)"/>
				<path class="k" d="M494.705,93.458,380.638,159.114a5.583,5.583,0,0,0-3.166,5.073c.1,2.105,1.546,4.155,4.125,5.644l48.317,27.9a19.834,19.834,0,0,0,2.613,1.253,16.218,16.218,0,0,0,10.387.529c1.134,0,6.567-2.782,7.38-3.252l109.663-63.122a5.582,5.582,0,0,0,3.167-5.074c-.1-2.106-1.547-4.155-4.125-5.644L511.856,95.2c-.408-.236-2.926-1.585-3.39-1.765a20.483,20.483,0,0,0-5.866-1.472A14.13,14.13,0,0,0,494.705,93.458Z" transform="translate(-375.301 -90.108)"/>
				<path class="l" d="M495.162,93.952,381.1,159.609a5.146,5.146,0,0,0-2.947,4.729c.113,1.931,1.473,3.832,3.906,5.237L430.592,197.6a17.51,17.51,0,0,0,2.639,1.232,15.706,15.706,0,0,0,10.451.244c.85,0,6.655-3.083,7.265-3.435l109.034-62.76a5.143,5.143,0,0,0,2.948-4.729c-.113-1.932-1.473-3.832-3.906-5.237l-46.85-27.049c-.306-.177-3-1.653-3.351-1.791a20.37,20.37,0,0,0-5.807-1.547A13.834,13.834,0,0,0,495.162,93.952Z" transform="translate(-375.667 -90.407)"/>
				<path class="m" d="M495.619,94.445,381.552,160.1c-1.928,1.113-2.853,2.7-2.728,4.385.127,1.758,1.4,3.508,3.687,4.829l48.76,28.152a15.761,15.761,0,0,0,2.664,1.21,15.214,15.214,0,0,0,10.514-.042c.568,0,6.743-3.383,7.151-3.618L560,132.62c1.928-1.113,2.854-2.705,2.73-4.385-.127-1.758-1.4-3.508-3.687-4.829L512.491,96.527c-.2-.118-3.083-1.722-3.312-1.817a20.245,20.245,0,0,0-5.748-1.624A13.558,13.558,0,0,0,495.619,94.445Z" transform="translate(-376.032 -90.703)"/>
				<path class="n" d="M496.076,94.936,382.009,160.593c-1.811,1.045-2.648,2.511-2.51,4.041.14,1.584,1.325,3.185,3.468,4.422l48.981,28.279a14.39,14.39,0,0,0,2.691,1.188c3.562,1.168,7.792,1.092,10.577-.328.284,0,6.832-3.682,7.035-3.8l107.776-62.036c1.812-1.046,2.65-2.511,2.511-4.041-.141-1.583-1.326-3.185-3.468-4.422l-46.262-26.71c-.1-.059-3.159-1.793-3.273-1.842a20.166,20.166,0,0,0-5.689-1.7A13.273,13.273,0,0,0,496.076,94.936Z" transform="translate(-376.397 -90.997)"/>
				<path class="c" d="M445.98,197.754,560.047,132.1c3.425-1.977,2.995-5.43-.957-7.712l-49.2-28.408c-3.953-2.282-9.933-2.53-13.357-.553L382.463,161.082c-3.423,1.976-2.994,5.429.958,7.711l49.2,28.408C436.577,199.482,442.556,199.73,445.98,197.754Z" transform="translate(-376.759 -91.29)"/>
			</g>
			<path class="c" d="M430.016,199.7l-46-26.558c-5.189-3-4.538-8.228,1.453-11.688L493.636,99c5.991-3.459,15.055-3.835,20.244-.839l46,26.558c5.189,3,4.538,8.229-1.453,11.688L450.26,198.858C444.269,202.317,435.206,202.693,430.016,199.7Z" transform="translate(-4.23 -5.623)"/>
			<path class="c" d="M430.017,197.972l-46-26.559c-2.318-1.338-3.47-3.123-3.5-5,0-.165,0-3.772.018-3.938.19-2.17,1.859-.975,4.937-2.752l108.166-62.45c5.991-3.459,15.055-3.835,20.244-.838l46,26.558c2.317,1.337,3.469-1.017,3.5.856,0,.163,0,4.464-.019,4.629-.185,2.173-1.854,4.423-4.938,6.2L450.261,197.133C444.269,200.592,435.206,200.968,430.017,197.972Z" transform="translate(-4.23 -4.686)"/>
			<path class="c" d="M430.016,189.345l-46-26.558c-5.189-3-4.538-8.229,1.453-11.688L493.636,88.65c5.991-3.46,15.055-3.835,20.244-.839l46,26.558c5.189,3,4.538,8.228-1.453,11.688L450.26,188.506C444.269,191.965,435.206,192.34,430.016,189.345Z" transform="translate(-4.23)"/>
			<path class="o" d="M563.383,171.35a1.594,1.594,0,0,0-.085-.558c.463,2.533-1.193,5.324-4.871,7.448L450.261,240.69c-5.991,3.459-15.054,3.835-20.244.839l-46-26.558c-2.238-1.292-3.385-3-3.489-4.8-.012.772-.016,3.6-.013,3.749.032,1.874,1.184,3.659,3.5,5l46,26.558c5.19,3,14.253,2.619,20.244-.84l108.165-62.449c3.083-1.78,4.753-4.031,4.938-6.2C563.379,175.814,563.384,171.513,563.383,171.35Z" transform="translate(-4.23 -46.168)"/>
			<path class="c" d="M384.019,201.974l46,26.558c5.19,3,14.253,2.62,20.244-.839l108.165-62.45c3.152-1.821,4.825-4.133,4.948-6.351.129,2.372-1.547,4.906-4.948,6.869L450.262,228.21c-5.991,3.459-15.054,3.835-20.244.839l-46-26.558c-2.458-1.419-3.6-3.34-3.494-5.336C380.625,198.964,381.774,200.678,384.019,201.974Z" transform="translate(-4.232 -39.705)"/>
			<path class="c" d="M388.857,153.13l108.3-62.525c5.253-3.033,13.2-3.362,17.747-.736l45.756,26.418c4.549,2.626,3.977,7.213-1.275,10.246l-108.3,62.524c-5.254,3.033-13.2,3.362-17.747.736l-45.755-26.417C383.034,160.75,383.6,156.163,388.857,153.13Z" transform="translate(-6.401 -1.254)"/>
			<path class="c" d="M394.295,155.959,502.052,93.744c4.4-2.538,11.047-2.813,14.854-.615l44.781,25.854c3.806,2.2,3.329,6.038-1.067,8.576L452.862,189.772c-4.4,2.538-11.047,2.814-14.853.615l-44.781-25.853C389.421,162.337,389.9,158.5,394.295,155.959Z" transform="translate(-9.739 -3.181)"/>
			<path class="c" d="M556.481,117.028a8.869,8.869,0,0,1-8.026-.014L523.4,102.546c-2.224-1.284-2.234-3.359-.026-4.635l-5.315-3.069a14.316,14.316,0,0,0-12.955-.023l-108.945,62.9c-3.567,2.059-3.548,5.408.04,7.479l43.742,25.255a14.317,14.317,0,0,0,12.954.023l108.948-62.9c3.565-2.059,3.547-5.408-.04-7.479Z" transform="translate(-11.279 -4.07)"/>
			<path class="c" d="M447.507,192.181a12.209,12.209,0,0,0,6-1.419l108.945-62.9c1.431-.826,2.219-1.875,2.219-2.95s-.8-2.152-2.259-2.994l-4.894-2.825a9.348,9.348,0,0,1-3.969.828,9.106,9.106,0,0,1-4.481-1.086l-25.057-14.468a3.673,3.673,0,0,1-2.118-3.1,3.136,3.136,0,0,1,.95-2.2l-4.174-2.409a12.35,12.35,0,0,0-6.07-1.442,12.209,12.209,0,0,0-6,1.419l-108.946,62.9c-1.431.826-2.22,1.873-2.22,2.95s.8,2.151,2.259,2.993l43.743,25.255A12.337,12.337,0,0,0,447.507,192.181Z" transform="translate(-12.333 -5.124)"/>
			<path class="c" d="M723.863,200.1l5.015-2.894a2.716,2.716,0,0,0,1.133-2.165h0c0-.835-.508-1.218-1.133-.857l-5.015,2.895a2.715,2.715,0,0,0-1.134,2.165h0C722.729,200.082,723.237,200.466,723.863,200.1Z" transform="translate(-190.096 -58.801)"/>
			<path class="c" d="M723.863,200.1l5.015-2.894a2.716,2.716,0,0,0,1.133-2.165h0c0-.835-.508-1.218-1.133-.857l-5.015,2.895a2.715,2.715,0,0,0-1.134,2.165h0C722.729,200.082,723.237,200.466,723.863,200.1Z" transform="translate(-190.096 -58.801)"/>
			<path class="p" d="M723.765,200.3a.63.63,0,0,0,.3-.1l5.014-2.894a2.429,2.429,0,0,0,.986-1.909c0-.322-.1-.7-.388-.7a.621.621,0,0,0-.3.1l-5.015,2.9a2.427,2.427,0,0,0-.985,1.909C723.378,199.922,723.478,200.3,723.765,200.3Z" transform="translate(-190.448 -59.153)"/>
			<path class="c" d="M704.272,211.417l5.013-2.895a2.712,2.712,0,0,0,1.134-2.165h0c0-.835-.507-1.218-1.134-.857l-5.013,2.9a2.712,2.712,0,0,0-1.133,2.165h0C703.139,211.394,703.646,211.778,704.272,211.417Z" transform="translate(-179.456 -64.945)"/>
			<path class="c" d="M704.272,211.417l5.013-2.895a2.712,2.712,0,0,0,1.134-2.165h0c0-.835-.507-1.218-1.134-.857l-5.013,2.9a2.712,2.712,0,0,0-1.133,2.165h0C703.139,211.394,703.646,211.778,704.272,211.417Z" transform="translate(-179.456 -64.945)"/>
			<path class="p" d="M704.172,211.609a.63.63,0,0,0,.3-.1l5.015-2.894a2.432,2.432,0,0,0,.985-1.909c0-.322-.1-.7-.387-.7a.635.635,0,0,0-.3.1l-5.016,2.9a2.43,2.43,0,0,0-.984,1.909C703.785,211.233,703.887,211.609,704.172,211.609Z" transform="translate(-179.807 -65.296)"/>
			<path class="c" d="M429.317,283.871l8.233,4.754h0a4.892,4.892,0,0,0-2.043-3.9l-4.148-2.394c-1.128-.651-2.043.04-2.043,1.544Z" transform="translate(-30.736 -106.612)"/>
		</g>
	</g>
</svg>