<svg xmlns="http://www.w3.org/2000/svg" width="201.63" height="24" viewBox="0 0 201.63 24"><defs><style>.a{fill:#b2b2b2;}</style></defs><g transform="translate(-539.434 -3875.242)"><g transform="translate(539.145 3871.686)"><path class="a" d="M27.175,4.5H5.825A1.326,1.326,0,0,0,4.5,5.825v21.35A1.326,1.326,0,0,0,5.825,28.5H16.5V19H13.631V15.5H16.5V12.913a4.56,4.56,0,0,1,4.919-4.788c1.325,0,2.75.1,3.081.144v3.237H22.294c-1.506,0-1.794.713-1.794,1.763V15.5h3.587L23.619,19H20.5v9.5h6.675A1.326,1.326,0,0,0,28.5,27.175V5.825A1.326,1.326,0,0,0,27.175,4.5Z" transform="translate(-4.211 -0.944)"/><path class="a" d="M21.429,2.25H2.571A2.572,2.572,0,0,0,0,4.821V23.679A2.572,2.572,0,0,0,2.571,26.25H21.429A2.572,2.572,0,0,0,24,23.679V4.821A2.572,2.572,0,0,0,21.429,2.25Zm-2.62,8.507c.011.15.011.305.011.455a9.928,9.928,0,0,1-10,10,9.95,9.95,0,0,1-5.395-1.575,7.4,7.4,0,0,0,.846.043,7.044,7.044,0,0,0,4.361-1.5,3.518,3.518,0,0,1-3.284-2.438,3.787,3.787,0,0,0,1.586-.064,3.514,3.514,0,0,1-2.812-3.45v-.043a3.511,3.511,0,0,0,1.586.445A3.506,3.506,0,0,1,4.146,9.7a3.47,3.47,0,0,1,.477-1.773A9.976,9.976,0,0,0,11.866,11.6a3.521,3.521,0,0,1,5.995-3.209,6.885,6.885,0,0,0,2.229-.846,3.5,3.5,0,0,1-1.543,1.934,6.992,6.992,0,0,0,2.025-.546A7.4,7.4,0,0,1,18.809,10.757Z" transform="translate(44.805 1.306)"/><g transform="translate(134.288 3.556)"><path class="a" d="M22.286,2.25H1.709A1.722,1.722,0,0,0,0,3.98V24.52a1.722,1.722,0,0,0,1.709,1.73H22.286A1.726,1.726,0,0,0,24,24.52V3.98A1.726,1.726,0,0,0,22.286,2.25ZM7.254,22.821H3.7V11.368H7.259V22.821ZM5.475,9.8A2.063,2.063,0,1,1,7.537,7.741,2.063,2.063,0,0,1,5.475,9.8ZM20.587,22.821H17.03V17.25c0-1.329-.027-3.038-1.848-3.038-1.854,0-2.138,1.446-2.138,2.941v5.668H9.488V11.368H12.9v1.564h.048a3.747,3.747,0,0,1,3.37-1.848c3.6,0,4.27,2.373,4.27,5.459Z" transform="translate(0 -2.25)"/></g><path class="a" d="M23.844,8.476a3.644,3.644,0,0,0-3.469-3.807c-2.6-.122-5.246-.169-7.951-.169H11.58c-2.7,0-5.354.047-7.951.169A3.652,3.652,0,0,0,.164,8.485C.047,10.154,0,11.823,0,13.492S.047,16.83.159,18.5a3.657,3.657,0,0,0,3.465,3.821c2.729.127,5.527.183,8.373.178s5.64-.047,8.373-.178A3.657,3.657,0,0,0,23.839,18.5c.113-1.674.164-3.343.159-5.016S23.956,10.149,23.844,8.476ZM9.7,18.091V8.879l6.8,4.6Z" transform="translate(177.919 2.056)"/><g transform="translate(89.321 3.556)"><path class="a" d="M21.5,6.5a5.015,5.015,0,0,1,5,5v10a5.015,5.015,0,0,1-5,5h-10a5.015,5.015,0,0,1-5-5v-10a5.015,5.015,0,0,1,5-5h10m0-2h-10a7.021,7.021,0,0,0-7,7v10a7.021,7.021,0,0,0,7,7h10a7.021,7.021,0,0,0,7-7v-10a7.021,7.021,0,0,0-7-7Z" transform="translate(-4.5 -4.5)"/><path class="a" d="M25.313,12.375A1.688,1.688,0,1,1,27,10.688,1.683,1.683,0,0,1,25.313,12.375Z" transform="translate(-6.929 -5.071)"/><path class="a" d="M18,13.5A4.5,4.5,0,1,1,13.5,18,4.5,4.5,0,0,1,18,13.5m0-2.25A6.75,6.75,0,1,0,24.75,18,6.752,6.752,0,0,0,18,11.25Z" transform="translate(-6 -6)"/></g></g></g></svg>