<svg xmlns="http://www.w3.org/2000/svg" xmlns:xlink="http://www.w3.org/1999/xlink" width="1365" height="850" viewBox="0 0 1365 850"><defs><style>.a{fill:#222;}.b,.g,.v{fill:#c5a47e;}.b{font-size:16px;font-family:Roboto-Light, Roboto;font-weight:300;}.c{fill:#ebebeb;font-size:24px;font-family:Roboto-Medium, Roboto;font-weight:500;}.c,.d,.e{letter-spacing:0.015em;}.d,.e{fill:#8b8b8b;font-size:14px;}.d{font-family:Roboto-Regular, Roboto;}.e{font-family:Montserrat-Regular, Montserrat;}.f,.i,.j,.k,.l,.m,.n,.o,.p,.q,.r,.s,.t,.u,.x{fill:none;}.f,.u,.v{stroke:#c5a47e;}.h{opacity:0;fill:url(#a);}.i,.j,.k,.l,.m,.n,.o,.p,.q,.r,.s,.t{stroke:#8b8b8b;}.i,.k,.l,.n,.o,.s{stroke-miterlimit:10;}.i,.j,.m,.p{stroke-width:0.606px;}.j,.p,.q,.r,.t{stroke-linejoin:round;}.k,.q{stroke-width:1.616px;}.l{stroke-width:0.404px;}.n{stroke-width:0.202px;}.o,.r{stroke-width:0.808px;}.p,.q,.r{opacity:0.45;}.t{stroke-width:0.25px;}.u,.v{stroke-width:2px;}.w{stroke:none;}</style><linearGradient id="a" x1="0.5" x2="0.5" y2="1" gradientUnits="objectBoundingBox"><stop offset="0" stop-color="#eecc46"/><stop offset="1" stop-color="#7f7610" stop-opacity="0"/></linearGradient></defs><g transform="translate(1436 -1893)"><rect class="a" width="1365" height="850" transform="translate(-1436 1893)"/><g transform="translate(0 -13)"><text class="b" transform="translate(-1252.1 1991)"><tspan x="0" y="0">our philosophy</tspan></text><text class="c" transform="translate(-1109 1974)"><tspan x="0" y="25">It’s our business to improve </tspan><tspan x="0" y="59">your business.</tspan></text><text class="b" transform="translate(-598 1991)"><tspan x="-33.871" y="0">our vision</tspan></text><text class="d" transform="translate(-524 2064)"><tspan x="0" y="15">and provider of cost-effective, innovative and </tspan><tspan x="0" y="34">future-proof solutions to grow your business and </tspan><tspan x="0" y="53">get the most of the great opportunities in digital </tspan><tspan x="0" y="72">marketing.</tspan></text><text class="c" transform="translate(-524 1974)"><tspan x="0" y="25">Our vision is to be your </tspan><tspan x="0" y="57">esteemed partner,</tspan></text><text class="e" transform="translate(-1109 2474)"><tspan x="0" y="14">and stay at the highest level to transcend </tspan><tspan x="0" y="38">partisan agendas to promote ourselves as a </tspan><tspan x="0" y="62">pioneering and distinguished in all areas </tspan><tspan x="0" y="86">and activities that seek access to match, </tspan><tspan x="0" y="110">and the publication of the name of our </tspan><tspan x="0" y="134">group on the local level, regional and </tspan><tspan x="0" y="158">achieve our clients is not what meets their </tspan><tspan x="0" y="182">needs but beyond their expectations.</tspan></text><text class="d" transform="translate(-1109 2064)"><tspan x="0" y="15">In the world of digital landscape where </tspan><tspan x="0" y="34">everything seems to be so complicated, we help </tspan><tspan x="0" y="53">to manage your digital facelift from every </tspan><tspan x="0" y="72">aspect. Our philosophy lies in our goal to provide </tspan><tspan x="0" y="91">you with dynamic and vibrant strategies, whether </tspan><tspan x="0" y="110">it&apos;s web development, mobile app or something </tspan><tspan x="0" y="129">as tricky as joining together successful </tspan><tspan x="0" y="148">marketing campaigns. We help organizations to </tspan><tspan x="0" y="167">become effective in their field.</tspan><tspan x="0" y="186">Services</tspan><tspan x="0" y="205"></tspan></text><path class="f" d="M12919.98-3458.624v-40" transform="translate(-4766.624 -10935.48) rotate(90)"/><text class="b" transform="translate(-1250 2371)"><tspan x="0" y="0">our mission</tspan></text><text class="c" transform="translate(-1109 2354)"><tspan x="0" y="25">Our companies is </tspan><tspan x="0" y="57">committed to providing the </tspan><tspan x="0" y="89">best level of service</tspan></text><path class="f" d="M12919.98-3452.452v-46.172" transform="translate(-4759.452 -10553.98) rotate(90)"/><path class="f" d="M12919.98-3458.624v-40" transform="translate(-4147.723 -10935.48) rotate(90)"/><g transform="translate(-679.95 2070)"><path class="g" d="M1523.257,1514.263a35.135,35.135,0,1,1,35.136-35.135A35.175,35.175,0,0,1,1523.257,1514.263Zm0-69.827a34.692,34.692,0,1,0,34.692,34.692A34.731,34.731,0,0,0,1523.257,1444.436Z" transform="translate(-1470.911 -1427.622)"/><path class="g" d="M1809.83,1516.1l11.66,11.661a10.529,10.529,0,0,1,0,14.874l-11.688,11.688,1.274,1.274,11.688-11.688a12.332,12.332,0,0,0,0-17.422l-11.661-11.661Z" transform="translate(-1721.632 -1482.833)"/><path class="g" d="M1556.3,1386.349l11.688-11.687a10.529,10.529,0,0,1,14.873,0l11.715,11.715,1.274-1.274-11.715-11.716a12.333,12.333,0,0,0-17.422,0l-11.688,11.688Z" transform="translate(-1523.06 -1369.784)"/><path class="g" d="M1426.7,1554.257l-11.715-11.715a10.529,10.529,0,0,1,0-14.874l11.688-11.688-1.274-1.274-11.688,11.688a12.333,12.333,0,0,0,0,17.421l11.715,11.715Z" transform="translate(-1410.107 -1482.737)"/><path class="g" d="M1594.648,1769.48l-11.688,11.688a10.529,10.529,0,0,1-14.874,0l-11.661-11.66-1.274,1.274,11.66,11.66a12.333,12.333,0,0,0,17.422,0l11.688-11.688Z" transform="translate(-1523.156 -1681.309)"/><path class="g" d="M1609.183,1575.867A10.816,10.816,0,1,1,1620,1565.052,10.828,10.828,0,0,1,1609.183,1575.867Zm0-21.188a10.372,10.372,0,1,0,10.372,10.372A10.384,10.384,0,0,0,1609.183,1554.679Z" transform="translate(-1556.838 -1513.546)"/><path class="g" d="M1635.638,1586.866a4.642,4.642,0,1,1-4.642-4.642A4.642,4.642,0,0,1,1635.638,1586.866Z" transform="translate(-1578.65 -1535.361)"/><rect class="g" width="53.175" height="0.444" transform="matrix(0.707, -0.707, 0.707, 0.707, 33.413, 70.075)"/><rect class="g" width="0.444" height="53.175" transform="translate(33.41 32.787) rotate(-45)"/><path class="g" d="M1534.448,1522.285a31.968,31.968,0,1,1,31.968-31.968A32,32,0,0,1,1534.448,1522.285Zm0-63.493a31.525,31.525,0,1,0,31.525,31.525A31.561,31.561,0,0,0,1534.448,1458.792Z" transform="translate(-1482.103 -1438.812)"/></g><g transform="translate(-1284.244 2080)"><g transform="translate(-504.51 -639.147)"><g transform="translate(514.254 639.147)"><g transform="translate(17.078 45.474)"><path class="g" d="M573.809,736.655H543.375a1.879,1.879,0,0,1-.97-.272,31.162,31.162,0,0,1-14.985-26.636c0-6.97,2.6-11.886,5.607-17.577a72.525,72.525,0,0,0,6.871-16.577,1.862,1.862,0,0,1,1.8-1.391h33.882a1.862,1.862,0,0,1,1.8,1.4,72.824,72.824,0,0,0,6.828,16.639c2.977,5.682,5.549,10.588,5.549,17.509a31.157,31.157,0,0,1-14.984,26.636A1.881,1.881,0,0,1,573.809,736.655Zm-29.9-3.723h29.37a27.266,27.266,0,0,0,12.762-23.185c0-6-2.261-10.321-5.124-15.781a78.126,78.126,0,0,1-6.761-16.043H543.119a77.619,77.619,0,0,1-6.8,15.984c-2.89,5.472-5.173,9.791-5.173,15.839A27.263,27.263,0,0,0,543.905,732.932Z" transform="translate(-527.419 -674.202)"/></g><g transform="translate(10.516 104.204)"><path class="g" d="M593.6,730.012h-67a4.241,4.241,0,0,1-4.235-4.234v-2.07a4.24,4.24,0,0,1,4.235-4.231h67a4.235,4.235,0,0,1,4.228,4.231v2.07A4.236,4.236,0,0,1,593.6,730.012Zm-67-6.813a.516.516,0,0,0-.511.508v2.07a.518.518,0,0,0,.511.511h67a.516.516,0,0,0,.506-.511v-2.07a.514.514,0,0,0-.506-.508Z" transform="translate(-522.36 -719.476)"/></g><path class="g" d="M608.891,688.343H516.114a1.861,1.861,0,0,1-1.59-2.828l27.68-45.474a1.861,1.861,0,0,1,1.59-.894h37.425a1.861,1.861,0,0,1,1.59.894l27.674,45.474a1.862,1.862,0,0,1-1.592,2.828Zm-89.465-3.722H605.58L580.172,642.87H544.84Z" transform="translate(-514.254 -639.147)"/><g transform="translate(8.927 45.474)"><path class="g" d="M523,700.485a1.862,1.862,0,0,1-1.86-1.863V676.064a1.862,1.862,0,0,1,3.723,0v22.559A1.864,1.864,0,0,1,523,700.485Z" transform="translate(-521.135 -674.202)"/></g></g></g><path class="h" d="M14748.145-4829.042h-92.467l-10.922,31.672h112.49Z" transform="translate(-14644.756 4878)"/></g><g transform="translate(-662.287 2267.673)"><g transform="translate(27.215 -22.673)"><path class="i" d="M192.18,257.544v24.391a2.807,2.807,0,0,0,3.635-.93V256.847" transform="translate(17.634 98.665)"/><path class="i" d="M331.9,238.845v23.111a2.807,2.807,0,0,0,3.635-.93V236.869" transform="translate(55.619 93.234)"/><g transform="translate(204.958 319.426)"><path class="j" d="M188.362,241.509l4.856,20.5v-21.6" transform="translate(-188.362 -225.229)"/><path class="i" d="M329.747,241.5l6.371-.865v-12.16" transform="translate(-149.924 -228.474)"/><path class="i" d="M192.18,240.41v21.6l114.4-15.533" transform="translate(-187.324 -225.229)"/></g><path class="j" d="M329.141,210.066,218.09,196.85H177.322l5.227,44.948L322.07,227.825" transform="translate(13.594 82.354)"/><path class="j" d="M339.724,217.371l23.067-2.31-21.238-2.527" transform="translate(57.746 86.618)"/><path class="i" d="M177.322,196.85v4.355l5.227,53.235V241.8Z" transform="translate(13.594 82.354)"/><path class="i" d="M320.953,221.2,181.432,235.178V247.82l135.6-16.764" transform="translate(14.712 88.975)"/><path class="i" d="M337.208,225.143l26.267-3.247v-7.375l-23.067,2.31" transform="translate(57.062 87.158)"/><path class="k" d="M295.071,313.067l53.677-20.659c4.982-5.528,6.507-13.309,7.18-20.72a125.06,125.06,0,0,0,.173-21.6,291.4,291.4,0,0,0,19.167-47.755,3.417,3.417,0,0,0,2.186-4.212l-29.024-.041-14.512-.022c-4.546-.006-9.246-.6-13.737.347-2.055.431-2.153.922-2.713,2.712-.707,2.258-1.77,4.46-2.647,6.658Q309.462,221.236,304.1,234.7l-4.289,10.77a82.728,82.728,0,0,0-4.647,14.067c-1.9,9.367-.5,19.069-1.229,28.6s-4.366,19.83-12.848,24.232c-7.949,4.126-18.029,1.717-25.235-3.6s-12.157-13.071-16.941-20.641c-1.555.8-4.267.794-5.394-.544a3.1,3.1,0,0,1,.155-3.771,6.354,6.354,0,0,1,3.465-2.017c1.315-.354,2.68-.514,3.969-.95l51.64-10.515" transform="translate(28.717 82.631)"/><path class="i" d="M219.576,200.088l1.051-9.47H231.3s-.6,3.739-.931,10.755" transform="translate(25.082 80.66)"/><path class="i" d="M230.8,201.9s.361-8.383,1.667-11.17l12.892-.523a31.5,31.5,0,0,0-1.557,13.24" transform="translate(28.134 80.548)"/><path class="i" d="M245.185,204.207s.187-11.43,2.626-13.87l16.725-.611s-2.13,10-2.024,16.542" transform="translate(32.044 80.417)"/><path class="i" d="M266.343,207.5s.107-13.066,2.807-17.683l21.778-.435s-2.98,7.208-2.71,20.72" transform="translate(37.796 80.324)"/><path class="i" d="M294.981,212s.356-13.481,3.667-22.452l37.282-.783a118.753,118.753,0,0,0-2.774,11.783" transform="translate(45.582 80.157)"/><path class="i" d="M347.767,221.915a18.93,18.93,0,0,1-1.533,7.6,11.152,11.152,0,0,1-2.169,3.673c-2.31,2.4-5.954,2.773-9.275,3.005" transform="translate(56.405 89.168)"/><line class="i" y2="23.466" transform="translate(417.413 340.757)"/><line class="i" y2="20.211" transform="translate(421.406 340.702)"/><g transform="translate(253.691 299.612)"><line class="i" y1="4.067" x2="50.996" transform="translate(3.305)"/><line class="i" x2="25.555" y2="8.468" transform="translate(50.447 0.307)"/><line class="i" x2="17.92" y2="9.151" transform="translate(0 6.101)"/><line class="i" y1="6.087" x2="59.734" transform="translate(14.235 9.545)"/><line class="i" x2="21.645" y2="9.909" transform="translate(28.803 2.034)"/></g><path class="i" d="M152.118,201.707V158.131h26.667v55.692" transform="translate(6.742 71.828)"/><line class="l" x2="21.848" transform="translate(161.519 241.341)"/><path class="i" d="M173.085,160.067l2.6-9.059V229.29" transform="translate(12.442 69.891)"/><path class="i" d="M175.131,151.008l70.807,3.28V178.1l.826,3.107-.826,1.074v28.577" transform="translate(12.998 69.891)"/><path class="l" d="M178.784,170.824l29.966.581V192.2H178.784Z" transform="translate(13.992 75.278)"/><path class="l" d="M179.879,172.012l26.946.581v17.887H179.879Z" transform="translate(14.289 75.601)"/><line class="i" y2="56.514" transform="translate(226.804 222.691)"/><line class="i" y2="57.063" transform="translate(243.757 223.476)"/><line class="i" y2="51.393" transform="translate(245.157 223.476)"/><path class="i" d="M185.465,198.656s-.348-6.184-1.568-7.926v-.523h15.186a19.753,19.753,0,0,1,1.307,8.333" transform="translate(15.382 80.548)"/><line class="i" x1="6.62" y1="12.079" transform="translate(152.24 217.879)"/><path class="i" d="M148.424,198.891v-25l-5.163-3.07V199.7" transform="translate(4.334 75.278)"/><path class="i" d="M146.547,182.536l1.27-1.954v-34.3l-4.557-11.346v45.649" transform="translate(4.334 65.521)"/><path class="i" d="M143.925,134.933h-3.108v74.415" transform="translate(3.67 65.521)"/><line class="i" x1="6.649" y1="12.657" transform="translate(137.838 187.798)"/><path class="i" d="M139.612,221.648V183.625l-1.539-1.568,1.539-2.752v-56.57L126.139,90.1H120.8V223.367" transform="translate(-1.773 53.332)"/><line class="i" y2="133.082" transform="translate(124.365 143.43)"/><line class="i" x1="16.609" y1="34.786" transform="translate(102.414 108.644)"/><line class="i" x2="51.355" y2="98.066" transform="translate(53.846)"/><line class="i" y2="185.756" transform="translate(102.414 92.221)"/><path class="i" d="M45.549,104.619h9.059l70.036,54.229-3.093-3.577,3.093-6.982L54.608,81.971H45.549" transform="translate(-22.231 51.122)"/><line class="i" y2="257.503" transform="translate(32.378 110.714)"/><line class="i" y2="243.083" transform="translate(23.318 113.126)"/><path class="i" d="M129.629,202.238V255.9l-102.414,97" transform="translate(-27.215 83.819)"/><line class="i" y1="9.266" x2="10.235" transform="translate(102.414 326.995)"/><path class="i" d="M230.8,157.365v-1.459L251.46,142.47l3.4.435v60.165" transform="translate(28.134 67.57)"/><line class="i" y2="60.715" transform="translate(279.594 210.04)"/><line class="i" y1="11.498" x2="21.147" transform="translate(282.991 202.084)"/><path class="i" d="M267.307,214.834V182.642l1.813-1.742-1.813-4.936V138.913l43.045-24.158,4.762.581v94.142" transform="translate(38.058 60.035)"/><line class="i" y2="94.92" transform="translate(348.411 174.789)"/><line class="i" y1="28.223" x2="53.153" transform="translate(353.173 149.76)"/><line class="i" x1="2.199" y1="0.627" transform="translate(385.197 341.085)"/><path class="i" d="M410.135,64.94,349.93,97.693v65.448l2.48,9.756-2.48,3.41V253.5s1.145-22,6.545-31.759l48.26-1.22s-12.022,33.45-12.544,52c0,0,4.965,20.819-7.84,21.951a119.636,119.636,0,0,1-12.631,0c-7.84-.348-18.119-1.306-26.83,4.7l-10.133-2.887" transform="translate(56.396 46.492)"/><path class="m" d="M0,0V170.7" transform="translate(474.893 130.944)"/><line class="i" y2="154.259" transform="translate(479.597 136.171)"/><path class="i" d="M142.039,19.052l20.137,154.764v-6.964L149.458,38.042" transform="translate(4.002 34.016)"/><path class="i" d="M157.871,135.26l83.451,6.964v5.749l-83.451-5.749Z" transform="translate(8.306 65.61)"/><path class="i" d="M437.208.158l-213.724,178.8V184.7L394.393,53.69" transform="translate(26.144 28.88)"/><path class="i" d="M179.358,26.862l-9.524,138.91,59.931,6.5,165-178.533" transform="translate(11.559 27.136)"/><path class="i" d="M229.651,137.174v-7.9l-59.4-6.415" transform="translate(11.673 62.239)"/><line class="i" y1="155.965" x2="131.737" transform="translate(241.324 35.549)"/><line class="i" x2="66.154" y2="7.888" transform="translate(182.635 174.789)"/><line class="i" x2="75.337" y2="9.941" transform="translate(183.599 160.724)"/><line class="i" x2="87.931" y2="11.979" transform="translate(184.864 142.279)"/><line class="i" x2="101.484" y2="15.138" transform="translate(186.297 121.38)"/><line class="i" x2="116.009" y2="21.403" transform="translate(188.129 95.752)"/><line class="i" x2="135.287" y2="23.595" transform="translate(189.914 68.627)"/><path class="l" d="M149.088,183.891l-5.163-.465h-3.108" transform="translate(3.67 78.704)"/><path class="l" d="M149.088,187.913h-8.271" transform="translate(3.67 79.924)"/><path class="i" d="M139.612,182.619l-13.473-2.069H120.8" transform="translate(-1.773 77.922)"/><line class="i" x1="18.816" y1="0.566" transform="translate(119.023 267.27)"/><path class="i" d="M124.644,180.654,54.608,169.272H45.549" transform="translate(-22.231 74.856)"/><path class="i" d="M124.644,187.995l-70.036-2.468H45.549" transform="translate(-22.231 79.276)"/><line class="n" x1="4.557" y1="4.171" transform="translate(147.594 241.932)"/><line class="i" x1="13.473" y1="8.798" transform="translate(124.365 228.158)"/><line class="i" x1="13.473" y1="12.057" transform="translate(124.365 220.58)"/><path class="l" d="M230.8,173.531l20.658-5.72h3.4" transform="translate(28.134 74.459)"/><path class="l" d="M230.8,176.67l20.658-5.023h3.4" transform="translate(28.134 75.502)"/><path class="l" d="M231.452,175.955l19.832-5.633h3.4" transform="translate(28.31 75.142)"/><path class="i" d="M267.307,165.406l43.045-11.819h4.762" transform="translate(38.058 70.592)"/><path class="i" d="M267.307,170.191l43.045-9.64h4.762" transform="translate(38.058 72.485)"/><path class="i" d="M268.733,169.079l41.232-10.846h4.762" transform="translate(38.446 71.855)"/><path class="i" d="M346.687,145.9l68.567-17.538h4.7" transform="translate(59.639 63.734)"/><path class="i" d="M346.687,155.515l68.567-14.1h4.7" transform="translate(59.639 67.284)"/><path class="i" d="M348.637,153.421l66.087-16.841h4.7" transform="translate(60.169 65.968)"/><path class="l" d="M230.8,185.712l20.658-2.149h3.4" transform="translate(28.134 78.742)"/><line class="l" y1="0.929" x2="24.055" transform="translate(258.936 267.88)"/><path class="i" d="M267.307,182.946,310.352,179h4.762" transform="translate(38.058 77.5)"/><line class="i" y1="1.452" x2="47.807" transform="translate(305.366 265.093)"/><path class="i" d="M346.687,176.308l68.567-5.575h4.7" transform="translate(59.639 75.254)"/><path class="i" d="M346.687,184.554l68.567-1.858h5.226" transform="translate(59.639 78.506)"/></g><g transform="translate(126.415 215.3)"><path class="i" d="M178.217,226.121a11.953,11.953,0,0,0-6.39-.607c-1.9.343-3.7,1.147-5.6,1.5s-4.066.179-5.455-1.168c-1.2-1.163-1.557-2.919-1.867-4.561q-2.026-10.716-4.7-21.3V164.432h21.848v46.581" transform="translate(-91.89 -164.432)"/><path class="i" d="M178.881,192.081c-.3-.415-.585-.368-1.159-.323-.63.05-1.259.1-1.89.145l-7.224.552-9.84.752-11.353.869-11.762.9-11.069.847-9.272.708-6.375.487-2.372.181s-3.716,2.788,1.161,5.112q4.231,16.92,8.46,33.842,1.4,5.594,2.8,11.189c1.558,6.232,1.151,13.268.617,19.633-.544,6.47-1.623,13.536,1.885,19a18.634,18.634,0,0,0,4.658,4.734c4.085,3.042,9.114,5.122,14.287,4.642,3.21-.3,6.5-1.414,9.643-2.167l15.725-3.763s16.725-5.575,19.977-.7-1.627,5.807-1.627,5.807l2.745,1.493s1.807.4,3.386-4.908,1.071-86.425,1.071-86.425-.928-1.915-5.575-1.044c-1.039.193-3.038,1.077-3.668-.181a21.494,21.494,0,0,1-1.25-3.8q-.525-1.894-.872-3.831a11.808,11.808,0,0,0-.948-3.49A2.075,2.075,0,0,0,178.881,192.081Z" transform="translate(-105.211 -157.011)"/><path class="i" d="M108.972,197.9q4.23,16.92,8.46,33.842l2.8,11.189c1.558,6.232,1.152,13.268.617,19.634-.543,6.47-1.622,13.535,1.885,19a18.6,18.6,0,0,0,4.659,4.734c4.085,3.042,9.114,5.123,14.287,4.642,3.21-.3,6.5-1.414,9.642-2.167l15.727-3.763a64.169,64.169,0,0,1,9.147-1.548,29.771,29.771,0,0,1,6.961-.025,4.4,4.4,0,0,1,3.016,1.2,6.381,6.381,0,0,1,1.591,3.8,10.991,10.991,0,0,1-1.272,5.577" transform="translate(-104.188 -155.333)"/><path class="i" d="M128.152,194.357q6.353,25.17,11.181,50.694c.739,3.907,1.59,8.089,4.445,10.858,3.3,3.2,8.463,3.626,12.986,2.776s8.8-2.761,13.327-3.579a28.436,28.436,0,0,1,15.21,1.445" transform="translate(-98.974 -156.296)"/><path class="i" d="M140.333,193.442q4.632,18.347,8.15,36.952c.539,2.848,1.159,5.9,3.241,7.914,2.408,2.335,6.169,2.644,9.465,2.025s6.413-2.013,9.713-2.61a20.732,20.732,0,0,1,11.087,1.053" transform="translate(-95.662 -156.545)"/><path class="i" d="M148.552,192.622q3.47,13.742,6.1,27.678c.4,2.134.867,4.417,2.427,5.928,1.8,1.75,4.621,1.98,7.091,1.516s4.8-1.507,7.276-1.955a15.541,15.541,0,0,1,8.3.79" transform="translate(-93.428 -156.768)"/><path class="i" d="M158.772,192q2.024,8.017,3.562,16.148a6.26,6.26,0,0,0,1.416,3.459,4.688,4.688,0,0,0,4.136.884c1.441-.27,2.8-.879,4.245-1.14a9.056,9.056,0,0,1,4.845.46" transform="translate(-90.649 -156.937)"/><path class="i" d="M161.812,191.784q1.568,6.214,2.76,12.515a4.853,4.853,0,0,0,1.1,2.681,3.635,3.635,0,0,0,3.205.686c1.118-.21,2.172-.682,3.29-.884a7.031,7.031,0,0,1,3.756.356" transform="translate(-89.823 -156.996)"/><line class="i" y2="21.614" transform="translate(44.864 136.17)"/><line class="i" y2="19.648" transform="translate(50.478 134.826)"/></g><path class="o" d="M236.194,263.68c2.984.094,5.21,2.7,6.893,5.164,3.987,5.837,7.311,12.228,12.363,17.173s12.48,8.273,19.219,6.143" transform="translate(56.814 77.85)"/><line class="o" x1="51.857" y2="0.69" transform="translate(379.342 262.288)"/><path class="o" d="M332.564,238.64a132.388,132.388,0,0,1-14.334,3.493" transform="translate(79.117 71.042)"/><path class="i" d="M398.154,189.271a106.359,106.359,0,0,0-11.008,54.183,29.634,29.634,0,0,1-.02,6.872,8.412,8.412,0,0,1-3.406,5.759c-1.968,1.264-4.459,1.3-6.8,1.224-5.826-.183-11.66-.773-17.472-.331a49.511,49.511,0,0,0-16.385,4.151" transform="translate(85.869 57.621)"/><line class="n" x1="65.66" y2="8.73" transform="translate(134.584 250.63)"/><line class="p" x2="76.276" y2="180.74" transform="translate(120.685 26.545)"/><line class="p" y1="155.626" x2="246.69" transform="translate(280.504 45.618)"/><line class="p" x1="292.158" y2="33.297" transform="translate(155.594 282.821)"/><line class="q" y2="406.811" transform="translate(73.388 12.876)"/><line class="q" y2="406.811" transform="translate(64.731 12.876)"/><line class="r" y2="298.268" transform="translate(493.746 55.705)"/><path class="p" d="M335.007,270.677l-55.522,20.235c4.5-8.332,7.976-17.793,6.4-27.129" transform="translate(68.584 77.878)"/><line class="p" x2="38.711" y2="122.583" transform="translate(220.745 248.082)"/><line class="i" x2="88.865" y2="43.36" transform="translate(448.621 331.05)"/><line class="s" y2="34.648" transform="translate(375.625 363.548)"/><line class="s" y2="41.646" transform="translate(362.88 368.454)"/><line class="t" y1="21.587" transform="translate(260.472 235.132)"/><g transform="translate(255.875 200.104)"><line class="t" y2="49.1"/><line class="t" y2="53.138" transform="translate(2.542 0.118)"/><line class="t" y2="37.616" transform="translate(3.858 0.118)"/><line class="t" y2="53.558" transform="translate(6.926 0.321)"/><line class="t" y2="40.184" transform="translate(9.038 0.419)"/><line class="t" y2="56.218" transform="translate(11.842 0.549)"/><line class="t" y2="44.956" transform="translate(13.216 0.612)"/><line class="t" y2="44.249" transform="translate(18.456 0.855)"/><line class="t" y2="47.509" transform="translate(21.412 0.992)"/><line class="t" y2="35.737" transform="translate(22.362 0.992)"/><line class="t" y2="45.874" transform="translate(26.28 1.217)"/><line class="t" y2="42.019" transform="translate(27.72 1.284)"/><line class="t" y1="45.624" transform="translate(10.737 11.722)"/><line class="t" y1="38.893" transform="translate(24.265 9.607)"/></g><g transform="translate(191.303 242.86)"><line class="t" x2="5.883" transform="translate(0.323 0.547)"/><line class="t" y2="2.304" transform="translate(0.881)"/><line class="t" x2="6.027" transform="translate(0 1.738)"/><line class="t" y2="2.163" transform="translate(5.569 0.141)"/></g></g><g transform="translate(-1246 2480)"><g class="u" transform="translate(7 29)"><ellipse class="w" cx="7.5" cy="10.5" rx="7.5" ry="10.5"/><ellipse class="x" cx="7.5" cy="10.5" rx="6.5" ry="9.5"/></g><g class="v" transform="translate(11 36)"><ellipse class="w" cx="2.5" cy="3.5" rx="2.5" ry="3.5"/><ellipse class="x" cx="2.5" cy="3.5" rx="1.5" ry="2.5"/></g><g class="u" transform="translate(3 23)"><ellipse class="w" cx="12.5" cy="17.5" rx="12.5" ry="17.5"/><ellipse class="x" cx="12.5" cy="17.5" rx="11.5" ry="16.5"/></g><g class="u"><ellipse class="w" cx="28.333" cy="40" rx="28.333" ry="40"/><ellipse class="x" cx="28.333" cy="40" rx="27.333" ry="39"/></g><g class="u" transform="translate(2 17)"><ellipse class="w" cx="16" cy="25" rx="16" ry="25"/><ellipse class="x" cx="16" cy="25" rx="15" ry="24"/></g></g></g></g></svg>