<svg xmlns="http://www.w3.org/2000/svg" xmlns:xlink="http://www.w3.org/1999/xlink" width="967.014" height="460" viewBox="0 0 967.014 460"><defs><style>.a,.ag{fill:#fff;}.a{font-size:36px;font-family:Oswald-Light, Oswald;font-weight:300;letter-spacing:0.23em;}.b{fill:url(#a);}.c{fill:url(#b);}.d{fill:url(#c);}.e{fill:url(#d);}.f{fill:url(#e);}.g{fill:url(#f);}.h{fill:url(#g);}.i{fill:url(#h);}.j{fill:url(#i);}.k{fill:url(#j);}.l{fill:url(#k);}.m{fill:url(#l);}.n{fill:url(#m);}.o{fill:url(#n);}.p{fill:url(#o);}.q{fill:url(#p);}.r{fill:url(#q);}.s{fill:url(#r);}.t{fill:url(#s);}.u{fill:url(#t);}.v{fill:url(#u);}.w{fill:url(#v);}.x{fill:url(#w);}.y{fill:url(#x);}.z{fill:url(#y);}.aa{fill:url(#z);}.ab{fill:#4d2d0b;}.ac{fill:url(#ab);}.ad{fill:url(#ac);}.ae{fill:url(#ad);}.af{fill:url(#ae);}.ag{font-size:20px;}.ag,.ah,.ai{font-family:Roboto-Medium, Roboto;font-weight:500;letter-spacing:0.015em;}.ah{fill:#8b8b8b;}.ah,.ai{font-size:15px;}.ai{fill:#828699;}</style><linearGradient id="a" x1="-0.162" y1="1.756" x2="0.639" y2="0.236" gradientUnits="objectBoundingBox"><stop offset="0" stop-color="#ffd744"/><stop offset="0.068" stop-color="#a6761a"/><stop offset="0.185" stop-color="#ffd744"/><stop offset="0.398" stop-color="#ffd744"/><stop offset="0.561" stop-color="#fcf4ae"/><stop offset="0.679" stop-color="#ffd744"/><stop offset="0.75" stop-color="#a6761a"/><stop offset="0.88" stop-color="#ffd744"/><stop offset="0.967" stop-color="#fcf4ae"/><stop offset="1" stop-color="#ffd744"/></linearGradient><linearGradient id="b" x1="1.464" y1="-1.131" x2="0.144" y2="1.103" gradientUnits="objectBoundingBox"><stop offset="0.104" stop-color="#ba903f"/><stop offset="0.5" stop-color="#996019"/><stop offset="0.641" stop-color="#6f4410"/><stop offset="0.799" stop-color="#462908"/><stop offset="0.924" stop-color="#2e1903"/><stop offset="1" stop-color="#251302"/></linearGradient><linearGradient id="c" x1="1.394" y1="0.847" x2="-0.395" y2="0.153" xlink:href="#a"/><linearGradient id="d" x1="0.283" y1="1.027" x2="1.76" y2="-2.558" xlink:href="#a"/><linearGradient id="e" x1="1.278" y1="-0.786" x2="0.094" y2="1.172" xlink:href="#a"/><linearGradient id="f" x1="1.123" y1="-0.544" x2="-0.048" y2="1.418" xlink:href="#b"/><linearGradient id="g" x1="-0.382" y1="1.962" x2="1.857" y2="-1.748" gradientUnits="objectBoundingBox"><stop offset="0" stop-color="#523e1d"/><stop offset="0.031" stop-color="#574321"/><stop offset="0.071" stop-color="#67512e"/><stop offset="0.084" stop-color="#6e5834"/><stop offset="0.118" stop-color="#806a44"/><stop offset="0.211" stop-color="#ad996d"/><stop offset="0.299" stop-color="#d0be8e"/><stop offset="0.381" stop-color="#ead9a5"/><stop offset="0.455" stop-color="#f9e9b4"/><stop offset="0.511" stop-color="#ffefb9"/><stop offset="0.519" stop-color="#f2e1ab"/><stop offset="0.541" stop-color="#d4c18e"/><stop offset="0.566" stop-color="#bba675"/><stop offset="0.594" stop-color="#a79060"/><stop offset="0.627" stop-color="#977f51"/><stop offset="0.667" stop-color="#8d7346"/><stop offset="0.724" stop-color="#866c3f"/><stop offset="0.882" stop-color="#856b3e"/><stop offset="1" stop-color="#543d17"/></linearGradient><linearGradient id="h" x1="3.219" y1="-5.784" x2="-3.562" y2="9.818" xlink:href="#b"/><linearGradient id="i" x1="2.432" y1="-3.974" x2="-4.349" y2="11.628" xlink:href="#b"/><linearGradient id="j" x1="1.638" y1="-2.148" x2="-5.143" y2="13.455" xlink:href="#b"/><linearGradient id="k" x1="0.943" y1="-0.547" x2="-5.838" y2="15.055" xlink:href="#b"/><linearGradient id="l" x1="0.45" y1="0.587" x2="-6.331" y2="16.189" xlink:href="#b"/><linearGradient id="m" x1="0.184" y1="1.199" x2="-6.597" y2="16.801" xlink:href="#b"/><linearGradient id="n" x1="0.168" y1="1.236" x2="-6.613" y2="16.838" xlink:href="#b"/><linearGradient id="o" x1="0.425" y1="0.645" x2="-6.356" y2="16.247" xlink:href="#b"/><linearGradient id="p" x1="0.92" y1="-0.494" x2="-5.861" y2="15.108" xlink:href="#b"/><linearGradient id="q" x1="1.579" y1="-2.012" x2="-5.202" y2="13.591" xlink:href="#b"/><linearGradient id="r" x1="2.341" y1="-3.763" x2="-4.44" y2="11.839" xlink:href="#b"/><linearGradient id="s" x1="3.141" y1="-5.605" x2="-3.64" y2="9.997" xlink:href="#b"/><linearGradient id="t" x1="3.908" y1="-7.369" x2="-2.873" y2="8.233" xlink:href="#b"/><linearGradient id="u" x1="4.505" y1="-8.744" x2="-2.276" y2="6.858" xlink:href="#b"/><linearGradient id="v" x1="4.888" y1="-9.624" x2="-1.893" y2="5.978" xlink:href="#b"/><linearGradient id="w" x1="5.032" y1="-9.955" x2="-1.749" y2="5.647" xlink:href="#b"/><linearGradient id="x" x1="4.914" y1="-9.684" x2="-1.867" y2="5.918" xlink:href="#b"/><linearGradient id="y" x1="4.526" y1="-8.792" x2="-2.255" y2="6.81" xlink:href="#b"/><linearGradient id="z" x1="3.939" y1="-7.442" x2="-2.842" y2="8.16" xlink:href="#b"/><linearGradient id="ab" x1="4.137" y1="-3.016" x2="-0.068" y2="0.957" xlink:href="#b"/><linearGradient id="ac" x1="4.428" y1="-2.776" x2="-0.337" y2="1.198" xlink:href="#b"/><linearGradient id="ad" x1="3.864" y1="-2.494" x2="-0.495" y2="1.39" xlink:href="#b"/><linearGradient id="ae" x1="3.383" y1="-2.384" x2="-0.822" y2="1.59" xlink:href="#b"/></defs><g transform="translate(-198 -4124)"><text class="a" transform="translate(601 4124)"><tspan x="0" y="43">AWARDS</tspan></text><g transform="translate(8 779)"><g transform="translate(576 3485)"><path class="b" d="M411.549,281.567c0,5.692-7.277,10.68-8.226,16.1-.976,5.575,4.143,12.742,2.25,17.942-1.927,5.292-10.473,7.487-13.257,12.3-2.809,4.856-.459,13.352-4.046,17.623s-12.376,3.434-16.659,7.032-4.95,12.383-9.806,15.193c-4.811,2.784-12.766-1.006-18.058.921-5.2,1.893-8.85,9.925-14.425,10.9-5.421.949-11.587-5.338-17.28-5.338s-11.859,6.287-17.28,5.338c-5.574-.976-9.226-9.009-14.425-10.9-5.292-1.927-13.247,1.863-18.058-.921-4.856-2.81-5.535-11.606-9.806-15.193s-13.061-2.749-16.659-7.032-1.236-12.767-4.046-17.623c-2.784-4.811-11.33-7.006-13.256-12.3-1.893-5.2,3.226-12.367,2.25-17.942-.949-5.421-8.226-10.408-8.226-16.1s7.277-10.68,8.226-16.1c.977-5.574-4.142-12.742-2.25-17.942,1.927-5.292,10.473-7.487,13.256-12.3,2.81-4.856.459-13.353,4.047-17.623s12.376-3.434,16.659-7.032,4.95-12.383,9.806-15.193c4.811-2.784,12.766,1.006,18.058-.921,5.2-1.893,8.85-9.925,14.425-10.9,5.421-.95,11.587,5.337,17.28,5.337s11.859-6.287,17.279-5.337c5.575.976,9.226,9.009,14.426,10.9,5.292,1.927,13.247-1.863,18.058.921,4.856,2.81,5.535,11.606,9.806,15.193s13.061,2.749,16.659,7.032,1.236,12.767,4.046,17.623c2.784,4.811,11.33,7.006,13.256,12.3,1.893,5.2-3.226,12.367-2.25,17.941C404.272,270.887,411.549,275.875,411.549,281.567Z" transform="translate(-212.535 -183.458)"/><path class="c" d="M330.5,380.295c-2.145,0-4.589-1.218-7.179-2.507-2.891-1.44-5.88-2.928-8.949-2.928s-6.058,1.489-8.949,2.928c-2.589,1.289-5.034,2.507-7.178,2.507a4.9,4.9,0,0,1-.857-.072c-2.448-.429-4.628-2.725-6.936-5.155-2.176-2.291-4.425-4.659-7.2-5.67a12.822,12.822,0,0,0-4.421-.675,44.37,44.37,0,0,0-4.89.369,41.248,41.248,0,0,1-4.479.345,7.84,7.84,0,0,1-4-.833c-2.118-1.225-3.371-4.111-4.7-7.165-1.267-2.919-2.578-5.936-4.866-7.857s-5.5-2.7-8.6-3.447c-3.23-.777-6.281-1.512-7.846-3.376s-1.754-4.979-1.961-8.288c-.2-3.189-.406-6.486-1.914-9.091-1.488-2.572-4.223-4.38-6.868-6.129-2.786-1.842-5.419-3.582-6.262-5.9-.817-2.245.066-5.231,1-8.391.91-3.08,1.852-6.265,1.327-9.261-.506-2.891-2.442-5.509-4.314-8.04-2-2.7-3.887-5.256-3.887-7.766s1.888-5.063,3.887-7.766c1.872-2.532,3.808-5.149,4.314-8.04.525-3-.417-6.181-1.327-9.261-.935-3.161-1.817-6.147-1-8.392.843-2.316,3.475-4.056,6.261-5.9,2.646-1.749,5.38-3.557,6.869-6.13,1.507-2.6,1.714-5.9,1.914-9.09.208-3.309.4-6.434,1.962-8.289s4.617-2.6,7.847-3.376c3.1-.746,6.307-1.518,8.6-3.447s3.6-4.939,4.866-7.857c1.326-3.054,2.58-5.94,4.7-7.165a7.832,7.832,0,0,1,4-.834,41.151,41.151,0,0,1,4.479.346,44.487,44.487,0,0,0,4.89.369,12.825,12.825,0,0,0,4.422-.676c2.775-1.01,5.024-3.379,7.2-5.67,2.307-2.43,4.487-4.725,6.936-5.154a4.973,4.973,0,0,1,.857-.072c2.145,0,4.589,1.218,7.179,2.507,2.891,1.44,5.88,2.928,8.949,2.928s6.058-1.488,8.949-2.928c2.59-1.289,5.034-2.507,7.179-2.507a4.9,4.9,0,0,1,.857.072c2.448.429,4.628,2.724,6.936,5.154,2.176,2.291,4.425,4.659,7.2,5.67a12.823,12.823,0,0,0,4.421.675,44.461,44.461,0,0,0,4.889-.369,41.155,41.155,0,0,1,4.48-.346,7.836,7.836,0,0,1,4,.834c2.118,1.225,3.371,4.111,4.7,7.165,1.267,2.919,2.578,5.936,4.865,7.857s5.5,2.7,8.6,3.447c3.229.777,6.281,1.512,7.846,3.376s1.754,4.98,1.961,8.289c.2,3.189.407,6.486,1.914,9.091,1.488,2.572,4.223,4.38,6.868,6.129,2.786,1.842,5.419,3.582,6.261,5.9.818,2.245-.065,5.231-1,8.391-.91,3.08-1.852,6.265-1.327,9.26.506,2.892,2.442,5.509,4.314,8.041,2,2.7,3.887,5.256,3.887,7.766s-1.888,5.063-3.887,7.766c-1.872,2.532-3.808,5.149-4.314,8.04-.525,3,.417,6.181,1.327,9.261.935,3.161,1.817,6.147,1,8.392-.843,2.315-3.475,4.055-6.261,5.9-2.646,1.749-5.38,3.558-6.869,6.13-1.507,2.6-1.714,5.9-1.914,9.091-.207,3.309-.4,6.434-1.961,8.289s-4.617,2.6-7.847,3.376c-3.1.746-6.307,1.518-8.6,3.447s-3.6,4.939-4.866,7.857c-1.326,3.055-2.579,5.94-4.7,7.166a7.834,7.834,0,0,1-4,.833,41.161,41.161,0,0,1-4.479-.346,44.468,44.468,0,0,0-4.889-.369,12.821,12.821,0,0,0-4.421.676c-2.776,1.01-5.025,3.379-7.2,5.67-2.308,2.43-4.487,4.725-6.936,5.154A4.975,4.975,0,0,1,330.5,380.295Z" transform="translate(-214.861 -185.785)"/><path class="d" d="M344.37,384.232c-.558-.265-1.145-.557-1.623-.795-3.581-1.783-8.039-4-13.518-4s-9.936,2.219-13.518,4c-.479.238-1.066.531-1.624.8-.463-.467-.952-.982-1.347-1.4-2.711-2.855-6.085-6.408-11.125-8.243a22.829,22.829,0,0,0-7.928-1.294,53.165,53.165,0,0,0-6.034.433c-.65.073-1.281.144-1.854.2-.271-.589-.549-1.229-.774-1.747-1.577-3.631-3.539-8.149-7.675-11.623s-8.942-4.636-12.8-5.563c-.546-.132-1.221-.294-1.845-.459-.054-.639-.1-1.326-.132-1.883-.249-3.962-.558-8.891-3.272-13.583-2.7-4.659-6.794-7.369-10.087-9.546-.473-.313-1.058-.7-1.593-1.07.166-.6.354-1.244.509-1.764,1.128-3.818,2.533-8.57,1.594-13.934-.923-5.273-3.832-9.206-6.169-12.367-.362-.49-.816-1.1-1.214-1.671.4-.567.852-1.181,1.214-1.672,2.337-3.16,5.245-7.093,6.169-12.366.94-5.363-.465-10.116-1.594-13.934-.154-.521-.343-1.161-.509-1.764.536-.371,1.12-.758,1.593-1.07,3.293-2.178,7.392-4.888,10.088-9.547,2.714-4.69,3.023-9.621,3.272-13.581.035-.557.078-1.244.132-1.883.625-.164,1.3-.327,1.846-.458,3.855-.928,8.653-2.083,12.8-5.563s6.1-7.992,7.674-11.623c.225-.518.5-1.158.774-1.747.572.052,1.2.124,1.853.2a53.164,53.164,0,0,0,6.034.433,22.828,22.828,0,0,0,7.929-1.294c5.04-1.835,8.415-5.388,11.125-8.243.4-.416.884-.93,1.347-1.4.558.265,1.145.557,1.623.8,3.581,1.783,8.038,4,13.518,4s9.936-2.22,13.518-4c.478-.238,1.065-.531,1.623-.8.464.467.953.982,1.348,1.4,2.711,2.855,6.085,6.408,11.125,8.243a22.83,22.83,0,0,0,7.928,1.294,53.05,53.05,0,0,0,6.034-.433c.65-.073,1.282-.144,1.855-.2.271.589.549,1.229.774,1.747,1.576,3.631,3.539,8.15,7.674,11.623s8.942,4.636,12.8,5.564c.546.131,1.221.294,1.845.458.053.639.1,1.326.131,1.883.249,3.961.557,8.891,3.272,13.583,2.7,4.659,6.794,7.369,10.087,9.546.474.313,1.058.7,1.594,1.07-.166.6-.354,1.243-.509,1.764-1.128,3.818-2.533,8.57-1.594,13.934.923,5.273,3.832,9.207,6.169,12.367.362.49.816,1.1,1.214,1.672-.4.567-.852,1.181-1.214,1.671-2.337,3.16-5.246,7.093-6.169,12.366-.94,5.364.465,10.116,1.594,13.934.154.521.343,1.16.509,1.764-.536.371-1.12.758-1.594,1.07-3.293,2.177-7.392,4.888-10.087,9.547-2.715,4.691-3.023,9.621-3.272,13.582-.035.557-.078,1.244-.131,1.883-.625.164-1.3.327-1.846.458-3.855.928-8.653,2.083-12.8,5.564s-6.1,7.992-7.674,11.622c-.225.518-.5,1.158-.774,1.747-.572-.052-1.2-.123-1.853-.2a53.269,53.269,0,0,0-6.034-.433,22.837,22.837,0,0,0-7.929,1.294c-5.04,1.835-8.415,5.388-11.125,8.244C345.322,383.251,344.834,383.765,344.37,384.232Z" transform="translate(-229.722 -200.609)"/><path class="e" d="M349.393,385.74c-3.637-1.8-8.479-4.047-14.408-4.047s-10.775,2.247-14.408,4.046c-2.769-2.908-6.513-6.671-12.037-8.683a26.189,26.189,0,0,0-9.1-1.5,51.429,51.429,0,0,0-5.77.382c-1.609-3.69-3.847-8.523-8.369-12.322s-9.682-5.175-13.6-6.126c-.259-4.028-.724-9.34-3.685-14.456-2.949-5.1-7.313-8.134-10.66-10.354,1.138-3.878,2.51-9.02,1.49-14.838-1.024-5.848-4.134-10.215-6.521-13.448,2.4-3.258,5.5-7.617,6.521-13.449s-.353-10.964-1.49-14.838c3.349-2.222,7.713-5.258,10.661-10.355,2.961-5.117,3.426-10.43,3.685-14.455,3.92-.95,9.074-2.324,13.6-6.126s6.759-8.631,8.369-12.322a51.606,51.606,0,0,0,5.77.382,26.18,26.18,0,0,0,9.1-1.5c5.527-2.012,9.272-5.779,12.037-8.683,3.637,1.8,8.479,4.047,14.408,4.047s10.775-2.247,14.408-4.047c2.769,2.908,6.513,6.672,12.037,8.684a26.179,26.179,0,0,0,9.1,1.5,51.4,51.4,0,0,0,5.77-.382c1.609,3.69,3.847,8.523,8.369,12.322s9.682,5.176,13.6,6.126c.26,4.028.724,9.339,3.685,14.456,2.949,5.1,7.313,8.134,10.66,10.354-1.138,3.877-2.509,9.02-1.49,14.838,1.024,5.849,4.134,10.215,6.521,13.449-2.4,3.258-5.5,7.617-6.521,13.448s.353,10.964,1.49,14.839c-3.349,2.222-7.712,5.258-10.661,10.355-2.961,5.117-3.426,10.43-3.685,14.455-3.92.95-9.074,2.323-13.6,6.126s-6.759,8.631-8.368,12.322a51.608,51.608,0,0,0-5.77-.382,26.183,26.183,0,0,0-9.1,1.5C355.9,379.068,352.158,382.836,349.393,385.74Z" transform="translate(-235.478 -206.284)"/><circle class="f" cx="69.612" cy="69.612" r="69.612" transform="translate(29.895 28.497)"/><circle class="g" cx="67.665" cy="67.665" r="67.665" transform="translate(3.814 98.109) rotate(-45)"/><circle class="h" cx="63.771" cy="63.771" r="63.771" transform="translate(35.736 34.338)"/><g transform="translate(41.415 39.791)"><path class="i" d="M541.955,491.631l.542,3.161-2.837-1.487-2.846,1.487.542-3.161L535.06,489.4l3.171-.463,1.428-2.876,1.418,2.876,3.171.463Z" transform="translate(-439.911 -397.721)"/><path class="j" d="M562.784,456.012l.542,3.162-2.837-1.487-2.846,1.487.542-3.162-2.295-2.236,3.171-.463,1.428-2.876,1.418,2.876,3.171.463Z" transform="translate(-451.921 -377.184)"/><path class="k" d="M571.143,414.264l.542,3.162-2.836-1.487L566,417.425l.542-3.162-2.295-2.236,3.171-.463,1.428-2.876,1.418,2.876,3.172.463Z" transform="translate(-456.741 -353.113)"/><path class="l" d="M565.168,371.614l.542,3.162-2.836-1.487-2.846,1.487.542-3.162-2.295-2.236,3.171-.463,1.428-2.876,1.418,2.876,3.172.463Z" transform="translate(-453.296 -328.522)"/><path class="m" d="M546.226,334.671l.542,3.162-2.836-1.487-2.846,1.487.542-3.162-2.295-2.236,3.171-.463,1.428-2.876,1.418,2.876,3.172.463Z" transform="translate(-442.374 -307.221)"/><path class="n" d="M516.787,305.942l.542,3.162-2.836-1.487-2.846,1.487.542-3.162-2.295-2.236,3.171-.463,1.428-2.876,1.418,2.876,3.172.463Z" transform="translate(-425.4 -290.657)"/><path class="o" d="M479.32,287.9l.542,3.162-2.837-1.487-2.846,1.487.542-3.162-2.295-2.236,3.171-.463,1.428-2.876,1.418,2.876,3.171.463Z" transform="translate(-403.798 -280.253)"/><path class="p" d="M436.39,283.008l.542,3.162-2.837-1.487-2.846,1.487.542-3.162-2.295-2.236,3.172-.463,1.428-2.876,1.418,2.876,3.171.463Z" transform="translate(-379.045 -277.434)"/><path class="q" d="M394.906,292.455l.542,3.162-2.836-1.487-2.846,1.487.541-3.162-2.295-2.236,3.172-.463,1.428-2.876,1.418,2.876,3.172.463Z" transform="translate(-355.126 -282.881)"/><path class="r" d="M359.785,314.253l.542,3.162-2.836-1.487-2.846,1.487.542-3.162-2.295-2.236,3.171-.463,1.428-2.876,1.418,2.876,3.171.463Z" transform="translate(-334.876 -295.449)"/><path class="s" d="M333.5,345.931l.542,3.162-2.836-1.487-2.846,1.487.542-3.162L326.6,343.7l3.172-.463,1.428-2.876,1.418,2.876,3.172.463Z" transform="translate(-319.719 -313.714)"/><path class="t" d="M318.51,385.018l.542,3.162-2.837-1.487-2.846,1.487.542-3.162-2.3-2.236,3.172-.463,1.428-2.876,1.418,2.876,3.172.463Z" transform="translate(-311.078 -336.25)"/><path class="u" d="M317.24,428.45l.542,3.162-2.836-1.487-2.846,1.487.542-3.162-2.295-2.236,3.171-.463,1.428-2.876,1.418,2.876,3.172.463Z" transform="translate(-310.346 -361.292)"/><path class="v" d="M330.006,468.574l.542,3.162-2.837-1.487-2.846,1.487.542-3.162-2.3-2.236,3.172-.463L327.711,463l1.418,2.876,3.172.463Z" transform="translate(-317.706 -384.427)"/><path class="w" d="M354.506,501.719l.542,3.161-2.837-1.487-2.846,1.487.542-3.161-2.295-2.236,3.172-.463,1.428-2.876,1.418,2.876,3.171.463Z" transform="translate(-331.832 -403.537)"/><path class="x" d="M388.268,525.414l.542,3.162-2.836-1.487-2.846,1.487.542-3.162-2.295-2.236,3.171-.463,1.428-2.876,1.418,2.876,3.172.463Z" transform="translate(-351.299 -417.199)"/><path class="y" d="M428.822,537.188l.542,3.161-2.837-1.487-2.846,1.487.542-3.161-2.295-2.236,3.171-.463,1.428-2.876,1.418,2.876,3.171.463Z" transform="translate(-374.681 -423.988)"/><path class="z" d="M472.228,534.8l.542,3.162-2.837-1.487-2.846,1.487.542-3.162-2.3-2.236,3.172-.463,1.428-2.876,1.418,2.876,3.172.463Z" transform="translate(-399.709 -422.609)"/><path class="aa" d="M510.913,518.793l.542,3.162-2.836-1.487-2.846,1.487.542-3.162-2.295-2.236,3.172-.463,1.428-2.876,1.418,2.876,3.171.463Z" transform="translate(-422.014 -413.382)"/><path class="i" d="M541.955,491.631l.542,3.161-2.837-1.487-2.846,1.487.542-3.161L535.06,489.4l3.171-.463,1.428-2.876,1.418,2.876,3.171.463Z" transform="translate(-439.911 -397.721)"/></g><g transform="translate(68.503 60.629)"><g transform="translate(5.291 54.359)"><path class="ab" d="M400.955,462.2c-.5.076-.906-.511-1-1.109a2.282,2.282,0,0,1,.9-1.476c.039-.006-.43.794-.291.931,1.309-.2,4.089-2.377,3.851-3.935-.132-.867-.959-1.253-2.153-1.07-5.929.9-14.769,12.537-13.526,17.843.382,1.6,1.642,1.856,3.124,1.63,3.619-.552,9.012-4.7,13.01-9.1.017-.022.243.042.171.091-2.882,3.829-9.392,9.825-13.622,10.372-2.066.276-3.994-.355-4.468-2.687-1.413-6.677,8.559-17.615,15.045-18.606,1.675-.255,2.958.278,3.183,1.76C405.474,458.773,402.841,461.913,400.955,462.2Z" transform="translate(-386.816 -455.027)"/><path class="ab" d="M426.586,468.7c1.839-2.664,4.8-5.48,5.451-5.58.443-.068,1.218.879,1.019,1.126-.442.461-2.767,4.972-2.687,5.885,1.143-.509,3.468-3.6,4.508-4.922.12-.116.24.022.191.088a32.409,32.409,0,0,1-4.4,5.517,2.93,2.93,0,0,1-.611.389.48.48,0,0,1-.288.044,1.639,1.639,0,0,1-1-1.029c-.168-1.1,1.422-4.491,2.285-5.548a17.907,17.907,0,0,0-3.7,3.637c-.166.2-.813,1.129-.813,1.129a6.256,6.256,0,0,0-.941,1.837c-.114.411-.035.676.417.666a.688.688,0,0,1-.65,0,2.154,2.154,0,0,1-.81-.663,3.9,3.9,0,0,1,.246-2.127,55.3,55.3,0,0,1,4.149-9.339,16.9,16.9,0,0,1,1.935-2.935,1.5,1.5,0,0,1,.679-.458c1.078-.164,2,.856,1.6.7-.414-.134-.929.358-1.535,1.3A52.938,52.938,0,0,0,426.586,468.7Z" transform="translate(-408.542 -455.817)"/><path class="ab" d="M451.517,469.553c-3.485.531-6.517,7.633-5.369,7.93,1.146.277,3.428-3.222,4.418-5.383a1.859,1.859,0,0,1-.356-.91,1.892,1.892,0,0,1,.766-.925.607.607,0,0,1,.472.125,1.687,1.687,0,0,0,1.747.738,6.536,6.536,0,0,0,2.085-1.185,3.509,3.509,0,0,1-1.625,1.49,3.832,3.832,0,0,1-1.109.346,1.715,1.715,0,0,1-.59.011c-.129,2.639-3.69,6.02-5.748,6.215a1.565,1.565,0,0,1-1.7-1.3c-.479-3.137,3.258-6.918,6.3-7.382a1.7,1.7,0,0,1,1.224.148c.105.042.047.052-.03.063C451.811,469.547,451.651,469.532,451.517,469.553Z" transform="translate(-420.059 -463.25)"/><path class="ab" d="M463.859,472.021a1.331,1.331,0,0,1-.931-.8c-.17-1.116,1.98-5.739,3.062-6.909a.407.407,0,0,1,.271-.16,1.692,1.692,0,0,1,1.4,1.066c.012.077-.1,0-.256,0-.8.043-2.768,4.835-2.878,5.66,1.127-.488,3.529-3.592,4.529-4.907.121-.117.24.022.192.088-1.4,2.066-3.981,5.67-5.159,5.948A1.035,1.035,0,0,1,463.859,472.021Zm4.953-10.643c.2.165.362.436.285.448a.583.583,0,0,0-.4.081,5.95,5.95,0,0,0-1.253,1.471c-.217.387-.683.045-.755-.3a2.869,2.869,0,0,1,.912-2.149A1.457,1.457,0,0,1,468.812,461.378Z" transform="translate(-430.695 -458.415)"/><path class="ab" d="M475.85,472.664c1.741-.464,4.578-3.555,6.213-5.361.052-.047.2.009.149.075-1.417,1.812-4.6,5.863-6.987,6.227a1.575,1.575,0,0,1-1.587-.978,1.544,1.544,0,0,1-.05-.583,7.392,7.392,0,0,1,1.617-3.734c1.341-1.8,3.132-3.1,4.5-3.306a1.48,1.48,0,0,1,1.241.774c.111.732-.723,1.588-1.285,2.167-.033.044-.135.021-.1-.043.261-.354.818-2,.643-2.107-2.053.353-5.162,5.28-4.956,6.627C475.288,472.729,475.679,472.709,475.85,472.664Z" transform="translate(-436.842 -460.776)"/><path class="ab" d="M490.648,470.017c.016.234.21.342.633.277,1.406-.214,4.519-3.427,6.217-5.341.052-.047.2.029.153.1-1.238,1.568-4.508,5.828-7.068,6.219a1.58,1.58,0,0,1-1.551-1,3.6,3.6,0,0,1,.076-1.311,9.7,9.7,0,0,1,2.147-3.735,7.829,7.829,0,0,1,3.845-2.557c.288-.044,1.241.263,1.324.8.182,1.192-3.091,4.529-5.237,4.916A3.307,3.307,0,0,0,490.648,470.017Zm.729-2.062c1.645-.448,4.364-4.054,4.368-4.8A11.661,11.661,0,0,0,491.377,467.955Z" transform="translate(-445.733 -459.426)"/></g><g transform="translate(0 19.469)"><path class="ac" d="M381.769,373.473q3.858,0,5.587,1.795t1.728,5.43v1.122a9.144,9.144,0,0,1-.763,3.994,4.849,4.849,0,0,1-2.423,2.333,4.936,4.936,0,0,1,2.849,2.491,9.751,9.751,0,0,1,.83,4.241v2.558a6.664,6.664,0,0,1-7.494,7.449H374.32V373.473Zm-2.513,4.487v8.3h1.93a3.106,3.106,0,0,0,2.176-.718,3.448,3.448,0,0,0,.785-2.6v-1.75a3.986,3.986,0,0,0-.606-2.468,2.287,2.287,0,0,0-1.907-.763Zm0,12.789V400.4h2.827a2.536,2.536,0,0,0,1.907-.673,3.487,3.487,0,0,0,.65-2.423v-2.737a4.536,4.536,0,0,0-.74-3.006,3.19,3.19,0,0,0-2.446-.808Z" transform="translate(-374.32 -373.114)"/><path class="ad" d="M422.282,386.711h6.776V391.2h-6.776v9.2h8.526v4.487H417.346V373.473h13.462v4.487h-8.526Z" transform="translate(-399.128 -373.114)"/><path class="ae" d="M454.678,380.524a8.531,8.531,0,0,1,1.817-5.856,8.3,8.3,0,0,1,10.9,0,8.531,8.531,0,0,1,1.817,5.856v1.211h-4.667v-1.526a3.5,3.5,0,0,0-.651-2.4,2.721,2.721,0,0,0-3.634,0,3.492,3.492,0,0,0-.651,2.4,5.557,5.557,0,0,0,.718,2.85,11.816,11.816,0,0,0,1.795,2.333q1.077,1.1,2.311,2.2a22,22,0,0,1,2.311,2.4,12.268,12.268,0,0,1,1.795,2.962,9.8,9.8,0,0,1,.718,3.9,8.393,8.393,0,0,1-1.862,5.855,8.422,8.422,0,0,1-10.994,0,8.391,8.391,0,0,1-1.862-5.855V394.7h4.667v2.468a3.246,3.246,0,0,0,.7,2.378,2.912,2.912,0,0,0,3.724,0,3.25,3.25,0,0,0,.7-2.378,5.565,5.565,0,0,0-.718-2.85,11.889,11.889,0,0,0-1.795-2.333q-1.077-1.1-2.311-2.2a21.894,21.894,0,0,1-2.311-2.4,12.224,12.224,0,0,1-1.795-2.961A9.773,9.773,0,0,1,454.678,380.524Z" transform="translate(-420.575 -372.626)"/><path class="af" d="M492.8,373.473h15.257v4.487H502.9v26.924H497.96V377.96H492.8Z" transform="translate(-442.633 -373.114)"/></g><g transform="translate(16.717)"><g transform="translate(12.599 1.833)"><path class="ab" d="M445.644,343.279c1.84-2.665,4.8-5.481,5.453-5.581.443-.067,1.218.878,1.019,1.125-.442.462-2.768,4.974-2.687,5.887,1.144-.509,3.469-3.6,4.508-4.924.121-.117.241.022.191.089a32.446,32.446,0,0,1-4.4,5.518,2.962,2.962,0,0,1-.61.389.5.5,0,0,1-.289.044,1.647,1.647,0,0,1-1.005-1.029c-.167-1.1,1.423-4.492,2.286-5.55a17.9,17.9,0,0,0-3.7,3.638c-.166.2-.813,1.128-.813,1.128a6.269,6.269,0,0,0-.94,1.839c-.114.411-.035.675.417.666a.69.69,0,0,1-.65,0,2.149,2.149,0,0,1-.81-.664,3.908,3.908,0,0,1,.246-2.126,55.37,55.37,0,0,1,4.15-9.342,16.85,16.85,0,0,1,1.935-2.935,1.507,1.507,0,0,1,.679-.458c1.078-.165,2,.857,1.6.7-.415-.133-.93.359-1.535,1.3A52.961,52.961,0,0,0,445.644,343.279Z" transform="translate(-443.555 -330.975)"/><path class="ab" d="M464.749,351.463c.016.234.21.342.633.278,1.405-.215,4.52-3.428,6.218-5.342.051-.047.2.028.152.094-1.238,1.568-4.509,5.831-7.069,6.221a1.581,1.581,0,0,1-1.552-1,3.643,3.643,0,0,1,.075-1.312,9.72,9.72,0,0,1,2.148-3.737A7.831,7.831,0,0,1,469.2,344.1c.289-.044,1.243.264,1.324.8.182,1.193-3.091,4.53-5.238,4.917A3.3,3.3,0,0,0,464.749,351.463Zm.729-2.062c1.646-.448,4.366-4.056,4.369-4.8A11.67,11.67,0,0,0,465.478,349.4Z" transform="translate(-454.824 -338.543)"/></g><path class="ab" d="M437.461,334.286c-.346.053-.74.447-1.215,1.072a24.954,24.954,0,0,0-1.805,2.758,60.551,60.551,0,0,0-4.83,11.421h1.364a84.383,84.383,0,0,1,5.8-11.994c.884-1.435,1.625-2.258,2.068-2.325a.577.577,0,0,1,.5.161A1.81,1.81,0,0,0,437.461,334.286Z" transform="translate(-422.916 -331.042)"/><path class="ab" d="M417.623,338.757a.112.112,0,0,0,.073-.031c-.166-.053-2.347-.409-2.382-1.665-.087-2.627,6.381-7.89,16.315-9.406.365-.056.751-.115,1.12-.151a32.514,32.514,0,0,1,8.795.055c.223.045.36-.094.07-.187a26.216,26.216,0,0,0-9.811-.512c-.427.045-.831.107-1.254.172-8.838,1.349-17.246,5.765-16.726,9.942C414.043,338.673,416.33,338.935,417.623,338.757Z" transform="translate(-413.801 -326.646)"/></g></g></g><g transform="translate(958 3483)"><path class="b" d="M411.549,281.567c0,5.692-7.277,10.68-8.226,16.1-.976,5.575,4.143,12.742,2.25,17.942-1.927,5.292-10.473,7.487-13.257,12.3-2.809,4.856-.459,13.352-4.046,17.623s-12.376,3.434-16.659,7.032-4.95,12.383-9.806,15.193c-4.811,2.784-12.766-1.006-18.058.921-5.2,1.893-8.85,9.925-14.425,10.9-5.421.949-11.587-5.338-17.28-5.338s-11.859,6.287-17.28,5.338c-5.574-.976-9.226-9.009-14.425-10.9-5.292-1.927-13.247,1.863-18.058-.921-4.856-2.81-5.535-11.606-9.806-15.193s-13.061-2.749-16.659-7.032-1.236-12.767-4.046-17.623c-2.784-4.811-11.33-7.006-13.256-12.3-1.893-5.2,3.226-12.367,2.25-17.942-.949-5.421-8.226-10.408-8.226-16.1s7.277-10.68,8.226-16.1c.977-5.574-4.142-12.742-2.25-17.942,1.927-5.292,10.473-7.487,13.256-12.3,2.81-4.856.459-13.353,4.047-17.623s12.376-3.434,16.659-7.032,4.95-12.383,9.806-15.193c4.811-2.784,12.766,1.006,18.058-.921,5.2-1.893,8.85-9.925,14.425-10.9,5.421-.95,11.587,5.337,17.28,5.337s11.859-6.287,17.279-5.337c5.575.976,9.226,9.009,14.426,10.9,5.292,1.927,13.247-1.863,18.058.921,4.856,2.81,5.535,11.606,9.806,15.193s13.061,2.749,16.659,7.032,1.236,12.767,4.046,17.623c2.784,4.811,11.33,7.006,13.256,12.3,1.893,5.2-3.226,12.367-2.25,17.941C404.272,270.887,411.549,275.875,411.549,281.567Z" transform="translate(-212.535 -183.458)"/><path class="c" d="M330.5,380.295c-2.145,0-4.589-1.218-7.179-2.507-2.891-1.44-5.88-2.928-8.949-2.928s-6.058,1.489-8.949,2.928c-2.589,1.289-5.034,2.507-7.178,2.507a4.9,4.9,0,0,1-.857-.072c-2.448-.429-4.628-2.725-6.936-5.155-2.176-2.291-4.425-4.659-7.2-5.67a12.822,12.822,0,0,0-4.421-.675,44.37,44.37,0,0,0-4.89.369,41.248,41.248,0,0,1-4.479.345,7.84,7.84,0,0,1-4-.833c-2.118-1.225-3.371-4.111-4.7-7.165-1.267-2.919-2.578-5.936-4.866-7.857s-5.5-2.7-8.6-3.447c-3.23-.777-6.281-1.512-7.846-3.376s-1.754-4.979-1.961-8.288c-.2-3.189-.406-6.486-1.914-9.091-1.488-2.572-4.223-4.38-6.868-6.129-2.786-1.842-5.419-3.582-6.262-5.9-.817-2.245.066-5.231,1-8.391.91-3.08,1.852-6.265,1.327-9.261-.506-2.891-2.442-5.509-4.314-8.04-2-2.7-3.887-5.256-3.887-7.766s1.888-5.063,3.887-7.766c1.872-2.532,3.808-5.149,4.314-8.04.525-3-.417-6.181-1.327-9.261-.935-3.161-1.817-6.147-1-8.392.843-2.316,3.475-4.056,6.261-5.9,2.646-1.749,5.38-3.557,6.869-6.13,1.507-2.6,1.714-5.9,1.914-9.09.208-3.309.4-6.434,1.962-8.289s4.617-2.6,7.847-3.376c3.1-.746,6.307-1.518,8.6-3.447s3.6-4.939,4.866-7.857c1.326-3.054,2.58-5.94,4.7-7.165a7.832,7.832,0,0,1,4-.834,41.151,41.151,0,0,1,4.479.346,44.487,44.487,0,0,0,4.89.369,12.825,12.825,0,0,0,4.422-.676c2.775-1.01,5.024-3.379,7.2-5.67,2.307-2.43,4.487-4.725,6.936-5.154a4.973,4.973,0,0,1,.857-.072c2.145,0,4.589,1.218,7.179,2.507,2.891,1.44,5.88,2.928,8.949,2.928s6.058-1.488,8.949-2.928c2.59-1.289,5.034-2.507,7.179-2.507a4.9,4.9,0,0,1,.857.072c2.448.429,4.628,2.724,6.936,5.154,2.176,2.291,4.425,4.659,7.2,5.67a12.823,12.823,0,0,0,4.421.675,44.461,44.461,0,0,0,4.889-.369,41.155,41.155,0,0,1,4.48-.346,7.836,7.836,0,0,1,4,.834c2.118,1.225,3.371,4.111,4.7,7.165,1.267,2.919,2.578,5.936,4.865,7.857s5.5,2.7,8.6,3.447c3.229.777,6.281,1.512,7.846,3.376s1.754,4.98,1.961,8.289c.2,3.189.407,6.486,1.914,9.091,1.488,2.572,4.223,4.38,6.868,6.129,2.786,1.842,5.419,3.582,6.261,5.9.818,2.245-.065,5.231-1,8.391-.91,3.08-1.852,6.265-1.327,9.26.506,2.892,2.442,5.509,4.314,8.041,2,2.7,3.887,5.256,3.887,7.766s-1.888,5.063-3.887,7.766c-1.872,2.532-3.808,5.149-4.314,8.04-.525,3,.417,6.181,1.327,9.261.935,3.161,1.817,6.147,1,8.392-.843,2.315-3.475,4.055-6.261,5.9-2.646,1.749-5.38,3.558-6.869,6.13-1.507,2.6-1.714,5.9-1.914,9.091-.207,3.309-.4,6.434-1.961,8.289s-4.617,2.6-7.847,3.376c-3.1.746-6.307,1.518-8.6,3.447s-3.6,4.939-4.866,7.857c-1.326,3.055-2.579,5.94-4.7,7.166a7.834,7.834,0,0,1-4,.833,41.161,41.161,0,0,1-4.479-.346,44.468,44.468,0,0,0-4.889-.369,12.821,12.821,0,0,0-4.421.676c-2.776,1.01-5.025,3.379-7.2,5.67-2.308,2.43-4.487,4.725-6.936,5.154A4.975,4.975,0,0,1,330.5,380.295Z" transform="translate(-214.861 -185.785)"/><path class="d" d="M344.37,384.232c-.558-.265-1.145-.557-1.623-.795-3.581-1.783-8.039-4-13.518-4s-9.936,2.219-13.518,4c-.479.238-1.066.531-1.624.8-.463-.467-.952-.982-1.347-1.4-2.711-2.855-6.085-6.408-11.125-8.243a22.829,22.829,0,0,0-7.928-1.294,53.165,53.165,0,0,0-6.034.433c-.65.073-1.281.144-1.854.2-.271-.589-.549-1.229-.774-1.747-1.577-3.631-3.539-8.149-7.675-11.623s-8.942-4.636-12.8-5.563c-.546-.132-1.221-.294-1.845-.459-.054-.639-.1-1.326-.132-1.883-.249-3.962-.558-8.891-3.272-13.583-2.7-4.659-6.794-7.369-10.087-9.546-.473-.313-1.058-.7-1.593-1.07.166-.6.354-1.244.509-1.764,1.128-3.818,2.533-8.57,1.594-13.934-.923-5.273-3.832-9.206-6.169-12.367-.362-.49-.816-1.1-1.214-1.671.4-.567.852-1.181,1.214-1.672,2.337-3.16,5.245-7.093,6.169-12.366.94-5.363-.465-10.116-1.594-13.934-.154-.521-.343-1.161-.509-1.764.536-.371,1.12-.758,1.593-1.07,3.293-2.178,7.392-4.888,10.088-9.547,2.714-4.69,3.023-9.621,3.272-13.581.035-.557.078-1.244.132-1.883.625-.164,1.3-.327,1.846-.458,3.855-.928,8.653-2.083,12.8-5.563s6.1-7.992,7.674-11.623c.225-.518.5-1.158.774-1.747.572.052,1.2.124,1.853.2a53.164,53.164,0,0,0,6.034.433,22.828,22.828,0,0,0,7.929-1.294c5.04-1.835,8.415-5.388,11.125-8.243.4-.416.884-.93,1.347-1.4.558.265,1.145.557,1.623.8,3.581,1.783,8.038,4,13.518,4s9.936-2.22,13.518-4c.478-.238,1.065-.531,1.623-.8.464.467.953.982,1.348,1.4,2.711,2.855,6.085,6.408,11.125,8.243a22.83,22.83,0,0,0,7.928,1.294,53.05,53.05,0,0,0,6.034-.433c.65-.073,1.282-.144,1.855-.2.271.589.549,1.229.774,1.747,1.576,3.631,3.539,8.15,7.674,11.623s8.942,4.636,12.8,5.564c.546.131,1.221.294,1.845.458.053.639.1,1.326.131,1.883.249,3.961.557,8.891,3.272,13.583,2.7,4.659,6.794,7.369,10.087,9.546.474.313,1.058.7,1.594,1.07-.166.6-.354,1.243-.509,1.764-1.128,3.818-2.533,8.57-1.594,13.934.923,5.273,3.832,9.207,6.169,12.367.362.49.816,1.1,1.214,1.672-.4.567-.852,1.181-1.214,1.671-2.337,3.16-5.246,7.093-6.169,12.366-.94,5.364.465,10.116,1.594,13.934.154.521.343,1.16.509,1.764-.536.371-1.12.758-1.594,1.07-3.293,2.177-7.392,4.888-10.087,9.547-2.715,4.691-3.023,9.621-3.272,13.582-.035.557-.078,1.244-.131,1.883-.625.164-1.3.327-1.846.458-3.855.928-8.653,2.083-12.8,5.564s-6.1,7.992-7.674,11.622c-.225.518-.5,1.158-.774,1.747-.572-.052-1.2-.123-1.853-.2a53.269,53.269,0,0,0-6.034-.433,22.837,22.837,0,0,0-7.929,1.294c-5.04,1.835-8.415,5.388-11.125,8.244C345.322,383.251,344.834,383.765,344.37,384.232Z" transform="translate(-229.722 -200.609)"/><path class="e" d="M349.393,385.74c-3.637-1.8-8.479-4.047-14.408-4.047s-10.775,2.247-14.408,4.046c-2.769-2.908-6.513-6.671-12.037-8.683a26.189,26.189,0,0,0-9.1-1.5,51.429,51.429,0,0,0-5.77.382c-1.609-3.69-3.847-8.523-8.369-12.322s-9.682-5.175-13.6-6.126c-.259-4.028-.724-9.34-3.685-14.456-2.949-5.1-7.313-8.134-10.66-10.354,1.138-3.878,2.51-9.02,1.49-14.838-1.024-5.848-4.134-10.215-6.521-13.448,2.4-3.258,5.5-7.617,6.521-13.449s-.353-10.964-1.49-14.838c3.349-2.222,7.713-5.258,10.661-10.355,2.961-5.117,3.426-10.43,3.685-14.455,3.92-.95,9.074-2.324,13.6-6.126s6.759-8.631,8.369-12.322a51.606,51.606,0,0,0,5.77.382,26.18,26.18,0,0,0,9.1-1.5c5.527-2.012,9.272-5.779,12.037-8.683,3.637,1.8,8.479,4.047,14.408,4.047s10.775-2.247,14.408-4.047c2.769,2.908,6.513,6.672,12.037,8.684a26.179,26.179,0,0,0,9.1,1.5,51.4,51.4,0,0,0,5.77-.382c1.609,3.69,3.847,8.523,8.369,12.322s9.682,5.176,13.6,6.126c.26,4.028.724,9.339,3.685,14.456,2.949,5.1,7.313,8.134,10.66,10.354-1.138,3.877-2.509,9.02-1.49,14.838,1.024,5.849,4.134,10.215,6.521,13.449-2.4,3.258-5.5,7.617-6.521,13.448s.353,10.964,1.49,14.839c-3.349,2.222-7.712,5.258-10.661,10.355-2.961,5.117-3.426,10.43-3.685,14.455-3.92.95-9.074,2.323-13.6,6.126s-6.759,8.631-8.368,12.322a51.608,51.608,0,0,0-5.77-.382,26.183,26.183,0,0,0-9.1,1.5C355.9,379.068,352.158,382.836,349.393,385.74Z" transform="translate(-235.478 -206.284)"/><circle class="f" cx="69.612" cy="69.612" r="69.612" transform="translate(29.895 28.497)"/><circle class="g" cx="67.665" cy="67.665" r="67.665" transform="translate(3.814 98.109) rotate(-45)"/><circle class="h" cx="63.771" cy="63.771" r="63.771" transform="translate(35.736 34.338)"/><g transform="translate(41.415 39.791)"><path class="i" d="M541.955,491.631l.542,3.161-2.837-1.487-2.846,1.487.542-3.161L535.06,489.4l3.171-.463,1.428-2.876,1.418,2.876,3.171.463Z" transform="translate(-439.911 -397.721)"/><path class="j" d="M562.784,456.012l.542,3.162-2.837-1.487-2.846,1.487.542-3.162-2.295-2.236,3.171-.463,1.428-2.876,1.418,2.876,3.171.463Z" transform="translate(-451.921 -377.184)"/><path class="k" d="M571.143,414.264l.542,3.162-2.836-1.487L566,417.425l.542-3.162-2.295-2.236,3.171-.463,1.428-2.876,1.418,2.876,3.172.463Z" transform="translate(-456.741 -353.113)"/><path class="l" d="M565.168,371.614l.542,3.162-2.836-1.487-2.846,1.487.542-3.162-2.295-2.236,3.171-.463,1.428-2.876,1.418,2.876,3.172.463Z" transform="translate(-453.296 -328.522)"/><path class="m" d="M546.226,334.671l.542,3.162-2.836-1.487-2.846,1.487.542-3.162-2.295-2.236,3.171-.463,1.428-2.876,1.418,2.876,3.172.463Z" transform="translate(-442.374 -307.221)"/><path class="n" d="M516.787,305.942l.542,3.162-2.836-1.487-2.846,1.487.542-3.162-2.295-2.236,3.171-.463,1.428-2.876,1.418,2.876,3.172.463Z" transform="translate(-425.4 -290.657)"/><path class="o" d="M479.32,287.9l.542,3.162-2.837-1.487-2.846,1.487.542-3.162-2.295-2.236,3.171-.463,1.428-2.876,1.418,2.876,3.171.463Z" transform="translate(-403.798 -280.253)"/><path class="p" d="M436.39,283.008l.542,3.162-2.837-1.487-2.846,1.487.542-3.162-2.295-2.236,3.172-.463,1.428-2.876,1.418,2.876,3.171.463Z" transform="translate(-379.045 -277.434)"/><path class="q" d="M394.906,292.455l.542,3.162-2.836-1.487-2.846,1.487.541-3.162-2.295-2.236,3.172-.463,1.428-2.876,1.418,2.876,3.172.463Z" transform="translate(-355.126 -282.881)"/><path class="r" d="M359.785,314.253l.542,3.162-2.836-1.487-2.846,1.487.542-3.162-2.295-2.236,3.171-.463,1.428-2.876,1.418,2.876,3.171.463Z" transform="translate(-334.876 -295.449)"/><path class="s" d="M333.5,345.931l.542,3.162-2.836-1.487-2.846,1.487.542-3.162L326.6,343.7l3.172-.463,1.428-2.876,1.418,2.876,3.172.463Z" transform="translate(-319.719 -313.714)"/><path class="t" d="M318.51,385.018l.542,3.162-2.837-1.487-2.846,1.487.542-3.162-2.3-2.236,3.172-.463,1.428-2.876,1.418,2.876,3.172.463Z" transform="translate(-311.078 -336.25)"/><path class="u" d="M317.24,428.45l.542,3.162-2.836-1.487-2.846,1.487.542-3.162-2.295-2.236,3.171-.463,1.428-2.876,1.418,2.876,3.172.463Z" transform="translate(-310.346 -361.292)"/><path class="v" d="M330.006,468.574l.542,3.162-2.837-1.487-2.846,1.487.542-3.162-2.3-2.236,3.172-.463L327.711,463l1.418,2.876,3.172.463Z" transform="translate(-317.706 -384.427)"/><path class="w" d="M354.506,501.719l.542,3.161-2.837-1.487-2.846,1.487.542-3.161-2.295-2.236,3.172-.463,1.428-2.876,1.418,2.876,3.171.463Z" transform="translate(-331.832 -403.537)"/><path class="x" d="M388.268,525.414l.542,3.162-2.836-1.487-2.846,1.487.542-3.162-2.295-2.236,3.171-.463,1.428-2.876,1.418,2.876,3.172.463Z" transform="translate(-351.299 -417.199)"/><path class="y" d="M428.822,537.188l.542,3.161-2.837-1.487-2.846,1.487.542-3.161-2.295-2.236,3.171-.463,1.428-2.876,1.418,2.876,3.171.463Z" transform="translate(-374.681 -423.988)"/><path class="z" d="M472.228,534.8l.542,3.162-2.837-1.487-2.846,1.487.542-3.162-2.3-2.236,3.172-.463,1.428-2.876,1.418,2.876,3.172.463Z" transform="translate(-399.709 -422.609)"/><path class="aa" d="M510.913,518.793l.542,3.162-2.836-1.487-2.846,1.487.542-3.162-2.295-2.236,3.172-.463,1.428-2.876,1.418,2.876,3.171.463Z" transform="translate(-422.014 -413.382)"/><path class="i" d="M541.955,491.631l.542,3.161-2.837-1.487-2.846,1.487.542-3.161L535.06,489.4l3.171-.463,1.428-2.876,1.418,2.876,3.171.463Z" transform="translate(-439.911 -397.721)"/></g><g transform="translate(68.503 60.629)"><g transform="translate(5.291 54.359)"><path class="ab" d="M400.955,462.2c-.5.076-.906-.511-1-1.109a2.282,2.282,0,0,1,.9-1.476c.039-.006-.43.794-.291.931,1.309-.2,4.089-2.377,3.851-3.935-.132-.867-.959-1.253-2.153-1.07-5.929.9-14.769,12.537-13.526,17.843.382,1.6,1.642,1.856,3.124,1.63,3.619-.552,9.012-4.7,13.01-9.1.017-.022.243.042.171.091-2.882,3.829-9.392,9.825-13.622,10.372-2.066.276-3.994-.355-4.468-2.687-1.413-6.677,8.559-17.615,15.045-18.606,1.675-.255,2.958.278,3.183,1.76C405.474,458.773,402.841,461.913,400.955,462.2Z" transform="translate(-386.816 -455.027)"/><path class="ab" d="M426.586,468.7c1.839-2.664,4.8-5.48,5.451-5.58.443-.068,1.218.879,1.019,1.126-.442.461-2.767,4.972-2.687,5.885,1.143-.509,3.468-3.6,4.508-4.922.12-.116.24.022.191.088a32.409,32.409,0,0,1-4.4,5.517,2.93,2.93,0,0,1-.611.389.48.48,0,0,1-.288.044,1.639,1.639,0,0,1-1-1.029c-.168-1.1,1.422-4.491,2.285-5.548a17.907,17.907,0,0,0-3.7,3.637c-.166.2-.813,1.129-.813,1.129a6.256,6.256,0,0,0-.941,1.837c-.114.411-.035.676.417.666a.688.688,0,0,1-.65,0,2.154,2.154,0,0,1-.81-.663,3.9,3.9,0,0,1,.246-2.127,55.3,55.3,0,0,1,4.149-9.339,16.9,16.9,0,0,1,1.935-2.935,1.5,1.5,0,0,1,.679-.458c1.078-.164,2,.856,1.6.7-.414-.134-.929.358-1.535,1.3A52.938,52.938,0,0,0,426.586,468.7Z" transform="translate(-408.542 -455.817)"/><path class="ab" d="M451.517,469.553c-3.485.531-6.517,7.633-5.369,7.93,1.146.277,3.428-3.222,4.418-5.383a1.859,1.859,0,0,1-.356-.91,1.892,1.892,0,0,1,.766-.925.607.607,0,0,1,.472.125,1.687,1.687,0,0,0,1.747.738,6.536,6.536,0,0,0,2.085-1.185,3.509,3.509,0,0,1-1.625,1.49,3.832,3.832,0,0,1-1.109.346,1.715,1.715,0,0,1-.59.011c-.129,2.639-3.69,6.02-5.748,6.215a1.565,1.565,0,0,1-1.7-1.3c-.479-3.137,3.258-6.918,6.3-7.382a1.7,1.7,0,0,1,1.224.148c.105.042.047.052-.03.063C451.811,469.547,451.651,469.532,451.517,469.553Z" transform="translate(-420.059 -463.25)"/><path class="ab" d="M463.859,472.021a1.331,1.331,0,0,1-.931-.8c-.17-1.116,1.98-5.739,3.062-6.909a.407.407,0,0,1,.271-.16,1.692,1.692,0,0,1,1.4,1.066c.012.077-.1,0-.256,0-.8.043-2.768,4.835-2.878,5.66,1.127-.488,3.529-3.592,4.529-4.907.121-.117.24.022.192.088-1.4,2.066-3.981,5.67-5.159,5.948A1.035,1.035,0,0,1,463.859,472.021Zm4.953-10.643c.2.165.362.436.285.448a.583.583,0,0,0-.4.081,5.95,5.95,0,0,0-1.253,1.471c-.217.387-.683.045-.755-.3a2.869,2.869,0,0,1,.912-2.149A1.457,1.457,0,0,1,468.812,461.378Z" transform="translate(-430.695 -458.415)"/><path class="ab" d="M475.85,472.664c1.741-.464,4.578-3.555,6.213-5.361.052-.047.2.009.149.075-1.417,1.812-4.6,5.863-6.987,6.227a1.575,1.575,0,0,1-1.587-.978,1.544,1.544,0,0,1-.05-.583,7.392,7.392,0,0,1,1.617-3.734c1.341-1.8,3.132-3.1,4.5-3.306a1.48,1.48,0,0,1,1.241.774c.111.732-.723,1.588-1.285,2.167-.033.044-.135.021-.1-.043.261-.354.818-2,.643-2.107-2.053.353-5.162,5.28-4.956,6.627C475.288,472.729,475.679,472.709,475.85,472.664Z" transform="translate(-436.842 -460.776)"/><path class="ab" d="M490.648,470.017c.016.234.21.342.633.277,1.406-.214,4.519-3.427,6.217-5.341.052-.047.2.029.153.1-1.238,1.568-4.508,5.828-7.068,6.219a1.58,1.58,0,0,1-1.551-1,3.6,3.6,0,0,1,.076-1.311,9.7,9.7,0,0,1,2.147-3.735,7.829,7.829,0,0,1,3.845-2.557c.288-.044,1.241.263,1.324.8.182,1.192-3.091,4.529-5.237,4.916A3.307,3.307,0,0,0,490.648,470.017Zm.729-2.062c1.645-.448,4.364-4.054,4.368-4.8A11.661,11.661,0,0,0,491.377,467.955Z" transform="translate(-445.733 -459.426)"/></g><g transform="translate(0 19.469)"><path class="ac" d="M381.769,373.473q3.858,0,5.587,1.795t1.728,5.43v1.122a9.144,9.144,0,0,1-.763,3.994,4.849,4.849,0,0,1-2.423,2.333,4.936,4.936,0,0,1,2.849,2.491,9.751,9.751,0,0,1,.83,4.241v2.558a6.664,6.664,0,0,1-7.494,7.449H374.32V373.473Zm-2.513,4.487v8.3h1.93a3.106,3.106,0,0,0,2.176-.718,3.448,3.448,0,0,0,.785-2.6v-1.75a3.986,3.986,0,0,0-.606-2.468,2.287,2.287,0,0,0-1.907-.763Zm0,12.789V400.4h2.827a2.536,2.536,0,0,0,1.907-.673,3.487,3.487,0,0,0,.65-2.423v-2.737a4.536,4.536,0,0,0-.74-3.006,3.19,3.19,0,0,0-2.446-.808Z" transform="translate(-374.32 -373.114)"/><path class="ad" d="M422.282,386.711h6.776V391.2h-6.776v9.2h8.526v4.487H417.346V373.473h13.462v4.487h-8.526Z" transform="translate(-399.128 -373.114)"/><path class="ae" d="M454.678,380.524a8.531,8.531,0,0,1,1.817-5.856,8.3,8.3,0,0,1,10.9,0,8.531,8.531,0,0,1,1.817,5.856v1.211h-4.667v-1.526a3.5,3.5,0,0,0-.651-2.4,2.721,2.721,0,0,0-3.634,0,3.492,3.492,0,0,0-.651,2.4,5.557,5.557,0,0,0,.718,2.85,11.816,11.816,0,0,0,1.795,2.333q1.077,1.1,2.311,2.2a22,22,0,0,1,2.311,2.4,12.268,12.268,0,0,1,1.795,2.962,9.8,9.8,0,0,1,.718,3.9,8.393,8.393,0,0,1-1.862,5.855,8.422,8.422,0,0,1-10.994,0,8.391,8.391,0,0,1-1.862-5.855V394.7h4.667v2.468a3.246,3.246,0,0,0,.7,2.378,2.912,2.912,0,0,0,3.724,0,3.25,3.25,0,0,0,.7-2.378,5.565,5.565,0,0,0-.718-2.85,11.889,11.889,0,0,0-1.795-2.333q-1.077-1.1-2.311-2.2a21.894,21.894,0,0,1-2.311-2.4,12.224,12.224,0,0,1-1.795-2.961A9.773,9.773,0,0,1,454.678,380.524Z" transform="translate(-420.575 -372.626)"/><path class="af" d="M492.8,373.473h15.257v4.487H502.9v26.924H497.96V377.96H492.8Z" transform="translate(-442.633 -373.114)"/></g><g transform="translate(16.717)"><g transform="translate(12.599 1.833)"><path class="ab" d="M445.644,343.279c1.84-2.665,4.8-5.481,5.453-5.581.443-.067,1.218.878,1.019,1.125-.442.462-2.768,4.974-2.687,5.887,1.144-.509,3.469-3.6,4.508-4.924.121-.117.241.022.191.089a32.446,32.446,0,0,1-4.4,5.518,2.962,2.962,0,0,1-.61.389.5.5,0,0,1-.289.044,1.647,1.647,0,0,1-1.005-1.029c-.167-1.1,1.423-4.492,2.286-5.55a17.9,17.9,0,0,0-3.7,3.638c-.166.2-.813,1.128-.813,1.128a6.269,6.269,0,0,0-.94,1.839c-.114.411-.035.675.417.666a.69.69,0,0,1-.65,0,2.149,2.149,0,0,1-.81-.664,3.908,3.908,0,0,1,.246-2.126,55.37,55.37,0,0,1,4.15-9.342,16.85,16.85,0,0,1,1.935-2.935,1.507,1.507,0,0,1,.679-.458c1.078-.165,2,.857,1.6.7-.415-.133-.93.359-1.535,1.3A52.961,52.961,0,0,0,445.644,343.279Z" transform="translate(-443.555 -330.975)"/><path class="ab" d="M464.749,351.463c.016.234.21.342.633.278,1.405-.215,4.52-3.428,6.218-5.342.051-.047.2.028.152.094-1.238,1.568-4.509,5.831-7.069,6.221a1.581,1.581,0,0,1-1.552-1,3.643,3.643,0,0,1,.075-1.312,9.72,9.72,0,0,1,2.148-3.737A7.831,7.831,0,0,1,469.2,344.1c.289-.044,1.243.264,1.324.8.182,1.193-3.091,4.53-5.238,4.917A3.3,3.3,0,0,0,464.749,351.463Zm.729-2.062c1.646-.448,4.366-4.056,4.369-4.8A11.67,11.67,0,0,0,465.478,349.4Z" transform="translate(-454.824 -338.543)"/></g><path class="ab" d="M437.461,334.286c-.346.053-.74.447-1.215,1.072a24.954,24.954,0,0,0-1.805,2.758,60.551,60.551,0,0,0-4.83,11.421h1.364a84.383,84.383,0,0,1,5.8-11.994c.884-1.435,1.625-2.258,2.068-2.325a.577.577,0,0,1,.5.161A1.81,1.81,0,0,0,437.461,334.286Z" transform="translate(-422.916 -331.042)"/><path class="ab" d="M417.623,338.757a.112.112,0,0,0,.073-.031c-.166-.053-2.347-.409-2.382-1.665-.087-2.627,6.381-7.89,16.315-9.406.365-.056.751-.115,1.12-.151a32.514,32.514,0,0,1,8.795.055c.223.045.36-.094.07-.187a26.216,26.216,0,0,0-9.811-.512c-.427.045-.831.107-1.254.172-8.838,1.349-17.246,5.765-16.726,9.942C414.043,338.673,416.33,338.935,417.623,338.757Z" transform="translate(-413.801 -326.646)"/></g></g></g><g transform="translate(193 3485)"><path class="b" d="M411.549,281.567c0,5.692-7.277,10.68-8.226,16.1-.976,5.575,4.143,12.742,2.25,17.942-1.927,5.292-10.473,7.487-13.257,12.3-2.809,4.856-.459,13.352-4.046,17.623s-12.376,3.434-16.659,7.032-4.95,12.383-9.806,15.193c-4.811,2.784-12.766-1.006-18.058.921-5.2,1.893-8.85,9.925-14.425,10.9-5.421.949-11.587-5.338-17.28-5.338s-11.859,6.287-17.28,5.338c-5.574-.976-9.226-9.009-14.425-10.9-5.292-1.927-13.247,1.863-18.058-.921-4.856-2.81-5.535-11.606-9.806-15.193s-13.061-2.749-16.659-7.032-1.236-12.767-4.046-17.623c-2.784-4.811-11.33-7.006-13.256-12.3-1.893-5.2,3.226-12.367,2.25-17.942-.949-5.421-8.226-10.408-8.226-16.1s7.277-10.68,8.226-16.1c.977-5.574-4.142-12.742-2.25-17.942,1.927-5.292,10.473-7.487,13.256-12.3,2.81-4.856.459-13.353,4.047-17.623s12.376-3.434,16.659-7.032,4.95-12.383,9.806-15.193c4.811-2.784,12.766,1.006,18.058-.921,5.2-1.893,8.85-9.925,14.425-10.9,5.421-.95,11.587,5.337,17.28,5.337s11.859-6.287,17.279-5.337c5.575.976,9.226,9.009,14.426,10.9,5.292,1.927,13.247-1.863,18.058.921,4.856,2.81,5.535,11.606,9.806,15.193s13.061,2.749,16.659,7.032,1.236,12.767,4.046,17.623c2.784,4.811,11.33,7.006,13.256,12.3,1.893,5.2-3.226,12.367-2.25,17.941C404.272,270.887,411.549,275.875,411.549,281.567Z" transform="translate(-212.535 -183.458)"/><path class="c" d="M330.5,380.295c-2.145,0-4.589-1.218-7.179-2.507-2.891-1.44-5.88-2.928-8.949-2.928s-6.058,1.489-8.949,2.928c-2.589,1.289-5.034,2.507-7.178,2.507a4.9,4.9,0,0,1-.857-.072c-2.448-.429-4.628-2.725-6.936-5.155-2.176-2.291-4.425-4.659-7.2-5.67a12.822,12.822,0,0,0-4.421-.675,44.37,44.37,0,0,0-4.89.369,41.248,41.248,0,0,1-4.479.345,7.84,7.84,0,0,1-4-.833c-2.118-1.225-3.371-4.111-4.7-7.165-1.267-2.919-2.578-5.936-4.866-7.857s-5.5-2.7-8.6-3.447c-3.23-.777-6.281-1.512-7.846-3.376s-1.754-4.979-1.961-8.288c-.2-3.189-.406-6.486-1.914-9.091-1.488-2.572-4.223-4.38-6.868-6.129-2.786-1.842-5.419-3.582-6.262-5.9-.817-2.245.066-5.231,1-8.391.91-3.08,1.852-6.265,1.327-9.261-.506-2.891-2.442-5.509-4.314-8.04-2-2.7-3.887-5.256-3.887-7.766s1.888-5.063,3.887-7.766c1.872-2.532,3.808-5.149,4.314-8.04.525-3-.417-6.181-1.327-9.261-.935-3.161-1.817-6.147-1-8.392.843-2.316,3.475-4.056,6.261-5.9,2.646-1.749,5.38-3.557,6.869-6.13,1.507-2.6,1.714-5.9,1.914-9.09.208-3.309.4-6.434,1.962-8.289s4.617-2.6,7.847-3.376c3.1-.746,6.307-1.518,8.6-3.447s3.6-4.939,4.866-7.857c1.326-3.054,2.58-5.94,4.7-7.165a7.832,7.832,0,0,1,4-.834,41.151,41.151,0,0,1,4.479.346,44.487,44.487,0,0,0,4.89.369,12.825,12.825,0,0,0,4.422-.676c2.775-1.01,5.024-3.379,7.2-5.67,2.307-2.43,4.487-4.725,6.936-5.154a4.973,4.973,0,0,1,.857-.072c2.145,0,4.589,1.218,7.179,2.507,2.891,1.44,5.88,2.928,8.949,2.928s6.058-1.488,8.949-2.928c2.59-1.289,5.034-2.507,7.179-2.507a4.9,4.9,0,0,1,.857.072c2.448.429,4.628,2.724,6.936,5.154,2.176,2.291,4.425,4.659,7.2,5.67a12.823,12.823,0,0,0,4.421.675,44.461,44.461,0,0,0,4.889-.369,41.155,41.155,0,0,1,4.48-.346,7.836,7.836,0,0,1,4,.834c2.118,1.225,3.371,4.111,4.7,7.165,1.267,2.919,2.578,5.936,4.865,7.857s5.5,2.7,8.6,3.447c3.229.777,6.281,1.512,7.846,3.376s1.754,4.98,1.961,8.289c.2,3.189.407,6.486,1.914,9.091,1.488,2.572,4.223,4.38,6.868,6.129,2.786,1.842,5.419,3.582,6.261,5.9.818,2.245-.065,5.231-1,8.391-.91,3.08-1.852,6.265-1.327,9.26.506,2.892,2.442,5.509,4.314,8.041,2,2.7,3.887,5.256,3.887,7.766s-1.888,5.063-3.887,7.766c-1.872,2.532-3.808,5.149-4.314,8.04-.525,3,.417,6.181,1.327,9.261.935,3.161,1.817,6.147,1,8.392-.843,2.315-3.475,4.055-6.261,5.9-2.646,1.749-5.38,3.558-6.869,6.13-1.507,2.6-1.714,5.9-1.914,9.091-.207,3.309-.4,6.434-1.961,8.289s-4.617,2.6-7.847,3.376c-3.1.746-6.307,1.518-8.6,3.447s-3.6,4.939-4.866,7.857c-1.326,3.055-2.579,5.94-4.7,7.166a7.834,7.834,0,0,1-4,.833,41.161,41.161,0,0,1-4.479-.346,44.468,44.468,0,0,0-4.889-.369,12.821,12.821,0,0,0-4.421.676c-2.776,1.01-5.025,3.379-7.2,5.67-2.308,2.43-4.487,4.725-6.936,5.154A4.975,4.975,0,0,1,330.5,380.295Z" transform="translate(-214.861 -185.785)"/><path class="d" d="M344.37,384.232c-.558-.265-1.145-.557-1.623-.795-3.581-1.783-8.039-4-13.518-4s-9.936,2.219-13.518,4c-.479.238-1.066.531-1.624.8-.463-.467-.952-.982-1.347-1.4-2.711-2.855-6.085-6.408-11.125-8.243a22.829,22.829,0,0,0-7.928-1.294,53.165,53.165,0,0,0-6.034.433c-.65.073-1.281.144-1.854.2-.271-.589-.549-1.229-.774-1.747-1.577-3.631-3.539-8.149-7.675-11.623s-8.942-4.636-12.8-5.563c-.546-.132-1.221-.294-1.845-.459-.054-.639-.1-1.326-.132-1.883-.249-3.962-.558-8.891-3.272-13.583-2.7-4.659-6.794-7.369-10.087-9.546-.473-.313-1.058-.7-1.593-1.07.166-.6.354-1.244.509-1.764,1.128-3.818,2.533-8.57,1.594-13.934-.923-5.273-3.832-9.206-6.169-12.367-.362-.49-.816-1.1-1.214-1.671.4-.567.852-1.181,1.214-1.672,2.337-3.16,5.245-7.093,6.169-12.366.94-5.363-.465-10.116-1.594-13.934-.154-.521-.343-1.161-.509-1.764.536-.371,1.12-.758,1.593-1.07,3.293-2.178,7.392-4.888,10.088-9.547,2.714-4.69,3.023-9.621,3.272-13.581.035-.557.078-1.244.132-1.883.625-.164,1.3-.327,1.846-.458,3.855-.928,8.653-2.083,12.8-5.563s6.1-7.992,7.674-11.623c.225-.518.5-1.158.774-1.747.572.052,1.2.124,1.853.2a53.164,53.164,0,0,0,6.034.433,22.828,22.828,0,0,0,7.929-1.294c5.04-1.835,8.415-5.388,11.125-8.243.4-.416.884-.93,1.347-1.4.558.265,1.145.557,1.623.8,3.581,1.783,8.038,4,13.518,4s9.936-2.22,13.518-4c.478-.238,1.065-.531,1.623-.8.464.467.953.982,1.348,1.4,2.711,2.855,6.085,6.408,11.125,8.243a22.83,22.83,0,0,0,7.928,1.294,53.05,53.05,0,0,0,6.034-.433c.65-.073,1.282-.144,1.855-.2.271.589.549,1.229.774,1.747,1.576,3.631,3.539,8.15,7.674,11.623s8.942,4.636,12.8,5.564c.546.131,1.221.294,1.845.458.053.639.1,1.326.131,1.883.249,3.961.557,8.891,3.272,13.583,2.7,4.659,6.794,7.369,10.087,9.546.474.313,1.058.7,1.594,1.07-.166.6-.354,1.243-.509,1.764-1.128,3.818-2.533,8.57-1.594,13.934.923,5.273,3.832,9.207,6.169,12.367.362.49.816,1.1,1.214,1.672-.4.567-.852,1.181-1.214,1.671-2.337,3.16-5.246,7.093-6.169,12.366-.94,5.364.465,10.116,1.594,13.934.154.521.343,1.16.509,1.764-.536.371-1.12.758-1.594,1.07-3.293,2.177-7.392,4.888-10.087,9.547-2.715,4.691-3.023,9.621-3.272,13.582-.035.557-.078,1.244-.131,1.883-.625.164-1.3.327-1.846.458-3.855.928-8.653,2.083-12.8,5.564s-6.1,7.992-7.674,11.622c-.225.518-.5,1.158-.774,1.747-.572-.052-1.2-.123-1.853-.2a53.269,53.269,0,0,0-6.034-.433,22.837,22.837,0,0,0-7.929,1.294c-5.04,1.835-8.415,5.388-11.125,8.244C345.322,383.251,344.834,383.765,344.37,384.232Z" transform="translate(-229.722 -200.609)"/><path class="e" d="M349.393,385.74c-3.637-1.8-8.479-4.047-14.408-4.047s-10.775,2.247-14.408,4.046c-2.769-2.908-6.513-6.671-12.037-8.683a26.189,26.189,0,0,0-9.1-1.5,51.429,51.429,0,0,0-5.77.382c-1.609-3.69-3.847-8.523-8.369-12.322s-9.682-5.175-13.6-6.126c-.259-4.028-.724-9.34-3.685-14.456-2.949-5.1-7.313-8.134-10.66-10.354,1.138-3.878,2.51-9.02,1.49-14.838-1.024-5.848-4.134-10.215-6.521-13.448,2.4-3.258,5.5-7.617,6.521-13.449s-.353-10.964-1.49-14.838c3.349-2.222,7.713-5.258,10.661-10.355,2.961-5.117,3.426-10.43,3.685-14.455,3.92-.95,9.074-2.324,13.6-6.126s6.759-8.631,8.369-12.322a51.606,51.606,0,0,0,5.77.382,26.18,26.18,0,0,0,9.1-1.5c5.527-2.012,9.272-5.779,12.037-8.683,3.637,1.8,8.479,4.047,14.408,4.047s10.775-2.247,14.408-4.047c2.769,2.908,6.513,6.672,12.037,8.684a26.179,26.179,0,0,0,9.1,1.5,51.4,51.4,0,0,0,5.77-.382c1.609,3.69,3.847,8.523,8.369,12.322s9.682,5.176,13.6,6.126c.26,4.028.724,9.339,3.685,14.456,2.949,5.1,7.313,8.134,10.66,10.354-1.138,3.877-2.509,9.02-1.49,14.838,1.024,5.849,4.134,10.215,6.521,13.449-2.4,3.258-5.5,7.617-6.521,13.448s.353,10.964,1.49,14.839c-3.349,2.222-7.712,5.258-10.661,10.355-2.961,5.117-3.426,10.43-3.685,14.455-3.92.95-9.074,2.323-13.6,6.126s-6.759,8.631-8.368,12.322a51.608,51.608,0,0,0-5.77-.382,26.183,26.183,0,0,0-9.1,1.5C355.9,379.068,352.158,382.836,349.393,385.74Z" transform="translate(-235.478 -206.284)"/><circle class="f" cx="69.612" cy="69.612" r="69.612" transform="translate(29.895 28.497)"/><circle class="g" cx="67.665" cy="67.665" r="67.665" transform="translate(3.814 98.109) rotate(-45)"/><circle class="h" cx="63.771" cy="63.771" r="63.771" transform="translate(35.736 34.338)"/><g transform="translate(41.415 39.791)"><path class="i" d="M541.955,491.631l.542,3.161-2.837-1.487-2.846,1.487.542-3.161L535.06,489.4l3.171-.463,1.428-2.876,1.418,2.876,3.171.463Z" transform="translate(-439.911 -397.721)"/><path class="j" d="M562.784,456.012l.542,3.162-2.837-1.487-2.846,1.487.542-3.162-2.295-2.236,3.171-.463,1.428-2.876,1.418,2.876,3.171.463Z" transform="translate(-451.921 -377.184)"/><path class="k" d="M571.143,414.264l.542,3.162-2.836-1.487L566,417.425l.542-3.162-2.295-2.236,3.171-.463,1.428-2.876,1.418,2.876,3.172.463Z" transform="translate(-456.741 -353.113)"/><path class="l" d="M565.168,371.614l.542,3.162-2.836-1.487-2.846,1.487.542-3.162-2.295-2.236,3.171-.463,1.428-2.876,1.418,2.876,3.172.463Z" transform="translate(-453.296 -328.522)"/><path class="m" d="M546.226,334.671l.542,3.162-2.836-1.487-2.846,1.487.542-3.162-2.295-2.236,3.171-.463,1.428-2.876,1.418,2.876,3.172.463Z" transform="translate(-442.374 -307.221)"/><path class="n" d="M516.787,305.942l.542,3.162-2.836-1.487-2.846,1.487.542-3.162-2.295-2.236,3.171-.463,1.428-2.876,1.418,2.876,3.172.463Z" transform="translate(-425.4 -290.657)"/><path class="o" d="M479.32,287.9l.542,3.162-2.837-1.487-2.846,1.487.542-3.162-2.295-2.236,3.171-.463,1.428-2.876,1.418,2.876,3.171.463Z" transform="translate(-403.798 -280.253)"/><path class="p" d="M436.39,283.008l.542,3.162-2.837-1.487-2.846,1.487.542-3.162-2.295-2.236,3.172-.463,1.428-2.876,1.418,2.876,3.171.463Z" transform="translate(-379.045 -277.434)"/><path class="q" d="M394.906,292.455l.542,3.162-2.836-1.487-2.846,1.487.541-3.162-2.295-2.236,3.172-.463,1.428-2.876,1.418,2.876,3.172.463Z" transform="translate(-355.126 -282.881)"/><path class="r" d="M359.785,314.253l.542,3.162-2.836-1.487-2.846,1.487.542-3.162-2.295-2.236,3.171-.463,1.428-2.876,1.418,2.876,3.171.463Z" transform="translate(-334.876 -295.449)"/><path class="s" d="M333.5,345.931l.542,3.162-2.836-1.487-2.846,1.487.542-3.162L326.6,343.7l3.172-.463,1.428-2.876,1.418,2.876,3.172.463Z" transform="translate(-319.719 -313.714)"/><path class="t" d="M318.51,385.018l.542,3.162-2.837-1.487-2.846,1.487.542-3.162-2.3-2.236,3.172-.463,1.428-2.876,1.418,2.876,3.172.463Z" transform="translate(-311.078 -336.25)"/><path class="u" d="M317.24,428.45l.542,3.162-2.836-1.487-2.846,1.487.542-3.162-2.295-2.236,3.171-.463,1.428-2.876,1.418,2.876,3.172.463Z" transform="translate(-310.346 -361.292)"/><path class="v" d="M330.006,468.574l.542,3.162-2.837-1.487-2.846,1.487.542-3.162-2.3-2.236,3.172-.463L327.711,463l1.418,2.876,3.172.463Z" transform="translate(-317.706 -384.427)"/><path class="w" d="M354.506,501.719l.542,3.161-2.837-1.487-2.846,1.487.542-3.161-2.295-2.236,3.172-.463,1.428-2.876,1.418,2.876,3.171.463Z" transform="translate(-331.832 -403.537)"/><path class="x" d="M388.268,525.414l.542,3.162-2.836-1.487-2.846,1.487.542-3.162-2.295-2.236,3.171-.463,1.428-2.876,1.418,2.876,3.172.463Z" transform="translate(-351.299 -417.199)"/><path class="y" d="M428.822,537.188l.542,3.161-2.837-1.487-2.846,1.487.542-3.161-2.295-2.236,3.171-.463,1.428-2.876,1.418,2.876,3.171.463Z" transform="translate(-374.681 -423.988)"/><path class="z" d="M472.228,534.8l.542,3.162-2.837-1.487-2.846,1.487.542-3.162-2.3-2.236,3.172-.463,1.428-2.876,1.418,2.876,3.172.463Z" transform="translate(-399.709 -422.609)"/><path class="aa" d="M510.913,518.793l.542,3.162-2.836-1.487-2.846,1.487.542-3.162-2.295-2.236,3.172-.463,1.428-2.876,1.418,2.876,3.171.463Z" transform="translate(-422.014 -413.382)"/><path class="i" d="M541.955,491.631l.542,3.161-2.837-1.487-2.846,1.487.542-3.161L535.06,489.4l3.171-.463,1.428-2.876,1.418,2.876,3.171.463Z" transform="translate(-439.911 -397.721)"/></g><g transform="translate(68.503 60.629)"><g transform="translate(5.291 54.359)"><path class="ab" d="M400.955,462.2c-.5.076-.906-.511-1-1.109a2.282,2.282,0,0,1,.9-1.476c.039-.006-.43.794-.291.931,1.309-.2,4.089-2.377,3.851-3.935-.132-.867-.959-1.253-2.153-1.07-5.929.9-14.769,12.537-13.526,17.843.382,1.6,1.642,1.856,3.124,1.63,3.619-.552,9.012-4.7,13.01-9.1.017-.022.243.042.171.091-2.882,3.829-9.392,9.825-13.622,10.372-2.066.276-3.994-.355-4.468-2.687-1.413-6.677,8.559-17.615,15.045-18.606,1.675-.255,2.958.278,3.183,1.76C405.474,458.773,402.841,461.913,400.955,462.2Z" transform="translate(-386.816 -455.027)"/><path class="ab" d="M426.586,468.7c1.839-2.664,4.8-5.48,5.451-5.58.443-.068,1.218.879,1.019,1.126-.442.461-2.767,4.972-2.687,5.885,1.143-.509,3.468-3.6,4.508-4.922.12-.116.24.022.191.088a32.409,32.409,0,0,1-4.4,5.517,2.93,2.93,0,0,1-.611.389.48.48,0,0,1-.288.044,1.639,1.639,0,0,1-1-1.029c-.168-1.1,1.422-4.491,2.285-5.548a17.907,17.907,0,0,0-3.7,3.637c-.166.2-.813,1.129-.813,1.129a6.256,6.256,0,0,0-.941,1.837c-.114.411-.035.676.417.666a.688.688,0,0,1-.65,0,2.154,2.154,0,0,1-.81-.663,3.9,3.9,0,0,1,.246-2.127,55.3,55.3,0,0,1,4.149-9.339,16.9,16.9,0,0,1,1.935-2.935,1.5,1.5,0,0,1,.679-.458c1.078-.164,2,.856,1.6.7-.414-.134-.929.358-1.535,1.3A52.938,52.938,0,0,0,426.586,468.7Z" transform="translate(-408.542 -455.817)"/><path class="ab" d="M451.517,469.553c-3.485.531-6.517,7.633-5.369,7.93,1.146.277,3.428-3.222,4.418-5.383a1.859,1.859,0,0,1-.356-.91,1.892,1.892,0,0,1,.766-.925.607.607,0,0,1,.472.125,1.687,1.687,0,0,0,1.747.738,6.536,6.536,0,0,0,2.085-1.185,3.509,3.509,0,0,1-1.625,1.49,3.832,3.832,0,0,1-1.109.346,1.715,1.715,0,0,1-.59.011c-.129,2.639-3.69,6.02-5.748,6.215a1.565,1.565,0,0,1-1.7-1.3c-.479-3.137,3.258-6.918,6.3-7.382a1.7,1.7,0,0,1,1.224.148c.105.042.047.052-.03.063C451.811,469.547,451.651,469.532,451.517,469.553Z" transform="translate(-420.059 -463.25)"/><path class="ab" d="M463.859,472.021a1.331,1.331,0,0,1-.931-.8c-.17-1.116,1.98-5.739,3.062-6.909a.407.407,0,0,1,.271-.16,1.692,1.692,0,0,1,1.4,1.066c.012.077-.1,0-.256,0-.8.043-2.768,4.835-2.878,5.66,1.127-.488,3.529-3.592,4.529-4.907.121-.117.24.022.192.088-1.4,2.066-3.981,5.67-5.159,5.948A1.035,1.035,0,0,1,463.859,472.021Zm4.953-10.643c.2.165.362.436.285.448a.583.583,0,0,0-.4.081,5.95,5.95,0,0,0-1.253,1.471c-.217.387-.683.045-.755-.3a2.869,2.869,0,0,1,.912-2.149A1.457,1.457,0,0,1,468.812,461.378Z" transform="translate(-430.695 -458.415)"/><path class="ab" d="M475.85,472.664c1.741-.464,4.578-3.555,6.213-5.361.052-.047.2.009.149.075-1.417,1.812-4.6,5.863-6.987,6.227a1.575,1.575,0,0,1-1.587-.978,1.544,1.544,0,0,1-.05-.583,7.392,7.392,0,0,1,1.617-3.734c1.341-1.8,3.132-3.1,4.5-3.306a1.48,1.48,0,0,1,1.241.774c.111.732-.723,1.588-1.285,2.167-.033.044-.135.021-.1-.043.261-.354.818-2,.643-2.107-2.053.353-5.162,5.28-4.956,6.627C475.288,472.729,475.679,472.709,475.85,472.664Z" transform="translate(-436.842 -460.776)"/><path class="ab" d="M490.648,470.017c.016.234.21.342.633.277,1.406-.214,4.519-3.427,6.217-5.341.052-.047.2.029.153.1-1.238,1.568-4.508,5.828-7.068,6.219a1.58,1.58,0,0,1-1.551-1,3.6,3.6,0,0,1,.076-1.311,9.7,9.7,0,0,1,2.147-3.735,7.829,7.829,0,0,1,3.845-2.557c.288-.044,1.241.263,1.324.8.182,1.192-3.091,4.529-5.237,4.916A3.307,3.307,0,0,0,490.648,470.017Zm.729-2.062c1.645-.448,4.364-4.054,4.368-4.8A11.661,11.661,0,0,0,491.377,467.955Z" transform="translate(-445.733 -459.426)"/></g><g transform="translate(0 19.469)"><path class="ac" d="M381.769,373.473q3.858,0,5.587,1.795t1.728,5.43v1.122a9.144,9.144,0,0,1-.763,3.994,4.849,4.849,0,0,1-2.423,2.333,4.936,4.936,0,0,1,2.849,2.491,9.751,9.751,0,0,1,.83,4.241v2.558a6.664,6.664,0,0,1-7.494,7.449H374.32V373.473Zm-2.513,4.487v8.3h1.93a3.106,3.106,0,0,0,2.176-.718,3.448,3.448,0,0,0,.785-2.6v-1.75a3.986,3.986,0,0,0-.606-2.468,2.287,2.287,0,0,0-1.907-.763Zm0,12.789V400.4h2.827a2.536,2.536,0,0,0,1.907-.673,3.487,3.487,0,0,0,.65-2.423v-2.737a4.536,4.536,0,0,0-.74-3.006,3.19,3.19,0,0,0-2.446-.808Z" transform="translate(-374.32 -373.114)"/><path class="ad" d="M422.282,386.711h6.776V391.2h-6.776v9.2h8.526v4.487H417.346V373.473h13.462v4.487h-8.526Z" transform="translate(-399.128 -373.114)"/><path class="ae" d="M454.678,380.524a8.531,8.531,0,0,1,1.817-5.856,8.3,8.3,0,0,1,10.9,0,8.531,8.531,0,0,1,1.817,5.856v1.211h-4.667v-1.526a3.5,3.5,0,0,0-.651-2.4,2.721,2.721,0,0,0-3.634,0,3.492,3.492,0,0,0-.651,2.4,5.557,5.557,0,0,0,.718,2.85,11.816,11.816,0,0,0,1.795,2.333q1.077,1.1,2.311,2.2a22,22,0,0,1,2.311,2.4,12.268,12.268,0,0,1,1.795,2.962,9.8,9.8,0,0,1,.718,3.9,8.393,8.393,0,0,1-1.862,5.855,8.422,8.422,0,0,1-10.994,0,8.391,8.391,0,0,1-1.862-5.855V394.7h4.667v2.468a3.246,3.246,0,0,0,.7,2.378,2.912,2.912,0,0,0,3.724,0,3.25,3.25,0,0,0,.7-2.378,5.565,5.565,0,0,0-.718-2.85,11.889,11.889,0,0,0-1.795-2.333q-1.077-1.1-2.311-2.2a21.894,21.894,0,0,1-2.311-2.4,12.224,12.224,0,0,1-1.795-2.961A9.773,9.773,0,0,1,454.678,380.524Z" transform="translate(-420.575 -372.626)"/><path class="af" d="M492.8,373.473h15.257v4.487H502.9v26.924H497.96V377.96H492.8Z" transform="translate(-442.633 -373.114)"/></g><g transform="translate(16.717)"><g transform="translate(12.599 1.833)"><path class="ab" d="M445.644,343.279c1.84-2.665,4.8-5.481,5.453-5.581.443-.067,1.218.878,1.019,1.125-.442.462-2.768,4.974-2.687,5.887,1.144-.509,3.469-3.6,4.508-4.924.121-.117.241.022.191.089a32.446,32.446,0,0,1-4.4,5.518,2.962,2.962,0,0,1-.61.389.5.5,0,0,1-.289.044,1.647,1.647,0,0,1-1.005-1.029c-.167-1.1,1.423-4.492,2.286-5.55a17.9,17.9,0,0,0-3.7,3.638c-.166.2-.813,1.128-.813,1.128a6.269,6.269,0,0,0-.94,1.839c-.114.411-.035.675.417.666a.69.69,0,0,1-.65,0,2.149,2.149,0,0,1-.81-.664,3.908,3.908,0,0,1,.246-2.126,55.37,55.37,0,0,1,4.15-9.342,16.85,16.85,0,0,1,1.935-2.935,1.507,1.507,0,0,1,.679-.458c1.078-.165,2,.857,1.6.7-.415-.133-.93.359-1.535,1.3A52.961,52.961,0,0,0,445.644,343.279Z" transform="translate(-443.555 -330.975)"/><path class="ab" d="M464.749,351.463c.016.234.21.342.633.278,1.405-.215,4.52-3.428,6.218-5.342.051-.047.2.028.152.094-1.238,1.568-4.509,5.831-7.069,6.221a1.581,1.581,0,0,1-1.552-1,3.643,3.643,0,0,1,.075-1.312,9.72,9.72,0,0,1,2.148-3.737A7.831,7.831,0,0,1,469.2,344.1c.289-.044,1.243.264,1.324.8.182,1.193-3.091,4.53-5.238,4.917A3.3,3.3,0,0,0,464.749,351.463Zm.729-2.062c1.646-.448,4.366-4.056,4.369-4.8A11.67,11.67,0,0,0,465.478,349.4Z" transform="translate(-454.824 -338.543)"/></g><path class="ab" d="M437.461,334.286c-.346.053-.74.447-1.215,1.072a24.954,24.954,0,0,0-1.805,2.758,60.551,60.551,0,0,0-4.83,11.421h1.364a84.383,84.383,0,0,1,5.8-11.994c.884-1.435,1.625-2.258,2.068-2.325a.577.577,0,0,1,.5.161A1.81,1.81,0,0,0,437.461,334.286Z" transform="translate(-422.916 -331.042)"/><path class="ab" d="M417.623,338.757a.112.112,0,0,0,.073-.031c-.166-.053-2.347-.409-2.382-1.665-.087-2.627,6.381-7.89,16.315-9.406.365-.056.751-.115,1.12-.151a32.514,32.514,0,0,1,8.795.055c.223.045.36-.094.07-.187a26.216,26.216,0,0,0-9.811-.512c-.427.045-.831.107-1.254.172-8.838,1.349-17.246,5.765-16.726,9.942C414.043,338.673,416.33,338.935,417.623,338.757Z" transform="translate(-413.801 -326.646)"/></g></g></g><text class="ag" transform="translate(626 3752)"><tspan x="0" y="0">2020-2017</tspan></text><text class="ag" transform="translate(1034 3752)"><tspan x="0" y="0">2013</tspan></text><text class="ag" transform="translate(270 3752)"><tspan x="0" y="0">2020</tspan></text><text class="ah" transform="translate(293 3781)"><tspan x="-102.586" y="0">Best work environment award</tspan></text><text class="ah" transform="translate(1057 3781)"><tspan x="-96.824" y="0">Startup Development Award</tspan></text><text class="ai" transform="translate(675 3781)"><tspan x="-147.171" y="0">Best Renewable Energy and Environmental</tspan><tspan x="-104.311" y="20" xml:space="preserve"> Preservation Company Award</tspan></text></g></g></svg>