<svg xmlns="http://www.w3.org/2000/svg" width="1366" height="224" viewBox="0 0 1366 224"><defs><style>.a,.c,.h{fill:#fff;}.a,.c,.f,.h,.i{font-size:12px;}.a,.c{font-family:Roboto-Light, Roboto;font-weight:300;}.a,.f,.h,.i{letter-spacing:0.015em;}.b{font-family:ZapfDingbatsITC, '\.Apple Symbols Fallback';font-weight:400;}.c{letter-spacing:0.022em;}.d{fill:#707070;font-size:10px;font-family:Roboto-Regular, Roboto;}.e{fill:#3e3e3e;}.f{fill:#b8bbcc;}.f,.h,.i{font-family:Montserrat-Medium, Montserrat;font-weight:500;}.g{stroke:#fff;}.i{fill:#8b8b8b;}.j{fill:#b2b2b2;}.k{stroke:none;}.l{fill:none;}</style></defs><g transform="translate(0 -2676)"><g transform="translate(0 -3151)"><g transform="translate(0 -791.069)"><rect width="1366" height="224" transform="translate(0 6618.069)"/><text class="a" transform="translate(1159 6828.069)"><tspan x="-64.21" y="0">Made with </tspan><tspan class="b" y="0">❤</tspan><tspan y="0" xml:space="preserve"> in Atomkit</tspan></text><g transform="translate(74 44)"><text class="a" transform="translate(580 6642.069)"><tspan x="-54.943" y="0">Terms &amp; Conditions </tspan></text><text class="c" transform="translate(577 6666.069)"><tspan x="-51.832" y="0">Privacy And Policy </tspan></text><text class="c" transform="translate(548 6714.069)"><tspan x="-22.574" y="0">Sitemap</tspan></text><text class="c" transform="translate(536 6690.069)"><tspan x="-10.949" y="0">FAQ</tspan></text></g><g transform="translate(108 44)"><text class="a" transform="translate(332 6642.069)"><tspan x="-24.727" y="0">About Us</tspan></text><text class="c" transform="translate(337 6666.069)"><tspan x="-30.341" y="0">Contact Us</tspan></text><text class="c" transform="translate(329 6714.069)"><tspan x="-22.463" y="0">Projects</tspan></text><text class="c" transform="translate(325 6690.069)"><tspan x="-18.007" y="0">Career</tspan></text></g><text class="d" transform="translate(138 6828.069)"><tspan x="0" y="0">© 2020 All Rights Reserved Al Souqi Group</tspan></text></g><g transform="translate(-61 183)"><g transform="translate(150.032 3.253)"><rect class="e" width="318" height="40" transform="translate(704.968 5750.748)"/><text class="f" transform="translate(739.968 5775.748)"><tspan x="-21.852" y="0">Email *</tspan></text></g><g transform="translate(473.632 3.253)"><g class="g" transform="translate(705.368 5750.748)"><rect class="k" width="108" height="40"/><rect class="l" x="0.5" y="0.5" width="107" height="39"/></g><text class="h" transform="translate(759.368 5775.748)"><tspan x="-30.888" y="0">Subscribe</tspan></text></g><text class="i" transform="translate(967 5730)"><tspan x="-112.452" y="0">Stay up to date with our latest news</tspan></text><text class="h" transform="translate(898 5711)"><tspan x="-43.104" y="0">NEWSLETTER</tspan></text></g></g><g transform="translate(224.899 2814)"><g transform="translate(-106.545)"><path class="j" d="M21.506,4.5H5.494a.994.994,0,0,0-.994.994V21.506a.994.994,0,0,0,.994.994H13.5V15.375H11.348V12.75H13.5V10.809a3.42,3.42,0,0,1,3.689-3.591c.994,0,2.063.075,2.311.108V9.755H17.845c-1.13,0-1.345.534-1.345,1.322V12.75h2.691l-.352,2.625H16.5V22.5h5.006a.994.994,0,0,0,.994-.994V5.494A.994.994,0,0,0,21.506,4.5Z" transform="translate(27.146 -4.5)"/><path class="j" d="M16.071,2.25H1.929A1.929,1.929,0,0,0,0,4.179V18.321A1.929,1.929,0,0,0,1.929,20.25H16.071A1.929,1.929,0,0,0,18,18.321V4.179A1.929,1.929,0,0,0,16.071,2.25ZM14.107,8.63c.008.112.008.229.008.342a7.446,7.446,0,0,1-7.5,7.5,7.463,7.463,0,0,1-4.046-1.181,5.551,5.551,0,0,0,.635.032A5.283,5.283,0,0,0,6.477,14.2a2.639,2.639,0,0,1-2.463-1.828A2.84,2.84,0,0,0,5.2,12.319,2.635,2.635,0,0,1,3.094,9.731V9.7a2.633,2.633,0,0,0,1.189.333A2.63,2.63,0,0,1,3.11,7.839a2.6,2.6,0,0,1,.358-1.33A7.482,7.482,0,0,0,8.9,9.265a2.641,2.641,0,0,1,4.5-2.407,5.164,5.164,0,0,0,1.671-.635,2.628,2.628,0,0,1-1.157,1.45,5.244,5.244,0,0,0,1.519-.41A5.547,5.547,0,0,1,14.107,8.63Z" transform="translate(62.645 -2.25)"/><g transform="translate(152.646)"><path class="j" d="M16.714,2.25H1.282A1.291,1.291,0,0,0,0,3.548v15.4a1.291,1.291,0,0,0,1.282,1.3H16.714A1.3,1.3,0,0,0,18,18.952V3.548A1.3,1.3,0,0,0,16.714,2.25ZM5.44,17.679H2.772V9.088H5.444v8.59ZM4.106,7.915A1.547,1.547,0,1,1,5.653,6.368,1.548,1.548,0,0,1,4.106,7.915Zm11.334,9.763H12.773V13.5c0-1-.02-2.278-1.386-2.278-1.39,0-1.6,1.085-1.6,2.206v4.251H7.116V9.088H9.675v1.173h.036a2.81,2.81,0,0,1,2.527-1.386c2.7,0,3.2,1.78,3.2,4.094Z" transform="translate(0 -2.25)"/></g><path class="j" d="M17.883,7.482a2.733,2.733,0,0,0-2.6-2.855C13.333,4.535,11.346,4.5,9.317,4.5H8.685c-2.025,0-4.015.035-5.963.127a2.739,2.739,0,0,0-2.6,2.862C.035,8.74,0,9.992,0,11.244s.035,2.5.12,3.759a2.742,2.742,0,0,0,2.6,2.866c2.046.095,4.145.137,6.28.134s4.23-.035,6.28-.134A2.743,2.743,0,0,0,17.879,15c.084-1.255.123-2.507.12-3.762S17.967,8.737,17.883,7.482Zm-10.6,7.212V7.784l5.1,3.453Z" transform="translate(122.645 -1.5)"/><g transform="translate(92.646)"><path class="j" d="M17.25,6A3.761,3.761,0,0,1,21,9.75v7.5A3.761,3.761,0,0,1,17.25,21H9.75A3.761,3.761,0,0,1,6,17.25V9.75A3.761,3.761,0,0,1,9.75,6h7.5m0-1.5H9.75A5.265,5.265,0,0,0,4.5,9.75v7.5A5.265,5.265,0,0,0,9.75,22.5h7.5a5.265,5.265,0,0,0,5.25-5.25V9.75A5.265,5.265,0,0,0,17.25,4.5Z" transform="translate(-4.5 -4.5)"/><path class="j" d="M25.313,12.375A1.688,1.688,0,1,1,27,10.688,1.683,1.683,0,0,1,25.313,12.375Z" transform="translate(-11.786 -6.214)"/><path class="j" d="M14.925,12.475a2.45,2.45,0,1,1-2.45,2.45,2.452,2.452,0,0,1,2.45-2.45m0-1.225A3.675,3.675,0,1,0,18.6,14.925a3.676,3.676,0,0,0-3.675-3.675Z" transform="translate(-5.85 -5.85)"/></g></g></g></g></svg>