<svg xmlns="http://www.w3.org/2000/svg" xmlns:xlink="http://www.w3.org/1999/xlink" width="126.974" height="54.034" viewBox="0 0 126.974 54.034"><defs><style>.a,.e,.f{fill:#fff;}.a{font-size:21px;font-family:Helvetica;}.b,.c,.d{stroke:#fff;stroke-miterlimit:10;}.b{fill:url(#a);}.c{fill:url(#b);}.d{fill:url(#c);}.e{opacity:0.15;}.f{opacity:0.1;}.g{opacity:0.08;fill:url(#d);}</style><linearGradient id="a" x1="0.031" y1="0.504" x2="1.037" y2="0.504" gradientUnits="objectBoundingBox"><stop offset="0" stop-color="#bd461c"/><stop offset="1" stop-color="#f7931e"/></linearGradient><linearGradient id="b" x1="0.008" y1="0.506" x2="1.014" y2="0.506" gradientUnits="objectBoundingBox"><stop offset="0" stop-color="#ffac2a"/><stop offset="1" stop-color="#f15a24"/></linearGradient><linearGradient id="c" x1="0.068" y1="0.731" x2="1.018" y2="0.259" gradientUnits="objectBoundingBox"><stop offset="0"/><stop offset="1"/></linearGradient><linearGradient id="d" x1="-0.036" y1="0.552" x2="1.054" y2="-0.104" xlink:href="#c"/></defs><g transform="translate(-305.47 -317.145)"><text class="a" transform="translate(353.444 337.858)"><tspan x="0" y="0">Al Souqi</tspan><tspan x="0" y="25">Group</tspan></text><g transform="translate(305.971 317.66)"><path class="b" d="M457.037,344.307l31.937-14.3a1.717,1.717,0,0,0,1.015-1.614l-.245-9.065a1.718,1.718,0,0,0-2.419-1.521l-31.937,14.3a1.717,1.717,0,0,0-1.015,1.614l.246,9.065A1.717,1.717,0,0,0,457.037,344.307Z" transform="translate(-454.373 -317.66)"/><path class="c" d="M464.295,435.841l31.938-14.3a1.717,1.717,0,0,0,1.015-1.613L497,410.865a1.717,1.717,0,0,0-2.417-1.52l-31.938,14.3a1.717,1.717,0,0,0-1.015,1.613l.246,9.067A1.717,1.717,0,0,0,464.295,435.841Z" transform="translate(-459.553 -382.988)"/><path class="d" d="M490.558,391.476,456.066,380.1a1.718,1.718,0,0,1-1.18-1.62l-.058-8.815a1.718,1.718,0,0,1,2.257-1.643L491.576,379.4a1.718,1.718,0,0,1,1.18,1.62l.058,8.815A1.718,1.718,0,0,1,490.558,391.476Z" transform="translate(-454.698 -353.539)"/><path class="e" d="M501.04,321l.573,6.012-8.016,3.149-9.447,4.867-11.165-1.145" transform="translate(-467.656 -320.044)"/><path class="f" d="M505.185,398.6l.573.573-.141-8.872a1.415,1.415,0,0,0-1-1.15l-16.147-4.818c-.346-.1-12.167-4.5-12.489-4.341L484.7,385.8" transform="translate(-469.797 -362.142)"/><path class="g" d="M478.722,449.726,487.883,444l8.589,2.577-28.915,12.6-.573-5.726" transform="translate(-463.374 -407.831)"/></g></g></svg>