<svg xmlns="http://www.w3.org/2000/svg" xmlns:xlink="http://www.w3.org/1999/xlink" width="137" height="137" viewBox="0 0 137 137"><defs><style>.a{fill:#fff;}.b{isolation:isolate;clip-path:url(#a);}.c{fill:url(#b);}.d{fill:url(#c);}.e{fill:url(#d);}.f{fill:url(#e);}.g{fill:url(#f);}.h{fill:url(#g);}.i{fill:url(#h);}.j{fill:url(#i);}.k{fill:#44b9ae;}.l{fill:#3c5680;}.m{fill:url(#j);}.n{fill:url(#k);}.o{fill:url(#l);}.p{fill:url(#m);}</style><clipPath id="a"><rect class="a" width="137" height="137"/></clipPath><linearGradient id="b" x1="0.162" y1="0.4" x2="0.806" y2="0.586" gradientUnits="objectBoundingBox"><stop offset="0" stop-color="#f57f20" stop-opacity="0.8"/><stop offset="1" stop-color="#f15822"/></linearGradient><linearGradient id="c" y1="0.495" x2="1.005" y2="0.495" gradientUnits="objectBoundingBox"><stop offset="0" stop-color="#fecf63" stop-opacity="0.82"/><stop offset="1" stop-color="#febb12" stop-opacity="0.82"/></linearGradient><linearGradient id="d" x1="1" y1="0.499" x2="0" y2="0.499" gradientUnits="objectBoundingBox"><stop offset="0" stop-color="#2b837c"/><stop offset="1" stop-color="#00bff3"/></linearGradient><linearGradient id="e" y1="0.499" x2="1" y2="0.499" gradientUnits="objectBoundingBox"><stop offset="0" stop-color="#3a547d"/><stop offset="1" stop-color="#4f65af"/></linearGradient><linearGradient id="f" x1="0.502" y1="1.005" x2="0.502" gradientUnits="objectBoundingBox"><stop offset="0.021" stop-color="#ef4136"/><stop offset="1" stop-color="#f26450"/></linearGradient><linearGradient id="g" x1="1" y1="0.499" x2="0.002" y2="0.499" gradientUnits="objectBoundingBox"><stop offset="0" stop-color="#903a62" stop-opacity="0.8"/><stop offset="1" stop-color="#4f122c" stop-opacity="0.82"/></linearGradient><linearGradient id="h" x1="-0.005" y1="0.498" x2="0.993" y2="0.498" xlink:href="#b"/><linearGradient id="i" x1="0.004" y1="0.495" x2="1.004" y2="0.495" xlink:href="#c"/><linearGradient id="j" x1="-0.009" y1="0.491" x2="1" y2="0.491" xlink:href="#f"/><linearGradient id="k" x1="0.002" y1="0.508" x2="1.001" y2="0.508" xlink:href="#g"/><linearGradient id="l" x1="0.003" y1="0.501" x2="1" y2="0.501" xlink:href="#e"/><linearGradient id="m" x1="0.002" y1="0.509" x2="1.011" y2="0.509" xlink:href="#d"/></defs><g class="b"><g transform="translate(15.631 1.039)"><g transform="translate(0 0)"><path class="c" d="M94.738,31.461a27.28,27.28,0,0,0-4.795,7.991,25.429,25.429,0,0,0-1.918,6.553A77.755,77.755,0,0,1,67.569,66.622a60.83,60.83,0,0,1-1.918-15.183,53.357,53.357,0,0,1,4.315-20.457,54.232,54.232,0,0,1,12.306-18.06A52.747,52.747,0,0,1,96.816,2.854,67.556,67.556,0,0,1,94.738,31.461Z" transform="translate(-65.651 2.58)"/><path class="d" d="M67.633,34.428c-.639-1.758-1.279-3.676-1.758-5.434,9.27-6.553,15.982-13.585,20.457-20.617a35.252,35.252,0,0,0-.639,5.913A33.119,33.119,0,0,0,87.93,26.756a36.92,36.92,0,0,0,7.032,11.028l7.032,7.352A149.441,149.441,0,0,0,81.7,55.524l-2.4-2.4A62.912,62.912,0,0,1,67.633,34.428Z" transform="translate(-64.117 40.368)"/><path class="e" d="M88.211,13.024l16.142,16.621.639,30.845L67.913,23.413A149.432,149.432,0,0,1,88.211,13.024Z" transform="translate(-50.173 72.16)"/><path class="f" d="M96.214,13.324a4.31,4.31,0,0,0,1.119-1.279,61.9,61.9,0,0,1,22.535,6.233A59.4,59.4,0,0,1,111.4,28.987l-38.2,38.2-.639-30.845Z" transform="translate(-18.381 65.467)"/><path class="g" d="M132.31,16.544A52.646,52.646,0,0,0,116.487,6.316,54.584,54.584,0,0,0,95.87,2.161h-.16A57.465,57.465,0,0,0,75.094,6c-1.279.479-2.557,1.119-3.836,1.6A59.768,59.768,0,0,1,69.34,36.043,20.578,20.578,0,0,1,71.9,33.326a32.876,32.876,0,0,1,11.028-7.192,34.706,34.706,0,0,1,12.626-2.4,33.426,33.426,0,0,1,12.466,2.557,30.586,30.586,0,0,1,9.909,6.553C119.684,24.216,125.917,19.261,132.31,16.544Z" transform="translate(-40.412 -2.161)"/><path class="h" d="M103.825,24.313A53.413,53.413,0,0,0,92,6.093L89.92,4.015c-6.393,2.717-12.626,7.671-14.384,16.3l.959.959A32.875,32.875,0,0,1,83.687,32.3a34.705,34.705,0,0,1,2.4,12.626A30.72,30.72,0,0,1,83.368,57.4a31.476,31.476,0,0,1-6.393,9.589,61.9,61.9,0,0,1,22.535,6.233,62.056,62.056,0,0,0,3.836-7.192,66.6,66.6,0,0,0,2.877-9.11,47.6,47.6,0,0,0,1.438-11.667A52.335,52.335,0,0,0,103.825,24.313Z" transform="translate(1.977 10.528)"/><g transform="translate(34.202 36.095)"><path class="i" d="M86.841,14.939a12.814,12.814,0,0,0-3.356.8,10.188,10.188,0,0,0-2.237,1.279,27.481,27.481,0,0,1-10.868,0A18.9,18.9,0,0,1,73.9,12.542a23.332,23.332,0,0,1,6.553-4.315,19.2,19.2,0,0,1,7.991-1.438,22.54,22.54,0,0,1,6.553,1.119A24.063,24.063,0,0,1,86.841,14.939Z" transform="translate(-67.503 -6.764)"/><path class="j" d="M71.771,9.989l.959-1.918a27.481,27.481,0,0,0,10.868,0A13.911,13.911,0,0,0,81.839,9.51a12.894,12.894,0,0,0-2.717,3.836,11.677,11.677,0,0,0-.959,4.795v3.836a52.066,52.066,0,0,0-8.151-2.557V18.14A21.788,21.788,0,0,1,71.771,9.989Z" transform="translate(-70.013 2.182)"/><path class="k" d="M78.164,12.195,78,20.825l-.16.479L70.013,9.478C72.57,10.277,75.287,11.076,78.164,12.195Z" transform="translate(-70.013 11.803)"/><path class="l" d="M83.617,11.085h.639A20.569,20.569,0,0,1,88.571,18.6a26.331,26.331,0,0,1-5.114.639L70.991,11.4l.16-.479Z" transform="translate(-63.32 21.703)"/><path class="m" d="M94.075,25.309a23.9,23.9,0,0,0-1.438-6.872,20.328,20.328,0,0,0-4.315-6.553h0a22.008,22.008,0,0,0-6.393-4.475L80.49,6.93A21.963,21.963,0,0,1,72.5,13.962h1.438a11.677,11.677,0,0,1,4.795.959,11.8,11.8,0,0,1,4,2.717,11.443,11.443,0,0,1,2.557,4,14,14,0,0,1,.959,4.315C88.641,23.871,91.678,24.191,94.075,25.309Z" transform="translate(-53.001 -5.627)"/><path class="n" d="M91.062,19.044a19.432,19.432,0,0,0,1.758-7.991V9.934a8.741,8.741,0,0,0-8.151.479v.479a11.678,11.678,0,0,1-.959,4.795,13.613,13.613,0,0,1-2.717,4,13.127,13.127,0,0,1-4,2.557,12.2,12.2,0,0,1-4.315.8A20.57,20.57,0,0,1,77,30.551a10.158,10.158,0,0,0,2.877-.959,29.805,29.805,0,0,0,3.2-1.6,18.835,18.835,0,0,0,3.516-2.717A14.91,14.91,0,0,0,91.062,19.044Z" transform="translate(-51.746 9.589)"/><g transform="translate(0 20.641)"><path class="o" d="M79.917,13.23a12.814,12.814,0,0,0,3.356-.8,10.189,10.189,0,0,0,2.238-1.279,27.48,27.48,0,0,1,10.868,0,18.9,18.9,0,0,1-3.516,4.475,23.331,23.331,0,0,1-6.553,4.315,19.2,19.2,0,0,1-7.991,1.438,22.54,22.54,0,0,1-6.553-1.119A22.611,22.611,0,0,1,79.917,13.23Z" transform="translate(-58.021 -1.084)"/><path class="p" d="M70.013,10.035a23.9,23.9,0,0,0,1.438,6.872,20.327,20.327,0,0,0,4.315,6.553h0a22.009,22.009,0,0,0,6.393,4.475l1.438.479a21.963,21.963,0,0,1,7.991-7.032H90.15a11.677,11.677,0,0,1-4.795-.959,13.614,13.614,0,0,1-4-2.717,11.444,11.444,0,0,1-2.557-4A20.931,20.931,0,0,1,77.844,9.4C75.447,11.474,72.41,11.154,70.013,10.035Z" transform="translate(-70.013 -9.396)"/></g></g></g></g></g></svg>